<svg width="468" height="471" viewBox="0 0 468 471" fill="none" xmlns="http://www.w3.org/2000/svg">
<path d="M251.939 8.08264C251.939 12.5009 255.521 16.0826 259.939 16.0826C264.358 16.0826 267.939 12.5009 267.939 8.08264C267.939 3.66436 264.358 0.0826416 259.939 0.0826416C255.521 0.0826416 251.939 3.66436 251.939 8.08264ZM259.939 208.083H258.439C258.439 208.911 259.111 209.583 259.939 209.583V208.083ZM451.939 208.083C451.939 212.501 455.521 216.083 459.939 216.083C464.358 216.083 467.939 212.501 467.939 208.083C467.939 203.664 464.358 200.083 459.939 200.083C455.521 200.083 451.939 203.664 451.939 208.083ZM258.439 8.08264V208.083H261.439V8.08264H258.439ZM259.939 209.583H459.939V206.583H259.939V209.583Z" fill="#EDD253"/>
<path d="M216.012 462.046C216.012 457.628 212.43 454.046 208.012 454.046C203.593 454.046 200.012 457.628 200.012 462.046C200.012 466.464 203.593 470.046 208.012 470.046C212.43 470.046 216.012 466.464 216.012 462.046ZM208.012 262.046H209.512C209.512 261.218 208.84 260.546 208.012 260.546V262.046ZM16.0117 262.046C16.0117 257.628 12.43 254.046 8.01172 254.046C3.59343 254.046 0.0117188 257.628 0.0117188 262.046C0.0117188 266.464 3.59343 270.046 8.01172 270.046C12.43 270.046 16.0117 266.464 16.0117 262.046ZM209.512 462.046V262.046H206.512V462.046H209.512ZM208.012 260.546H8.01172V263.546H208.012V260.546Z" fill="#EDD253"/>
<path d="M278.077 37.4705C278.077 41.8887 281.659 45.4705 286.077 45.4705C290.495 45.4705 294.077 41.8887 294.077 37.4705C294.077 33.0522 290.495 29.4705 286.077 29.4705C281.659 29.4705 278.077 33.0522 278.077 37.4705ZM286.077 183.942H284.577C284.577 184.77 285.249 185.442 286.077 185.442V183.942ZM424.548 183.942C424.548 188.36 428.13 191.942 432.548 191.942C436.967 191.942 440.548 188.36 440.548 183.942C440.548 179.523 436.967 175.942 432.548 175.942C428.13 175.942 424.548 179.523 424.548 183.942ZM284.577 37.4705V183.942H287.577V37.4705H284.577ZM286.077 185.442H432.548V182.442H286.077V185.442Z" fill="#EDD253"/>
<path d="M189.874 432.658C189.874 428.24 186.292 424.658 181.874 424.658C177.456 424.658 173.874 428.24 173.874 432.658C173.874 437.077 177.456 440.658 181.874 440.658C186.292 440.658 189.874 437.077 189.874 432.658ZM181.874 286.187H183.374C183.374 285.359 182.702 284.687 181.874 284.687V286.187ZM43.4027 286.187C43.4027 281.769 39.821 278.187 35.4027 278.187C30.9844 278.187 27.4027 281.769 27.4027 286.187C27.4027 290.605 30.9844 294.187 35.4027 294.187C39.821 294.187 43.4027 290.605 43.4027 286.187ZM183.374 432.658V286.187H180.374V432.658H183.374ZM181.874 284.687H35.4027V287.687H181.874V284.687Z" fill="#EDD253"/>
</svg>
