<svg width="895" height="28" viewBox="0 0 895 28" fill="none" xmlns="http://www.w3.org/2000/svg">
<path d="M0.666667 14C0.666667 21.3638 6.6362 27.3333 14 27.3333C21.3638 27.3333 27.3333 21.3638 27.3333 14C27.3333 6.6362 21.3638 0.666667 14 0.666667C6.6362 0.666667 0.666667 6.6362 0.666667 14ZM867.432 14C867.432 21.3638 873.401 27.3333 880.765 27.3333C888.129 27.3333 894.098 21.3638 894.098 14C894.098 6.6362 888.129 0.666667 880.765 0.666667C873.401 0.666667 867.432 6.6362 867.432 14ZM14 16.5L880.765 16.5V11.5L14 11.5V16.5Z" fill="#9BA1D1"/>
</svg>
