<svg width="394" height="336" viewBox="0 0 394 336" fill="none" xmlns="http://www.w3.org/2000/svg">
<path d="M248.429 34.4348C231.269 -6.0328 130.7 -14.0606 152.528 27.7936C198.07 115.115 232.277 223.472 223.072 310.301C220.999 329.86 215.23 359.909 243.294 301.726C280.377 224.859 260.622 63.2074 248.429 34.4348Z" fill="#F2F4FF"/>
<path d="M353.89 193.879C396.35 179.83 411.213 82.3098 367.035 100.829C274.85 139.435 161.921 165.599 73.8624 150.857C54.0138 147.536 23.7274 139.91 81.2752 171.127C157.327 212.397 323.715 203.859 353.89 193.879Z" fill="#F2F4FF"/>
<path d="M200.482 34.4348C183.323 -6.0328 82.7541 -14.0606 104.582 27.7936C150.123 115.115 184.331 223.472 175.126 310.301C173.053 329.86 167.283 359.909 195.348 301.726C232.431 224.859 212.675 63.2074 200.482 34.4348Z" fill="#151433"/>
<path d="M305.943 193.879C348.404 179.83 363.267 82.3098 319.089 100.829C226.904 139.435 113.974 165.599 25.9161 150.857C6.06749 147.536 -24.2189 139.91 33.3289 171.127C109.381 212.397 275.769 203.859 305.943 193.879Z" fill="#151433"/>
</svg>
