<svg width="274" height="275" viewBox="0 0 274 275" fill="none" xmlns="http://www.w3.org/2000/svg">
<path d="M12.084 154.503H86.1531V142.088H12.084V85.4467H94.7825V73.0321H12.084V12.511H65.2987V0.0964355H6.33106C3.15544 0.0964355 0.578125 2.8773 0.578125 6.30373V198.345H12.084V154.503Z" fill="#A7ACD9"/>
<path d="M6.33106 274.769H50.5596V262.354H12.084V244.117H0.578125V268.562C0.578125 271.994 3.15544 274.769 6.33106 274.769Z" fill="#A7ACD9"/>
<path d="M92.9878 262.354V274.769H182.877V262.354H142.964V148.295H142.245V142.088H114.199V154.503H131.458V262.354H92.9878Z" fill="#A7ACD9"/>
<path d="M262.337 39.2831H273.843V6.30373C273.843 2.8773 271.266 0.0964355 268.09 0.0964355H207.684V12.511H262.337V39.2831Z" fill="#A7ACD9"/>
<path d="M168.132 110.524V148.302C168.132 151.728 170.71 154.509 173.885 154.509H262.337V262.361H225.299V274.775H268.09C271.265 274.775 273.842 271.994 273.842 268.568V85.0618H262.337V142.094H179.638V107.954C179.638 106.309 179.034 104.726 177.952 103.566L169.323 94.2548L161.188 103.032L168.132 110.524Z" fill="#A7ACD9"/>
<path d="M131.457 73.0321H119.952V85.4467H148.716V73.0321H142.963V12.511H165.256V0.0964355H107.727V12.511H131.457V73.0321Z" fill="#A7ACD9"/>
</svg>
