<svg width="323" height="354" viewBox="0 0 323 354" fill="none" xmlns="http://www.w3.org/2000/svg">
<path d="M302.205 224.639C308.422 212.412 312.061 196.862 306.174 189.68C305.475 188.827 304.664 188.127 303.757 187.598C303.74 187.591 303.726 187.581 303.713 187.571L100.693 69.1156C100.602 69.064 100.494 69.0635 100.399 69.0209C99.9727 68.6449 99.5237 68.3073 99.0452 68.0325C96.6573 66.6311 91.5062 65.2701 83.8844 71.8655C79.1822 75.9427 74.5497 82.1951 70.8417 89.4834C66.3975 98.207 63.2935 108.618 64.0104 116.48L51.2852 109.054C51.1945 109.002 51.0863 109.002 50.9921 108.959C50.5684 108.58 50.119 108.249 49.6352 107.967C40.8847 102.853 28.825 114.886 21.4287 129.421C15.206 141.648 11.567 157.204 17.4565 164.389C18.1532 165.239 18.9647 165.933 19.8714 166.467C20.1324 166.621 20.4089 166.709 20.6774 166.833C20.9446 167.119 21.2238 167.394 21.562 167.59L224.585 286.036C233.336 291.145 245.399 279.109 252.792 264.577C257.208 255.904 260.299 245.568 259.632 237.722L273.996 246.102C282.746 251.21 294.815 239.168 302.205 224.639ZM277.873 238.467L82.3169 124.373C87.8988 120.337 93.4083 113.097 97.4913 105.07C101.361 97.4598 104.231 88.5575 104.426 81.1902L299.681 195.122C299.839 195.242 300.043 195.405 300.128 195.457C302.091 197.852 301.458 208.162 295.167 220.522C288.026 234.566 279.7 239.534 277.873 238.467ZM245.757 260.457C238.613 274.503 230.29 279.469 228.463 278.402L32.9039 164.31C38.4941 160.278 44.0012 153.029 48.0843 145.002C51.9541 137.392 54.824 128.489 55.019 121.122L250.277 235.051C250.432 235.174 250.636 235.337 250.721 235.388C252.684 237.783 252.051 248.093 245.757 260.457ZM28.4643 133.535C33.6749 123.301 39.4775 117.93 43.0632 116.251C44.3964 115.623 45.4446 115.469 46.0067 115.819C46.3644 116.256 46.5991 117.028 46.7621 117.95C47.206 120.385 46.9129 124.359 45.5644 129.307C45.2758 130.355 44.9664 131.417 44.5822 132.539L44.0712 132.238L40.5504 130.184L37.269 128.264C37.1865 128.216 37.0925 128.22 37.004 128.177C36.0781 127.725 35.0315 127.618 34.0531 127.982C32.9873 128.378 32.1212 129.234 31.661 130.342C28.8282 137.186 26.0731 145.046 25.0755 151.664C24.6742 154.329 24.579 156.783 24.86 158.901C24.3848 158.992 23.9928 158.98 23.7455 158.836C23.6573 158.788 23.5737 158.712 23.4942 158.615C23.118 158.156 22.8753 157.327 22.711 156.332C22.0259 152.111 23.3759 143.536 28.4643 133.535ZM41.239 140.476C41.1707 140.616 41.1201 140.745 41.0488 140.888C38.9023 145.106 36.6632 148.415 34.5089 151.078C34.0259 151.672 33.5467 152.297 33.0795 152.818C33.7935 148.943 35.3113 143.597 37.3005 138.176L40.1973 139.869L41.239 140.476ZM88.8846 78.6035C90.3325 77.3528 91.5265 76.6272 92.5472 76.1765C93.8838 75.5855 94.8837 75.5235 95.4224 75.8849C95.7801 76.3213 96.0148 77.0942 96.1778 78.0161C96.6217 80.4507 96.3286 84.4248 94.9771 89.3755C94.6915 90.4206 94.3821 91.4826 93.9979 92.6046L93.4869 92.3033L89.9661 90.2493L86.6848 88.3299C86.5997 88.2786 86.5081 88.2853 86.4196 88.243C85.4907 87.7934 84.4472 87.6837 83.4714 88.0511C82.4057 88.4468 81.537 89.2997 81.0794 90.4111C78.2466 97.2553 75.4911 105.121 74.4935 111.739C74.0949 114.408 73.9973 116.852 74.2757 118.966C73.8005 119.057 73.4111 119.049 73.1638 118.905C73.0756 118.857 72.9921 118.781 72.9126 118.684C72.5364 118.225 72.2936 117.396 72.1294 116.401C71.4355 112.182 72.7882 103.611 77.8796 93.6063C81.0359 87.3868 85.0482 81.9227 88.8846 78.6035ZM90.6463 100.538C90.578 100.678 90.5274 100.807 90.4561 100.95C88.3093 105.174 86.0676 108.48 83.9159 111.146C83.436 111.737 82.9564 112.368 82.4866 112.886C83.1979 109.008 84.7188 103.659 86.7079 98.2376L89.6073 99.9343L90.6463 100.538Z" fill="#A7ACD9"/>
</svg>
