<svg width="167" height="242" viewBox="0 0 167 242" fill="none" xmlns="http://www.w3.org/2000/svg">
<path d="M189.032 83.1246C187.852 68.279 181.617 54.8523 171.477 45.3176C162.595 36.9621 151.316 32.3605 139.722 32.3605C124.961 32.3605 111.084 39.6383 101.645 52.3281C100.318 54.1245 100.535 56.8053 102.124 58.3023L172.382 124.354C173.062 124.999 173.927 125.349 174.812 125.349C175.93 125.349 176.983 124.796 177.708 123.824C186.189 112.424 190.208 97.9701 189.032 83.1246ZM140.328 40.8727C140.852 40.8773 141.377 40.9233 141.901 40.9648L142.729 41.0247C143.257 41.0569 143.782 41.0892 144.31 41.1491C144.814 41.2135 145.318 41.3056 145.822 41.4024L147.002 41.6097C147.424 41.6834 147.842 41.7478 148.272 41.8537C148.772 41.9643 149.276 42.1209 149.775 42.2729L151.07 42.6506C151.439 42.7519 151.808 42.8533 152.156 42.9731C152.688 43.1573 153.213 43.383 153.737 43.6041L154.921 44.0923C155.278 44.2304 155.634 44.3687 155.986 44.5345C156.544 44.8016 157.084 45.101 157.625 45.405L158.776 46.0315C159.084 46.1928 159.391 46.3493 159.682 46.5244C160.362 46.9389 161.022 47.4088 161.685 47.8786L162.632 48.5373C162.832 48.6709 163.037 48.8044 163.238 48.961C164.393 49.8453 165.528 50.8034 166.626 51.8352C167.728 52.8715 168.765 53.9494 169.748 55.0779C169.912 55.2668 170.063 55.4694 170.215 55.6675L170.969 56.6164C171.497 57.2613 172.022 57.9015 172.505 58.5924C172.722 58.8918 172.919 59.2096 173.115 59.5275L173.775 60.5501C174.164 61.1397 174.554 61.7246 174.906 62.351C175.107 62.6919 175.287 63.0419 175.463 63.3966L176.135 64.6909C176.413 65.2114 176.692 65.7365 176.942 66.2892C177.143 66.7176 177.315 67.1598 177.491 67.602L177.929 68.6707C178.171 69.2418 178.409 69.8083 178.618 70.4025C178.769 70.8216 178.896 71.2454 179.027 71.6691L179.445 73.0096C179.617 73.5531 179.789 74.0921 179.933 74.6448C180.072 75.1837 180.183 75.7318 180.301 76.2799L180.523 77.2841C180.65 77.8553 180.785 78.4218 180.879 79.0021C180.965 79.4858 181.023 79.9786 181.088 80.4669L181.223 81.517C181.309 82.1573 181.399 82.7976 181.457 83.4379C181.502 83.9492 181.522 84.4697 181.543 84.9855L181.588 85.9666C181.625 86.616 181.658 87.261 181.658 87.9427C181.662 88.4724 181.641 89.0113 181.617 89.5456L181.58 90.4529C181.559 91.1024 181.539 91.7473 181.485 92.4106C181.44 92.968 181.371 93.5253 181.301 94.0827L181.24 94.5846C181.149 95.3447 181.055 96.1046 180.928 96.8647C180.838 97.4312 180.715 97.9978 180.596 98.5598L180.424 99.3888C180.293 100.02 180.162 100.646 180.002 101.264C179.838 101.908 179.642 102.535 179.384 103.378C179.162 104.119 178.945 104.847 178.683 105.579C178.462 106.206 178.216 106.819 177.892 107.615C177.602 108.334 177.307 109.048 176.979 109.762C176.704 110.375 176.393 110.969 176 111.738C175.639 112.443 175.279 113.129 174.898 113.788C174.664 114.188 174.422 114.58 174.172 114.976L110.027 54.6634C110.322 54.3225 110.626 53.9863 110.925 53.6684C111.449 53.1157 111.99 52.5906 112.649 51.9642C113.125 51.5082 113.6 51.0614 114.096 50.633C114.657 50.1494 115.231 49.6979 115.906 49.1774C116.415 48.7813 116.935 48.376 117.455 48.0121C118.029 47.6114 118.606 47.2521 119.274 46.8329C119.848 46.4736 120.413 46.1144 120.991 45.792C121.556 45.4788 122.13 45.1978 122.707 44.9215L123.101 44.7279C123.625 44.4654 124.145 44.2074 124.69 43.9771C125.329 43.7054 125.973 43.475 126.948 43.1204C127.46 42.9315 127.976 42.7382 128.5 42.5769C129.037 42.4111 129.586 42.2775 130.123 42.1394L130.868 41.9551C131.372 41.8261 131.872 41.6971 132.396 41.5958C132.962 41.4806 133.531 41.4024 134.424 41.2826L134.924 41.2089C135.395 41.1352 135.867 41.0707 136.354 41.0247C136.932 40.9694 137.509 40.9556 138.403 40.9326L138.956 40.9095C139.357 40.8911 139.759 40.8772 140.164 40.8772V38.5788L140.328 40.8727Z" fill="#9BA1D1"/>
<path d="M189.65 20.8724C175.688 7.74038 157.961 0.513306 139.733 0.513306C117.881 0.513306 97.1012 10.7574 82.3934 28.689L79.841 26.2846C76.8953 23.5117 72.1143 24.0093 69.6602 27.3119L53.6004 48.9053C52.3631 50.5681 51.7773 52.6778 51.9494 54.8426C52.1214 57.0029 53.031 58.9558 54.5099 60.3515L179.023 177.407C180.317 178.628 181.968 179.296 183.66 179.296C185.807 179.296 187.827 178.241 189.203 176.384L205.263 154.786C207.816 151.35 207.41 146.219 204.358 143.34L201.797 140.936C226.62 104.091 221.372 50.6879 189.65 20.8724ZM183.386 158.107L177.589 152.658L172.197 159.918L166.101 154.192L171.501 146.933L165.712 141.484L160.312 148.743L154.22 143.018L159.616 135.758L153.827 130.309L148.427 137.569L142.339 131.848L147.735 124.579L141.942 119.144L136.55 126.394L130.454 120.673L135.854 113.405L130.061 107.97L124.665 115.229L118.573 109.499L123.969 102.24L118.18 96.7906L112.78 104.054L106.688 98.3245L112.083 91.0606L106.295 85.6208L100.899 92.8754L94.807 87.15L100.203 79.8953L94.4136 74.4464L89.0181 81.7056L82.9219 75.9801L88.3215 68.7209L82.5327 63.2718L77.133 70.5311L71.0409 64.8057L76.4365 57.5465L70.6476 52.0973L65.2479 59.3567L59.6147 54.0642L75.2647 33.028L80.3982 37.8553C81.9345 39.3062 84.4255 39.0574 85.716 37.3209C99.1046 19.3201 118.798 8.9932 139.754 8.9932C156.211 8.9932 172.222 15.5247 184.832 27.3809C199.224 40.9137 208.074 59.9692 209.745 81.0422C211.417 102.115 205.71 122.631 193.673 138.808C192.342 140.6 192.555 143.28 194.148 144.791L199.286 149.618L183.636 170.65L178.002 165.362L183.386 158.107Z" fill="#9BA1D1"/>
<path d="M28.0263 55.0044L0.241211 90.7664L152.179 240.019L153.723 241.529L181.508 205.772L29.5708 56.5152L28.0263 55.0044ZM10.8932 89.9511L28.7473 66.9804L29.6405 67.86L24.0974 74.995L29.792 80.5776L35.3311 73.4473L44.6064 82.5582L39.0593 89.6839L44.7416 95.2803L50.2889 88.1409L59.5601 97.2518L54.0129 104.377L59.7075 109.974L65.2506 102.834L74.5301 111.945L68.9788 119.094L74.6694 124.654L80.2125 117.532L89.4879 126.648L83.9488 133.774L89.6353 139.356L95.1785 132.226L104.454 141.337L98.9026 148.477L104.597 154.055L110.136 146.924L119.412 156.035L113.868 163.161L119.551 168.757L125.098 161.618L134.369 170.733L128.826 177.873L134.513 183.451L140.06 176.32L149.331 185.432L143.788 192.557L149.47 198.154L155.022 191.014L164.293 200.125L158.746 207.255L164.436 212.833L169.98 205.712L170.881 206.592L153.027 229.563L10.8932 89.9511Z" fill="#9BA1D1"/>
</svg>
