<svg width="271" height="230" viewBox="0 0 271 230" fill="none" xmlns="http://www.w3.org/2000/svg">
<g clip-path="url(#clip0_28_4234)">
<path d="M248.436 131.013C248.436 131.013 238.497 136.046 215.163 138.562C191.828 141.079 180.822 138.562 180.822 138.562L180.72 143.138" fill="#F2F4FF"/>
<path d="M180.822 141.13C180.237 169.574 175.484 199.517 161.325 223.995C160.054 226.054 157.792 230.096 155.86 229.994C153.42 228.749 154.106 222.877 153.878 220.005C153.623 192.781 152.505 165.557 149.607 138.512L148.692 138.308C113.665 136.326 66.4619 129.996 35.3238 102.646C34.6883 101.985 35.4 102.086 37.9673 102.366C46.3047 103.281 71.9524 105.975 87.6105 105.874C103.777 105.848 131.763 102.9 140.99 101.959L141.448 100.866C132.271 73.0833 120.02 46.4443 107.005 20.2628" fill="#F2F4FF"/>
<path d="M258.959 67.6437C258.959 67.6437 276.448 70.6939 267.703 100.256C258.959 129.818 247.953 131.013 247.953 131.013L180.72 143.138V141.13L180.745 140.164L181.33 92.0966C181.737 66.7032 180.059 40.1404 167.655 17.3905H167.4C167.4 17.3905 152.175 0.207275 122.994 0.207275C93.8127 0.207275 107.081 20.6187 107.081 20.6187L107.946 21.4575L180.822 92.0458L181.737 92.9355C192.209 94.4098 204.944 86.7841 214.502 83.2C229.194 77.6841 243.657 71.4311 258.934 67.6437" fill="#F2F4FF"/>
<path d="M107.488 20.9237L181.101 142.274L181.762 92.9101" fill="#F2F4FF"/>
</g>
<g clip-path="url(#clip1_28_4234)">
<path d="M213.957 131.011C213.957 131.011 204.018 136.044 180.683 138.56C157.349 141.077 146.342 138.56 146.342 138.56L146.241 143.136" fill="#2F2E59"/>
<path d="M146.342 141.128C145.758 169.572 141.004 199.515 126.846 223.993C125.575 226.052 123.313 230.094 121.381 229.992C118.941 228.747 119.627 222.875 119.398 220.003C119.144 192.779 118.026 165.555 115.128 138.51L114.213 138.306C79.1856 136.324 31.9827 129.994 0.84453 102.644C0.209057 101.983 0.920787 102.084 3.4881 102.364C11.8255 103.279 37.4732 105.973 53.1312 105.872C69.2977 105.846 97.2839 102.898 106.511 101.957L106.968 100.864C97.7922 73.0814 85.5403 46.4423 72.5259 20.2609" fill="#2F2E59"/>
<path d="M224.48 67.6417C224.48 67.6417 241.968 70.692 233.224 100.254C224.48 129.816 213.474 131.011 213.474 131.011L146.241 143.136V141.128L146.266 140.162L146.851 92.0947C147.257 66.7012 145.58 40.1384 133.175 17.3885H132.921C132.921 17.3885 117.695 0.205322 88.5144 0.205322C59.3335 0.205322 72.6021 20.6167 72.6021 20.6167L73.4664 21.4555L146.342 92.0439L147.257 92.9335C157.73 94.4078 170.465 86.7821 180.022 83.1981C194.715 77.6822 209.178 71.4291 224.455 67.6417" fill="#2F2E59"/>
<path d="M73.0088 20.9218L146.622 142.272L147.283 92.9081" fill="#2F2E59"/>
</g>
<defs>
<clipPath id="clip0_28_4234">
<rect width="235.074" height="229.787" fill="white" transform="translate(35.095 0.207275)"/>
</clipPath>
<clipPath id="clip1_28_4234">
<rect width="235.074" height="229.787" fill="white" transform="translate(0.615723 0.205322)"/>
</clipPath>
</defs>
</svg>
