<svg width="1921" height="1041" viewBox="0 0 1921 1041" fill="none" xmlns="http://www.w3.org/2000/svg">
<g clip-path="url(#clip0_215_30)">
<rect width="1921" height="1041" fill="white"/>
<rect x="0.0678711" y="-0.0390625" width="1920.56" height="1041.06" fill="#08081A"/>
<g opacity="0.25">
<path d="M44.3242 439.58C161.112 454.64 181.141 590.192 298.293 602.088C422.388 614.689 478.76 428.168 592.842 478.593C675.21 515 720.647 578.59 723.489 668.585C726.791 773.15 527.309 783.611 561.962 882.325C589.206 959.935 731.771 905.618 744.867 986.82C756.313 1057.79 692.863 1088.45 642.725 1139.98C583.157 1201.19 545.243 1260.64 459.82 1259.93C367.799 1259.18 360.859 1141.96 272.164 1117.44C185.988 1093.61 131.47 1159.97 44.3242 1139.98C-222.324 1078.8 -227.007 404.591 44.3242 439.58Z" fill="#2F2E59"/>
<path d="M138.352 407.935C196.107 415.383 230.121 452.387 264.13 489.386L264.895 490.218C299.133 527.462 333.546 564.475 392.334 570.444C423.498 573.609 450.398 564.267 474.978 549.303C496.945 535.93 517.089 518.046 536.776 500.567C539.105 498.5 541.427 496.438 543.745 494.391C565.684 475.009 587.249 456.868 610.433 446.706C633.586 436.557 658.353 434.366 686.731 446.91C727.847 465.083 759.719 490.029 781.668 521.638C803.616 553.246 815.662 591.546 817.08 636.46C817.9 662.416 806.145 682.548 788.513 699.715C771.919 715.87 750.161 729.358 728.849 742.57C727.496 743.409 726.145 744.246 724.796 745.084C702.248 759.087 680.591 772.957 666.753 789.527C659.827 797.82 654.844 806.807 652.691 816.843C650.538 826.881 651.223 837.935 655.581 850.35C662.453 869.926 676.604 881.17 694.096 888.298C710.895 895.143 730.822 898.208 750.401 901.22C751.18 901.34 751.958 901.459 752.735 901.579C773.094 904.718 792.915 907.958 808.469 915.46C823.982 922.941 835.221 934.648 838.465 954.759C844.156 990.047 831.246 1015.31 810.61 1038.21C800.284 1049.68 788.031 1060.54 775.208 1071.77C774.438 1072.45 773.666 1073.12 772.891 1073.8C760.786 1084.39 748.255 1095.36 736.458 1107.49C726.726 1117.49 717.581 1127.43 708.718 1137.07C690.417 1156.97 673.322 1175.55 654.744 1190.65C627.212 1213.01 596.487 1227.64 553.915 1227.29C508.172 1226.92 483.565 1197.63 459.236 1165.16C457.646 1163.04 456.058 1160.9 454.465 1158.76C431.713 1128.18 408.018 1096.33 366.388 1084.82C323.144 1072.86 287.841 1083.54 252.549 1094.65C251.927 1094.85 251.305 1095.04 250.683 1095.24C215.996 1106.17 181.186 1117.13 138.527 1107.35C72.0736 1092.1 21.882 1038.64 -11.7805 967.454C-45.44 896.27 -62.5342 807.427 -62.8267 721.573C-63.1193 635.713 -46.6082 552.9 -13.1147 493.758C20.3679 434.636 70.7782 399.221 138.352 407.935Z" stroke="#F2F4FF"/>
</g>
</g>
<defs>
<clipPath id="clip0_215_30">
<rect width="1921" height="1041" fill="white"/>
</clipPath>
</defs>
</svg>
