<svg width="1921" height="1081" viewBox="0 0 1921 1081" fill="none" xmlns="http://www.w3.org/2000/svg">
<path d="M2563.25 195.065C2678.21 78.5555 2676.94 -110.826 2560.43 -225.781L2548.44 -237.609C2431.93 -352.564 2242.55 -351.292 2127.59 -234.782L1416.42 486.011C1301.47 602.522 1302.74 791.901 1419.25 906.855L1431.24 918.683C1547.75 1033.64 1737.13 1032.36 1852.09 915.854L2563.25 195.065Z" fill="#A7ACD9"/>
<path d="M1989.84 1078.83H1098.59C1098.59 918.694 1098.27 758.561 1097.95 598.428L1319.22 628.837L1320.19 199.228L1163.94 285.603L1163.29 459.646L1298.19 484.556L1298.84 591.311C1251.61 584.517 1204.7 577.724 1157.47 570.607L1157.8 464.499L1083.39 450.588L955.284 527.905L954.96 746.915L882.496 788.646V565.431L949.784 524.67V438.618L868.909 392.358L740.479 473.233V1039.36H846.91V869.522L769.27 914.812V530.493L852.733 483.262L852.41 860.141L1004.13 771.501V1076.24H604.932V1071.06H998.632V781.206L852.41 866.287V1044.86H734.979V470.322C779.622 442.177 824.265 414.032 868.908 385.888C897.7 402.386 926.492 418.885 955.283 435.383V521.435L1081.45 445.412L1083.39 445.088L1158.12 458.675L1158.44 282.367L1325.69 189.846L1324.72 629.807L1489.06 652.453V896.049L1582.23 902.195L1579.32 469.675L1349.31 426.649C1348.66 347.391 1348.01 268.133 1347.37 189.199C1513.65 236.107 1679.6 283.014 1845.88 330.246C1848.47 566.078 1851.38 801.91 1853.65 1037.74L1785.39 1040.98L1779.56 503.643L1641.11 475.175L1642.08 977.249L1774.39 980.807V1015.75H1117.68V982.425H1483.88L1483.56 901.226L1318.57 890.55L1319.22 634.338L1103.45 604.575L1104.09 1073.33H1989.84V1078.83ZM1483.56 657.306L1324.72 635.307L1324.07 885.374L1483.56 895.726V657.306ZM1489.06 901.549V987.923H1123.18V1010.24H1768.89V986.305L1636.58 982.747C1636.25 811.291 1636.25 639.835 1635.93 468.703C1685.43 478.732 1735.24 488.761 1785.06 499.113L1790.56 1035.15L1848.15 1032.57L1840.38 334.451L1352.87 196.317L1354.81 422.12L1584.82 465.146C1585.79 612.986 1586.76 760.502 1587.73 908.342L1489.06 901.549ZM1163.29 465.469L1162.97 566.078L1293.34 585.164L1292.7 489.085L1163.29 465.469ZM949.784 531.14L887.672 568.342V779.265L949.461 743.679L949.784 531.14ZM846.91 863.375L847.234 492.643L774.77 533.728V905.431L846.91 863.375Z" fill="#DADDF2"/>
<path d="M-453.523 804.044C-651.45 650.334 -687.626 362.629 -533.916 164.702L-518.1 144.336C-364.388 -53.5912 -76.6863 -89.7669 121.241 63.9434L1345.72 1014.88C1543.64 1168.6 1579.82 1456.3 1426.11 1654.22L1410.29 1674.59C1256.58 1872.51 968.874 1908.69 770.947 1754.98L-453.523 804.044Z" fill="#545C99"/>
<g opacity="0.6">
<path d="M320.729 736.74L234.36 700.722V708.571L320.729 744.59V736.74Z" fill="#747BB3"/>
<path d="M320.729 724.632L234.36 688.614V696.464L320.729 732.483V724.632Z" fill="#747BB3"/>
<path d="M302.477 704.757L234.36 676.507V684.356L302.477 712.608V704.757Z" fill="#747BB3"/>
<path d="M145.571 736.74L231.939 700.722V708.571L145.571 744.59V736.74Z" fill="#747BB3"/>
<path d="M145.571 724.632L231.939 688.614V696.464L145.571 732.483V724.632Z" fill="#747BB3"/>
<path d="M163.824 704.757L231.939 676.507V684.356L163.824 712.608V704.757Z" fill="#747BB3"/>
<path d="M248.675 1080.51L239.257 1076.61V1059.87L248.675 1063.77V1080.51Z" fill="#747BB3"/>
<path d="M248.675 1047.01L239.257 1043.11V1026.37L248.675 1030.27V1047.01Z" fill="#747BB3"/>
<path d="M248.675 980.017L239.257 976.115V959.375L248.675 963.277V980.017Z" fill="#747BB3"/>
<path d="M248.675 946.52L239.257 942.618V925.878L248.675 929.78V946.52Z" fill="#747BB3"/>
<path d="M248.675 913.023L239.257 909.121V892.381L248.675 896.283V913.023Z" fill="#747BB3"/>
<path d="M248.675 879.527L239.257 875.624V858.884L248.675 862.787V879.527Z" fill="#747BB3"/>
<path d="M248.675 846.029L239.257 842.127V825.387L248.675 829.289V846.029Z" fill="#747BB3"/>
<path d="M248.675 812.532L239.257 808.63V791.89L248.675 795.792V812.532Z" fill="#747BB3"/>
<path d="M248.675 779.035L239.257 775.133V758.393L248.675 762.295V779.035Z" fill="#747BB3"/>
<path d="M248.675 745.538L239.257 741.636V724.896L248.675 728.798V745.538Z" fill="#747BB3"/>
<path d="M264.112 1085.96L254.695 1082.05V1065.31L264.112 1069.22V1085.96Z" fill="#747BB3"/>
<path d="M264.112 1052.46L254.695 1048.56V1031.82L264.112 1035.72V1052.46Z" fill="#747BB3"/>
<path d="M264.112 1018.96L254.695 1015.06V998.321L264.112 1002.22V1018.96Z" fill="#747BB3"/>
<path d="M264.112 985.466L254.695 981.564V964.823L264.112 968.726V985.466Z" fill="#747BB3"/>
<path d="M264.112 884.975L254.695 881.073V864.333L264.112 868.235V884.975Z" fill="#747BB3"/>
<path d="M264.112 851.478L254.695 847.576V830.836L264.112 834.738V851.478Z" fill="#747BB3"/>
<path d="M264.112 784.484L254.695 780.581V763.841L264.112 767.744V784.484Z" fill="#747BB3"/>
<path d="M264.112 750.987L254.695 747.085V730.344L264.112 734.247V750.987Z" fill="#747BB3"/>
<path d="M279.852 1059.12L270.435 1055.22V1038.48L279.852 1042.38V1059.12Z" fill="#747BB3"/>
<path d="M279.852 1025.62L270.435 1021.72V1004.98L279.852 1008.88V1025.62Z" fill="#747BB3"/>
<path d="M279.852 992.125L270.435 988.223V971.483L279.852 975.385V992.125Z" fill="#747BB3"/>
<path d="M279.852 958.628L270.435 954.726V937.986L279.852 941.888V958.628Z" fill="#747BB3"/>
<path d="M279.852 925.131L270.435 921.229V904.489L279.852 908.391V925.131Z" fill="#747BB3"/>
<path d="M279.852 891.634L270.435 887.732V870.992L279.852 874.894V891.634Z" fill="#747BB3"/>
<path d="M279.852 824.64L270.435 820.738V803.998L279.852 807.9V824.64Z" fill="#747BB3"/>
<path d="M279.852 791.143L270.435 787.241V770.501L279.852 774.403V791.143Z" fill="#747BB3"/>
<path d="M279.852 757.646L270.435 753.744V737.004L279.852 740.906V757.646Z" fill="#747BB3"/>
<path d="M296.24 1065.87L286.822 1061.97V1045.22L296.24 1049.13V1065.87Z" fill="#747BB3"/>
<path d="M296.24 1032.37L286.822 1028.47V1011.73L296.24 1015.63V1032.37Z" fill="#747BB3"/>
<path d="M296.24 998.873L286.822 994.97V978.23L296.24 982.133V998.873Z" fill="#747BB3"/>
<path d="M296.24 965.376L286.822 961.475V944.733L296.24 948.636V965.376Z" fill="#747BB3"/>
<path d="M296.24 931.879L286.822 927.976V911.236L296.24 915.139V931.879Z" fill="#747BB3"/>
<path d="M296.24 898.382L286.822 894.481V877.739L296.24 881.642V898.382Z" fill="#747BB3"/>
<path d="M296.24 864.885L286.822 860.982V844.242L296.24 848.145V864.885Z" fill="#747BB3"/>
<path d="M296.24 831.388L286.822 827.485V810.745L296.24 814.648V831.388Z" fill="#747BB3"/>
<path d="M296.24 797.891L286.822 793.988V777.248L296.24 781.151V797.891Z" fill="#747BB3"/>
<path d="M296.24 764.394L286.822 760.491V743.751L296.24 747.654V764.394Z" fill="#747BB3"/>
<path d="M311.893 1073.1L302.477 1069.2V1052.46L311.893 1056.36V1073.1Z" fill="#747BB3"/>
<path d="M311.893 1039.61L302.477 1035.7V1018.96L311.893 1022.87V1039.61Z" fill="#747BB3"/>
<path d="M311.893 1006.11L302.477 1002.21V985.466L311.893 989.368V1006.11Z" fill="#747BB3"/>
<path d="M311.893 939.114L302.477 935.212V918.472L311.893 922.374V939.114Z" fill="#747BB3"/>
<path d="M311.893 905.617L302.477 901.715V884.975L311.893 888.876V905.617Z" fill="#747BB3"/>
<path d="M311.893 872.12L302.477 868.218V851.478L311.893 855.38V872.12Z" fill="#747BB3"/>
<path d="M311.893 838.623L302.477 834.721V817.981L311.893 821.883V838.623Z" fill="#747BB3"/>
<path d="M311.893 771.629L302.477 767.727V750.987L311.893 754.888V771.629Z" fill="#747BB3"/>
<path d="M217.904 1080.51L227.32 1076.61V1059.87L217.904 1063.77V1080.51Z" fill="#747BB3"/>
<path d="M217.904 1047.01L227.32 1043.11V1026.37L217.904 1030.27V1047.01Z" fill="#747BB3"/>
<path d="M217.904 980.017L227.32 976.115V959.375L217.904 963.277V980.017Z" fill="#747BB3"/>
<path d="M217.904 946.52L227.32 942.618V925.878L217.904 929.78V946.52Z" fill="#747BB3"/>
<path d="M217.904 913.023L227.32 909.121V892.381L217.904 896.283V913.023Z" fill="#747BB3"/>
<path d="M217.904 879.527L227.32 875.624V858.884L217.904 862.787V879.527Z" fill="#747BB3"/>
<path d="M217.904 846.029L227.32 842.127V825.387L217.904 829.289V846.029Z" fill="#747BB3"/>
<path d="M217.904 812.532L227.32 808.63V791.89L217.904 795.792V812.532Z" fill="#747BB3"/>
<path d="M217.904 779.035L227.32 775.133V758.393L217.904 762.295V779.035Z" fill="#747BB3"/>
<path d="M217.904 745.538L227.32 741.636V724.896L217.904 728.798V745.538Z" fill="#747BB3"/>
<path d="M202.467 1085.96L211.883 1082.05V1065.31L202.467 1069.22V1085.96Z" fill="#747BB3"/>
<path d="M202.467 1052.46L211.883 1048.56V1031.82L202.467 1035.72V1052.46Z" fill="#747BB3"/>
<path d="M202.467 1018.96L211.883 1015.06V998.321L202.467 1002.22V1018.96Z" fill="#747BB3"/>
<path d="M202.467 985.466L211.883 981.564V964.823L202.467 968.726V985.466Z" fill="#747BB3"/>
<path d="M202.467 884.975L211.883 881.073V864.333L202.467 868.235V884.975Z" fill="#747BB3"/>
<path d="M202.467 851.478L211.883 847.576V830.836L202.467 834.738V851.478Z" fill="#747BB3"/>
<path d="M202.467 784.484L211.883 780.581V763.841L202.467 767.744V784.484Z" fill="#747BB3"/>
<path d="M202.467 750.987L211.883 747.085V730.344L202.467 734.247V750.987Z" fill="#747BB3"/>
<path d="M186.727 1059.12L196.143 1055.22V1038.48L186.727 1042.38V1059.12Z" fill="#747BB3"/>
<path d="M186.727 1025.62L196.143 1021.72V1004.98L186.727 1008.88V1025.62Z" fill="#747BB3"/>
<path d="M186.727 992.125L196.143 988.223V971.483L186.727 975.385V992.125Z" fill="#747BB3"/>
<path d="M186.727 958.628L196.143 954.726V937.986L186.727 941.888V958.628Z" fill="#747BB3"/>
<path d="M186.727 925.131L196.143 921.229V904.489L186.727 908.391V925.131Z" fill="#747BB3"/>
<path d="M186.727 891.634L196.143 887.732V870.992L186.727 874.894V891.634Z" fill="#747BB3"/>
<path d="M186.727 824.64L196.143 820.738V803.998L186.727 807.9V824.64Z" fill="#747BB3"/>
<path d="M186.727 791.143L196.143 787.241V770.501L186.727 774.403V791.143Z" fill="#747BB3"/>
<path d="M186.727 757.646L196.143 753.744V737.004L186.727 740.906V757.646Z" fill="#747BB3"/>
<path d="M170.337 1065.87L179.755 1061.97V1045.22L170.337 1049.13V1065.87Z" fill="#747BB3"/>
<path d="M170.337 1032.37L179.755 1028.47V1011.73L170.337 1015.63V1032.37Z" fill="#747BB3"/>
<path d="M170.337 998.873L179.755 994.97V978.23L170.337 982.133V998.873Z" fill="#747BB3"/>
<path d="M170.337 965.376L179.755 961.475V944.733L170.337 948.636V965.376Z" fill="#747BB3"/>
<path d="M170.337 931.879L179.755 927.976V911.236L170.337 915.139V931.879Z" fill="#747BB3"/>
<path d="M170.337 898.382L179.755 894.481V877.739L170.337 881.642V898.382Z" fill="#747BB3"/>
<path d="M170.337 864.885L179.755 860.982V844.242L170.337 848.145V864.885Z" fill="#747BB3"/>
<path d="M170.337 831.388L179.755 827.485V810.745L170.337 814.648V831.388Z" fill="#747BB3"/>
<path d="M170.337 797.891L179.755 793.988V777.248L170.337 781.151V797.891Z" fill="#747BB3"/>
<path d="M170.337 764.394L179.755 760.491V743.751L170.337 747.654V764.394Z" fill="#747BB3"/>
<path d="M154.684 1073.1L164.1 1069.2V1052.46L154.684 1056.36V1073.1Z" fill="#747BB3"/>
<path d="M154.684 1039.61L164.1 1035.7V1018.96L154.684 1022.87V1039.61Z" fill="#747BB3"/>
<path d="M154.684 1006.11L164.1 1002.21V985.466L154.684 989.368V1006.11Z" fill="#747BB3"/>
<path d="M154.684 939.114L164.1 935.212V918.472L154.684 922.374V939.114Z" fill="#747BB3"/>
<path d="M154.684 905.617L164.1 901.715V884.975L154.684 888.876V905.617Z" fill="#747BB3"/>
<path d="M154.684 872.12L164.1 868.218V851.478L154.684 855.38V872.12Z" fill="#747BB3"/>
<path d="M154.684 838.623L164.1 834.721V817.981L154.684 821.883V838.623Z" fill="#747BB3"/>
<path d="M154.684 771.629L164.1 767.727V750.987L154.684 754.888V771.629Z" fill="#747BB3"/>
<path d="M248.675 1080.51L239.257 1076.61V1059.87L248.675 1063.77V1080.51Z" fill="#747BB3"/>
<path d="M248.675 1047.01L239.257 1043.11V1026.37L248.675 1030.27V1047.01Z" fill="#747BB3"/>
<path d="M248.675 980.017L239.257 976.115V959.375L248.675 963.277V980.017Z" fill="#747BB3"/>
<path d="M248.675 946.52L239.257 942.618V925.878L248.675 929.78V946.52Z" fill="#747BB3"/>
<path d="M248.675 913.023L239.257 909.121V892.381L248.675 896.283V913.023Z" fill="#747BB3"/>
<path d="M248.675 879.527L239.257 875.624V858.884L248.675 862.787V879.527Z" fill="#747BB3"/>
<path d="M248.675 846.029L239.257 842.127V825.387L248.675 829.289V846.029Z" fill="#747BB3"/>
<path d="M248.675 812.532L239.257 808.63V791.89L248.675 795.792V812.532Z" fill="#747BB3"/>
<path d="M248.675 779.035L239.257 775.133V758.393L248.675 762.295V779.035Z" fill="#747BB3"/>
<path d="M248.675 745.538L239.257 741.636V724.896L248.675 728.798V745.538Z" fill="#747BB3"/>
<path d="M264.112 1085.96L254.695 1082.05V1065.31L264.112 1069.22V1085.96Z" fill="#747BB3"/>
<path d="M264.112 1052.46L254.695 1048.56V1031.82L264.112 1035.72V1052.46Z" fill="#747BB3"/>
<path d="M264.112 1018.96L254.695 1015.06V998.321L264.112 1002.22V1018.96Z" fill="#747BB3"/>
<path d="M264.112 985.466L254.695 981.564V964.823L264.112 968.726V985.466Z" fill="#747BB3"/>
<path d="M264.112 884.975L254.695 881.073V864.333L264.112 868.235V884.975Z" fill="#747BB3"/>
<path d="M264.112 851.478L254.695 847.576V830.836L264.112 834.738V851.478Z" fill="#747BB3"/>
<path d="M264.112 784.484L254.695 780.581V763.841L264.112 767.744V784.484Z" fill="#747BB3"/>
<path d="M264.112 750.987L254.695 747.085V730.344L264.112 734.247V750.987Z" fill="#747BB3"/>
<path d="M279.852 1059.12L270.435 1055.22V1038.48L279.852 1042.38V1059.12Z" fill="#747BB3"/>
<path d="M279.852 1025.62L270.435 1021.72V1004.98L279.852 1008.88V1025.62Z" fill="#747BB3"/>
<path d="M279.852 992.125L270.435 988.223V971.483L279.852 975.385V992.125Z" fill="#747BB3"/>
<path d="M279.852 958.628L270.435 954.726V937.986L279.852 941.888V958.628Z" fill="#747BB3"/>
<path d="M279.852 925.131L270.435 921.229V904.489L279.852 908.391V925.131Z" fill="#747BB3"/>
<path d="M279.852 891.634L270.435 887.732V870.992L279.852 874.894V891.634Z" fill="#747BB3"/>
<path d="M279.852 824.64L270.435 820.738V803.998L279.852 807.9V824.64Z" fill="#747BB3"/>
<path d="M279.852 791.143L270.435 787.241V770.501L279.852 774.403V791.143Z" fill="#747BB3"/>
<path d="M279.852 757.646L270.435 753.744V737.004L279.852 740.906V757.646Z" fill="#747BB3"/>
<path d="M296.24 1065.87L286.822 1061.97V1045.22L296.24 1049.13V1065.87Z" fill="#747BB3"/>
<path d="M296.24 1032.37L286.822 1028.47V1011.73L296.24 1015.63V1032.37Z" fill="#747BB3"/>
<path d="M296.24 998.873L286.822 994.97V978.23L296.24 982.133V998.873Z" fill="#747BB3"/>
<path d="M296.24 965.376L286.822 961.475V944.733L296.24 948.636V965.376Z" fill="#747BB3"/>
<path d="M296.24 931.879L286.822 927.976V911.236L296.24 915.139V931.879Z" fill="#747BB3"/>
<path d="M296.24 898.382L286.822 894.481V877.739L296.24 881.642V898.382Z" fill="#747BB3"/>
<path d="M296.24 864.885L286.822 860.982V844.242L296.24 848.145V864.885Z" fill="#747BB3"/>
<path d="M296.24 831.388L286.822 827.485V810.745L296.24 814.648V831.388Z" fill="#747BB3"/>
<path d="M296.24 797.891L286.822 793.988V777.248L296.24 781.151V797.891Z" fill="#747BB3"/>
<path d="M296.24 764.394L286.822 760.491V743.751L296.24 747.654V764.394Z" fill="#747BB3"/>
<path d="M311.893 1073.1L302.477 1069.2V1052.46L311.893 1056.36V1073.1Z" fill="#747BB3"/>
<path d="M311.893 1039.61L302.477 1035.7V1018.96L311.893 1022.87V1039.61Z" fill="#747BB3"/>
<path d="M311.893 1006.11L302.477 1002.21V985.466L311.893 989.368V1006.11Z" fill="#747BB3"/>
<path d="M311.893 939.114L302.477 935.212V918.472L311.893 922.374V939.114Z" fill="#747BB3"/>
<path d="M311.893 905.617L302.477 901.715V884.975L311.893 888.876V905.617Z" fill="#747BB3"/>
<path d="M311.893 872.12L302.477 868.218V851.478L311.893 855.38V872.12Z" fill="#747BB3"/>
<path d="M311.893 838.623L302.477 834.721V817.981L311.893 821.883V838.623Z" fill="#747BB3"/>
<path d="M311.893 771.629L302.477 767.727V750.987L311.893 754.888V771.629Z" fill="#747BB3"/>
<path d="M217.904 1080.51L227.32 1076.61V1059.87L217.904 1063.77V1080.51Z" fill="#747BB3"/>
<path d="M217.904 1047.01L227.32 1043.11V1026.37L217.904 1030.27V1047.01Z" fill="#747BB3"/>
<path d="M217.904 980.017L227.32 976.115V959.375L217.904 963.277V980.017Z" fill="#747BB3"/>
<path d="M217.904 946.52L227.32 942.618V925.878L217.904 929.78V946.52Z" fill="#747BB3"/>
<path d="M217.904 913.023L227.32 909.121V892.381L217.904 896.283V913.023Z" fill="#747BB3"/>
<path d="M217.904 879.527L227.32 875.624V858.884L217.904 862.787V879.527Z" fill="#747BB3"/>
<path d="M217.904 846.029L227.32 842.127V825.387L217.904 829.289V846.029Z" fill="#747BB3"/>
<path d="M217.904 812.532L227.32 808.63V791.89L217.904 795.792V812.532Z" fill="#747BB3"/>
<path d="M217.904 779.035L227.32 775.133V758.393L217.904 762.295V779.035Z" fill="#747BB3"/>
<path d="M217.904 745.538L227.32 741.636V724.896L217.904 728.798V745.538Z" fill="#747BB3"/>
<path d="M202.467 1085.96L211.883 1082.05V1065.31L202.467 1069.22V1085.96Z" fill="#747BB3"/>
<path d="M202.467 1052.46L211.883 1048.56V1031.82L202.467 1035.72V1052.46Z" fill="#747BB3"/>
<path d="M202.467 1018.96L211.883 1015.06V998.321L202.467 1002.22V1018.96Z" fill="#747BB3"/>
<path d="M202.467 985.466L211.883 981.564V964.823L202.467 968.726V985.466Z" fill="#747BB3"/>
<path d="M202.467 884.975L211.883 881.073V864.333L202.467 868.235V884.975Z" fill="#747BB3"/>
<path d="M202.467 851.478L211.883 847.576V830.836L202.467 834.738V851.478Z" fill="#747BB3"/>
<path d="M202.467 784.484L211.883 780.581V763.841L202.467 767.744V784.484Z" fill="#747BB3"/>
<path d="M202.467 750.987L211.883 747.085V730.344L202.467 734.247V750.987Z" fill="#747BB3"/>
<path d="M186.727 1059.12L196.143 1055.22V1038.48L186.727 1042.38V1059.12Z" fill="#747BB3"/>
<path d="M186.727 1025.62L196.143 1021.72V1004.98L186.727 1008.88V1025.62Z" fill="#747BB3"/>
<path d="M186.727 992.125L196.143 988.223V971.483L186.727 975.385V992.125Z" fill="#747BB3"/>
<path d="M186.727 958.628L196.143 954.726V937.986L186.727 941.888V958.628Z" fill="#747BB3"/>
<path d="M186.727 925.131L196.143 921.229V904.489L186.727 908.391V925.131Z" fill="#747BB3"/>
<path d="M186.727 891.634L196.143 887.732V870.992L186.727 874.894V891.634Z" fill="#747BB3"/>
<path d="M186.727 824.64L196.143 820.738V803.998L186.727 807.9V824.64Z" fill="#747BB3"/>
<path d="M186.727 791.143L196.143 787.241V770.501L186.727 774.403V791.143Z" fill="#747BB3"/>
<path d="M186.727 757.646L196.143 753.744V737.004L186.727 740.906V757.646Z" fill="#747BB3"/>
<path d="M170.337 1065.87L179.755 1061.97V1045.22L170.337 1049.13V1065.87Z" fill="#747BB3"/>
<path d="M170.337 1032.37L179.755 1028.47V1011.73L170.337 1015.63V1032.37Z" fill="#747BB3"/>
<path d="M170.337 998.873L179.755 994.97V978.23L170.337 982.133V998.873Z" fill="#747BB3"/>
<path d="M170.337 965.376L179.755 961.475V944.733L170.337 948.636V965.376Z" fill="#747BB3"/>
<path d="M170.337 931.879L179.755 927.976V911.236L170.337 915.139V931.879Z" fill="#747BB3"/>
<path d="M170.337 898.382L179.755 894.481V877.739L170.337 881.642V898.382Z" fill="#747BB3"/>
<path d="M170.337 864.885L179.755 860.982V844.242L170.337 848.145V864.885Z" fill="#747BB3"/>
<path d="M170.337 831.388L179.755 827.485V810.745L170.337 814.648V831.388Z" fill="#747BB3"/>
<path d="M170.337 797.891L179.755 793.988V777.248L170.337 781.151V797.891Z" fill="#747BB3"/>
<path d="M170.337 764.394L179.755 760.491V743.751L170.337 747.654V764.394Z" fill="#747BB3"/>
<path d="M154.684 1073.1L164.1 1069.2V1052.46L154.684 1056.36V1073.1Z" fill="#747BB3"/>
<path d="M154.684 1039.61L164.1 1035.7V1018.96L154.684 1022.87V1039.61Z" fill="#747BB3"/>
<path d="M154.684 1006.11L164.1 1002.21V985.466L154.684 989.368V1006.11Z" fill="#747BB3"/>
<path d="M154.684 939.114L164.1 935.212V918.472L154.684 922.374V939.114Z" fill="#747BB3"/>
<path d="M154.684 905.617L164.1 901.715V884.975L154.684 888.876V905.617Z" fill="#747BB3"/>
<path d="M154.684 872.12L164.1 868.218V851.478L154.684 855.38V872.12Z" fill="#747BB3"/>
<path d="M154.684 838.623L164.1 834.721V817.981L154.684 821.883V838.623Z" fill="#747BB3"/>
<path d="M154.684 771.629L164.1 767.727V750.987L154.684 754.888V771.629Z" fill="#747BB3"/>
<path d="M399.202 1056.9L391.982 1053.91V1041.07L399.202 1044.07V1056.9Z" fill="#747BB3"/>
<path d="M399.202 1031.22L391.982 1028.23V1015.4L399.202 1018.39V1031.22Z" fill="#747BB3"/>
<path d="M399.202 1005.54L391.982 1002.55V989.722L399.202 992.712V1005.54Z" fill="#747BB3"/>
<path d="M399.202 979.868L391.982 976.877V964.046L399.202 967.037V979.868Z" fill="#747BB3"/>
<path d="M399.202 954.192L391.982 951.201V938.371L399.202 941.36V954.192Z" fill="#747BB3"/>
<path d="M399.202 928.516L391.982 925.526V912.693L399.202 915.685V928.516Z" fill="#747BB3"/>
<path d="M399.202 902.841L391.982 899.849V887.017L399.202 890.008V902.841Z" fill="#747BB3"/>
<path d="M411.035 1086.75L403.815 1083.76V1070.93L411.035 1073.92V1086.75Z" fill="#747BB3"/>
<path d="M411.035 1061.07L403.815 1058.08V1045.25L411.035 1048.24V1061.07Z" fill="#747BB3"/>
<path d="M411.035 984.044L403.815 981.054V968.222L411.035 971.214V984.044Z" fill="#747BB3"/>
<path d="M411.035 958.369L403.815 955.377V942.547L411.035 945.536V958.369Z" fill="#747BB3"/>
<path d="M411.035 881.34L403.815 878.35V865.518L411.035 868.509V881.34Z" fill="#747BB3"/>
<path d="M423.097 1091.85L415.88 1088.86V1076.03L423.097 1079.02V1091.85Z" fill="#747BB3"/>
<path d="M423.097 1040.5L415.88 1037.51V1024.68L423.097 1027.67V1040.5Z" fill="#747BB3"/>
<path d="M423.097 1014.83L415.88 1011.83V999.002L423.097 1001.99V1014.83Z" fill="#747BB3"/>
<path d="M423.097 989.149L415.88 986.158V973.327L423.097 976.317V989.149Z" fill="#747BB3"/>
<path d="M423.097 937.797L415.88 934.806V921.975L423.097 924.965V937.797Z" fill="#747BB3"/>
<path d="M423.097 912.121L415.88 909.13V896.298L423.097 899.289V912.121Z" fill="#747BB3"/>
<path d="M423.097 886.445L415.88 883.454V870.621L423.097 873.613V886.445Z" fill="#747BB3"/>
<path d="M435.659 1071.35L428.441 1068.36V1055.53L435.659 1058.52V1071.35Z" fill="#747BB3"/>
<path d="M435.659 1045.67L428.441 1042.68V1029.85L435.659 1032.84V1045.67Z" fill="#747BB3"/>
<path d="M435.659 1020L428.441 1017.01V1004.17L435.659 1007.17V1020Z" fill="#747BB3"/>
<path d="M435.659 994.32L428.441 991.331V978.499L435.659 981.49V994.32Z" fill="#747BB3"/>
<path d="M435.659 968.645L428.441 965.655V952.823L435.659 955.814V968.645Z" fill="#747BB3"/>
<path d="M435.659 942.969L428.441 939.979V927.147L435.659 930.138V942.969Z" fill="#747BB3"/>
<path d="M435.659 917.293L428.441 914.302V901.47L435.659 904.462V917.293Z" fill="#747BB3"/>
<path d="M435.659 891.617L428.441 888.625V875.795L435.659 878.786V891.617Z" fill="#747BB3"/>
<path d="M447.66 1076.9L440.44 1073.9V1061.07L447.66 1064.07V1076.9Z" fill="#747BB3"/>
<path d="M447.66 1025.54L440.44 1022.55V1009.72L447.66 1012.71V1025.54Z" fill="#747BB3"/>
<path d="M447.66 999.867L440.44 996.876V984.044L447.66 987.036V999.867Z" fill="#747BB3"/>
<path d="M447.66 974.19L440.44 971.201V958.369L447.66 961.36V974.19Z" fill="#747BB3"/>
<path d="M447.66 948.515L440.44 945.525V932.692L447.66 935.684V948.515Z" fill="#747BB3"/>
<path d="M447.66 897.162L440.44 894.173V881.34L447.66 884.332V897.162Z" fill="#747BB3"/>
<path d="M375.615 1056.9L382.832 1053.91V1041.08L375.615 1044.07V1056.9Z" fill="#747BB3"/>
<path d="M375.615 1031.22L382.832 1028.23V1015.4L375.615 1018.39V1031.22Z" fill="#747BB3"/>
<path d="M375.615 1005.54L382.832 1002.55V989.722L375.615 992.712V1005.54Z" fill="#747BB3"/>
<path d="M375.615 979.869L382.832 976.877V964.046L375.615 967.037V979.869Z" fill="#747BB3"/>
<path d="M375.615 954.192L382.832 951.201V938.371L375.615 941.36V954.192Z" fill="#747BB3"/>
<path d="M375.615 928.516L382.832 925.526V912.693L375.615 915.685V928.516Z" fill="#747BB3"/>
<path d="M363.782 1086.75L371 1083.76V1070.93L363.782 1073.92V1086.75Z" fill="#747BB3"/>
<path d="M363.782 1061.07L371 1058.08V1045.25L363.782 1048.24V1061.07Z" fill="#747BB3"/>
<path d="M363.782 984.044L371 981.054V968.222L363.782 971.214V984.044Z" fill="#747BB3"/>
<path d="M363.782 958.369L371 955.377V942.547L363.782 945.536V958.369Z" fill="#747BB3"/>
<path d="M363.782 907.017L371 904.025V891.195L363.782 894.184V907.017Z" fill="#747BB3"/>
<path d="M363.782 881.34L371 878.35V865.518L363.782 868.509V881.34Z" fill="#747BB3"/>
<path d="M351.717 1091.85L358.935 1088.86V1076.03L351.717 1079.02V1091.85Z" fill="#747BB3"/>
<path d="M351.717 1066.18L358.935 1063.19V1050.35L351.717 1053.34V1066.18Z" fill="#747BB3"/>
<path d="M351.717 1040.5L358.935 1037.51V1024.68L351.717 1027.67V1040.5Z" fill="#747BB3"/>
<path d="M351.717 1014.83L358.935 1011.83V999.002L351.717 1001.99V1014.83Z" fill="#747BB3"/>
<path d="M351.717 989.149L358.935 986.158V973.327L351.717 976.317V989.149Z" fill="#747BB3"/>
<path d="M351.717 937.797L358.935 934.806V921.975L351.717 924.965V937.797Z" fill="#747BB3"/>
<path d="M351.717 912.121L358.935 909.13V896.298L351.717 899.288V912.121Z" fill="#747BB3"/>
<path d="M339.153 1071.35L346.373 1068.36V1055.53L339.153 1058.52V1071.35Z" fill="#747BB3"/>
<path d="M339.153 1045.67L346.373 1042.68V1029.85L339.153 1032.84V1045.67Z" fill="#747BB3"/>
<path d="M339.153 1020L346.373 1017.01V1004.17L339.153 1007.17V1020Z" fill="#747BB3"/>
<path d="M339.153 994.32L346.373 991.331V978.499L339.153 981.49V994.32Z" fill="#747BB3"/>
<path d="M339.153 968.645L346.373 965.655V952.823L339.153 955.814V968.645Z" fill="#747BB3"/>
<path d="M339.153 942.969L346.373 939.979V927.147L339.153 930.138V942.969Z" fill="#747BB3"/>
<path d="M339.153 917.293L346.373 914.302V901.47L339.153 904.462V917.293Z" fill="#747BB3"/>
<path d="M339.153 891.617L346.373 888.625V875.795L339.153 878.786V891.617Z" fill="#747BB3"/>
<path d="M327.157 1025.54L334.374 1022.55V1009.72L327.157 1012.71V1025.54Z" fill="#747BB3"/>
<path d="M327.157 999.867L334.374 996.876V984.044L327.157 987.036V999.867Z" fill="#747BB3"/>
<path d="M327.157 974.19L334.374 971.201V958.369L327.157 961.36V974.19Z" fill="#747BB3"/>
<path d="M327.157 948.515L334.374 945.525V932.692L327.157 935.684V948.515Z" fill="#747BB3"/>
<path d="M70.8958 1041.17L61.4785 1037.27V1020.53L70.8958 1024.43V1041.17Z" fill="#747BB3"/>
<path d="M70.8958 1007.67L61.4785 1003.77V987.031L70.8958 990.934V1007.67Z" fill="#747BB3"/>
<path d="M70.8958 974.177L61.4785 970.274V953.534L70.8958 957.435V974.177Z" fill="#747BB3"/>
<path d="M70.8958 940.68L61.4785 936.777V920.037L70.8958 923.94V940.68Z" fill="#747BB3"/>
<path d="M70.8958 907.183L61.4785 903.28V886.54L70.8958 890.441V907.183Z" fill="#747BB3"/>
<path d="M70.8958 873.686L61.4785 869.783V853.043L70.8958 856.946V873.686Z" fill="#747BB3"/>
<path d="M70.8958 840.189L61.4785 836.286V819.546L70.8958 823.447V840.189Z" fill="#747BB3"/>
<path d="M70.8958 806.692L61.4785 802.789V786.049L70.8958 789.95V806.692Z" fill="#747BB3"/>
<path d="M86.3328 1080.12L76.9155 1076.21V1059.47L86.3328 1063.38V1080.12Z" fill="#747BB3"/>
<path d="M86.3328 1046.62L76.9155 1042.72V1025.98L86.3328 1029.88V1046.62Z" fill="#747BB3"/>
<path d="M86.3328 946.128L76.9155 942.226V925.486L86.3328 929.388V946.128Z" fill="#747BB3"/>
<path d="M86.3328 912.631L76.9155 908.729V891.989L86.3328 895.89V912.631Z" fill="#747BB3"/>
<path d="M86.3328 845.637L76.9155 841.735V824.995L86.3328 828.896V845.637Z" fill="#747BB3"/>
<path d="M86.3328 812.14L76.9155 808.238V791.498L86.3328 795.399V812.14Z" fill="#747BB3"/>
<path d="M102.073 1086.78L92.6558 1082.87V1066.13L102.073 1070.04V1086.78Z" fill="#747BB3"/>
<path d="M102.073 1053.28L92.6558 1049.38V1032.64L102.073 1036.54V1053.28Z" fill="#747BB3"/>
<path d="M102.073 1019.78L92.6558 1015.88V999.139L102.073 1003.04V1019.78Z" fill="#747BB3"/>
<path d="M102.073 986.284L92.6558 982.382V965.642L102.073 969.543V986.284Z" fill="#747BB3"/>
<path d="M102.073 952.787L92.6558 948.885V932.145L102.073 936.047V952.787Z" fill="#747BB3"/>
<path d="M102.073 885.793L92.6558 881.891V865.151L102.073 869.053V885.793Z" fill="#747BB3"/>
<path d="M102.073 852.296L92.6558 848.394V831.654L102.073 835.555V852.296Z" fill="#747BB3"/>
<path d="M102.073 818.799L92.6558 814.897V798.157L102.073 802.058V818.799Z" fill="#747BB3"/>
<path d="M118.461 1093.52L109.043 1089.62V1072.88L118.461 1076.78V1093.52Z" fill="#747BB3"/>
<path d="M118.461 1060.03L109.043 1056.12V1039.38L118.461 1043.29V1060.03Z" fill="#747BB3"/>
<path d="M118.461 1026.53L109.043 1022.63V1005.89L118.461 1009.79V1026.53Z" fill="#747BB3"/>
<path d="M118.461 993.032L109.043 989.129V972.389L118.461 976.292V993.032Z" fill="#747BB3"/>
<path d="M118.461 959.535L109.043 955.633V938.892L118.461 942.795V959.535Z" fill="#747BB3"/>
<path d="M118.461 926.038L109.043 922.136V905.396L118.461 909.298V926.038Z" fill="#747BB3"/>
<path d="M118.461 892.541L109.043 888.639V871.899L118.461 875.801V892.541Z" fill="#747BB3"/>
<path d="M118.461 859.044L109.043 855.142V838.402L118.461 842.304V859.044Z" fill="#747BB3"/>
<path d="M118.461 825.547L109.043 821.645V804.905L118.461 808.807V825.547Z" fill="#747BB3"/>
<path d="M134.114 1100.76L124.698 1096.86V1080.12L134.114 1084.02V1100.76Z" fill="#747BB3"/>
<path d="M134.114 1067.26L124.698 1063.36V1046.62L134.114 1050.52V1067.26Z" fill="#747BB3"/>
<path d="M134.114 1000.27L124.698 996.365V979.625L134.114 983.526V1000.27Z" fill="#747BB3"/>
<path d="M134.114 966.77L124.698 962.868V946.128L134.114 950.029V966.77Z" fill="#747BB3"/>
<path d="M134.114 933.272L124.698 929.371V912.631L134.114 916.532V933.272Z" fill="#747BB3"/>
<path d="M134.114 899.776L124.698 895.874V879.134L134.114 883.035V899.776Z" fill="#747BB3"/>
<path d="M134.114 832.781L124.698 828.88V812.14L134.114 816.041V832.781Z" fill="#747BB3"/>
<path d="M56.6825 1316.74L51.9751 1318.64V788.858L56.6825 786.957V1316.74Z" fill="#747BB3"/>
<path d="M46.0549 1193.06L41.3462 1194.97V793.399L46.0549 791.498V1193.06Z" fill="#747BB3"/>
<path d="M36.6977 1296.96L31.9902 1298.86V796.975L36.6977 795.073V1296.96Z" fill="#747BB3"/>
<path d="M68.0444 756.502L60.4844 753.368V739.926L68.0444 743.06V756.502Z" fill="#747BB3"/>
<path d="M80.4389 787.772L72.8789 784.639V771.197L80.4389 774.33V787.772Z" fill="#747BB3"/>
<path d="M80.4389 760.876L72.8789 757.743V744.301L80.4389 747.434V760.876Z" fill="#747BB3"/>
<path d="M93.0783 793.119L85.5171 789.985V776.544L93.0783 779.677V793.119Z" fill="#747BB3"/>
<path d="M106.236 798.536L98.6758 795.404V781.963L106.236 785.095V798.536Z" fill="#747BB3"/>
<path d="M106.236 771.64L98.6758 768.508V755.067L106.236 758.199V771.64Z" fill="#747BB3"/>
<path d="M57.8935 781.011L53.186 782.915V741.829L57.8935 739.926V781.011Z" fill="#747BB3"/>
<path d="M48.4777 785.05L43.769 786.954V745.868L48.4777 743.966V785.05Z" fill="#747BB3"/>
<path d="M40.2634 788.346L35.5547 790.249V749.164L40.2634 747.262V788.346Z" fill="#747BB3"/>
<path d="M525.095 1097.02L534.512 1093.93V1080.67L525.095 1083.76V1097.02Z" fill="#747BB3"/>
<path d="M525.095 1070.49L534.512 1067.4V1054.14L525.095 1057.23V1070.49Z" fill="#747BB3"/>
<path d="M525.095 1043.95L534.512 1040.86V1027.6L525.095 1030.69V1043.95Z" fill="#747BB3"/>
<path d="M525.095 1017.42L534.512 1014.33V1001.07L525.095 1004.16V1017.42Z" fill="#747BB3"/>
<path d="M525.095 990.884L534.512 987.793V974.532L525.095 977.624V990.884Z" fill="#747BB3"/>
<path d="M525.095 964.35L534.512 961.259V947.997L525.095 951.088V964.35Z" fill="#747BB3"/>
<path d="M509.657 1074.8L519.075 1071.71V1058.45L509.657 1061.54V1074.8Z" fill="#747BB3"/>
<path d="M509.657 1048.27L519.075 1045.18V1031.92L509.657 1035.01V1048.27Z" fill="#747BB3"/>
<path d="M509.657 995.2L519.075 992.109V978.849L509.657 981.939V995.2Z" fill="#747BB3"/>
<path d="M493.917 1080.08L503.335 1076.99V1063.73L493.917 1066.82V1080.08Z" fill="#747BB3"/>
<path d="M510.843 968.91L520.259 965.819V952.557L510.843 955.648V968.91Z" fill="#747BB3"/>
<path d="M493.917 973.94L503.335 970.849V957.589L493.917 960.68V973.94Z" fill="#747BB3"/>
<path d="M477.53 1032.36L486.946 1029.27V1016L477.53 1019.09V1032.36Z" fill="#747BB3"/>
<path d="M477.53 1005.82L486.946 1002.73V989.468L477.53 992.559V1005.82Z" fill="#747BB3"/>
<path d="M477.53 979.286L486.946 976.195V962.935L477.53 966.026V979.286Z" fill="#747BB3"/>
<path d="M461.876 1091.16L471.293 1088.06V1074.8L461.876 1077.89V1091.16Z" fill="#747BB3"/>
<path d="M461.876 1064.62L471.293 1061.53V1048.27L461.876 1051.36V1064.62Z" fill="#747BB3"/>
<path d="M461.876 1038.09L471.293 1035V1021.74L461.876 1024.83V1038.09Z" fill="#747BB3"/>
<path d="M461.876 985.016L471.293 981.927V968.665L461.876 971.756V985.016Z" fill="#747BB3"/>
<path d="M539.308 1368.38L544.016 1369.89V950.223L539.308 948.717V1368.38Z" fill="#747BB3"/>
<path d="M549.938 1270.41L554.646 1271.92V953.82L549.938 952.314V1270.41Z" fill="#747BB3"/>
<path d="M559.293 1352.72L564 1354.22V956.653L559.293 955.146V1352.72Z" fill="#747BB3"/>
<path d="M527.948 944.361L535.508 941.878V931.232L527.948 933.713V944.361Z" fill="#747BB3"/>
<path d="M515.551 928.057L523.112 925.575V914.928L515.551 917.409V928.057Z" fill="#747BB3"/>
<path d="M502.914 953.598L510.474 951.116V940.468L502.914 942.951V953.598Z" fill="#747BB3"/>
<path d="M502.914 932.443L510.474 929.961V919.313L502.914 921.795V932.443Z" fill="#747BB3"/>
<path d="M489.756 936.583L497.316 934.103V923.455L489.756 925.936V936.583Z" fill="#747BB3"/>
<path d="M538.097 944.007L542.805 945.514V912.969L538.097 911.461V944.007Z" fill="#747BB3"/>
<path d="M547.514 947.207L552.222 948.714V916.169L547.514 914.661V947.207Z" fill="#747BB3"/>
<path d="M555.729 949.818L560.437 951.326V918.779L555.729 917.273V949.818Z" fill="#747BB3"/>
<path d="M3.02907 1091.3L-3.54053 1088.58V1076.9L3.02907 1079.62V1091.3Z" fill="#747BB3"/>
<path d="M3.02907 1067.93L-3.54053 1065.21V1053.53L3.02907 1056.25V1067.93Z" fill="#747BB3"/>
<path d="M3.02907 997.808L-3.54053 995.084V983.404L3.02907 986.126V997.808Z" fill="#747BB3"/>
<path d="M3.02907 974.433L-3.54053 971.711V960.029L3.02907 962.753V974.433Z" fill="#747BB3"/>
<path d="M3.02907 951.059L-3.54053 948.336V936.655L3.02907 939.378V951.059Z" fill="#747BB3"/>
<path d="M13.9541 1072.98L7.3833 1070.26V1058.57L13.9541 1061.3V1072.98Z" fill="#747BB3"/>
<path d="M13.9541 1049.6L7.3833 1046.88V1035.2L13.9541 1037.92V1049.6Z" fill="#747BB3"/>
<path d="M13.9541 1026.23L7.3833 1023.51V1011.83L13.9541 1014.55V1026.23Z" fill="#747BB3"/>
<path d="M13.9541 1002.86L7.3833 1000.13V988.452L13.9541 991.176V1002.86Z" fill="#747BB3"/>
</g>
</svg>
