<svg width="660" height="694" viewBox="0 0 660 694" fill="none" xmlns="http://www.w3.org/2000/svg">
<g opacity="0.6">
<path d="M416.729 60.7397L330.36 24.7219V32.5713L416.729 68.5903V60.7397Z" fill="#747BB3"/>
<path d="M416.729 48.6321L330.36 12.6143V20.4636L416.729 56.4827V48.6321Z" fill="#747BB3"/>
<path d="M398.478 28.7574L330.36 0.506592V8.35598L398.478 36.608V28.7574Z" fill="#747BB3"/>
<path d="M241.571 60.7397L327.939 24.7219V32.5713L241.571 68.5903V60.7397Z" fill="#747BB3"/>
<path d="M241.571 48.6321L327.939 12.6143V20.4636L241.571 56.4827V48.6321Z" fill="#747BB3"/>
<path d="M259.824 28.7574L327.939 0.506592V8.35598L259.824 36.608V28.7574Z" fill="#747BB3"/>
<path d="M344.675 438.005L335.258 434.103V417.363L344.675 421.265V438.005Z" fill="#747BB3"/>
<path d="M344.675 404.508L335.258 400.606V383.866L344.675 387.768V404.508Z" fill="#747BB3"/>
<path d="M344.675 371.011L335.258 367.109V350.369L344.675 354.271V371.011Z" fill="#747BB3"/>
<path d="M344.675 304.017L335.258 300.115V283.375L344.675 287.277V304.017Z" fill="#747BB3"/>
<path d="M344.675 270.52L335.258 266.618V249.878L344.675 253.78V270.52Z" fill="#747BB3"/>
<path d="M344.675 237.023L335.258 233.121V216.381L344.675 220.283V237.023Z" fill="#747BB3"/>
<path d="M344.675 203.526L335.258 199.624V182.884L344.675 186.786V203.526Z" fill="#747BB3"/>
<path d="M344.675 170.029L335.258 166.127V149.387L344.675 153.289V170.029Z" fill="#747BB3"/>
<path d="M344.675 136.532L335.258 132.63V115.89L344.675 119.792V136.532Z" fill="#747BB3"/>
<path d="M344.675 103.035L335.258 99.1331V82.3931L344.675 86.2954V103.035Z" fill="#747BB3"/>
<path d="M344.675 69.5383L335.258 65.636V48.896L344.675 52.7983V69.5383Z" fill="#747BB3"/>
<path d="M360.112 443.454L350.695 439.551V422.811L360.112 426.714V443.454Z" fill="#747BB3"/>
<path d="M360.112 443.454L350.695 439.551V422.811L360.112 426.714V443.454Z" fill="#747BB3"/>
<path d="M360.112 477.503L350.695 473.601V456.861L360.112 460.763V477.503Z" fill="#747BB3"/>
<path d="M375.852 495.812L366.435 491.91V475.17L375.852 479.072V495.812Z" fill="#747BB3"/>
<path d="M360.112 545.601L350.695 541.7V524.959L360.112 528.861V545.601Z" fill="#747BB3"/>
<path d="M360.112 409.957L350.695 406.054V389.314L360.112 393.217V409.957Z" fill="#747BB3"/>
<path d="M360.112 376.46L350.695 372.557V355.817L360.112 359.72V376.46Z" fill="#747BB3"/>
<path d="M360.112 342.963L350.695 339.061V322.321L360.112 326.223V342.963Z" fill="#747BB3"/>
<path d="M360.112 309.466L350.695 305.563V288.823L360.112 292.726V309.466Z" fill="#747BB3"/>
<path d="M360.112 208.975L350.695 205.073V188.333L360.112 192.235V208.975Z" fill="#747BB3"/>
<path d="M360.112 175.478L350.695 171.575V154.835L360.112 158.738V175.478Z" fill="#747BB3"/>
<path d="M360.112 108.484L350.695 104.581V87.8413L360.112 91.7436V108.484Z" fill="#747BB3"/>
<path d="M360.112 74.9866L350.695 71.0843V54.3442L360.112 58.2465V74.9866Z" fill="#747BB3"/>
<path d="M375.853 383.119L366.435 379.217V362.477L375.853 366.379V383.119Z" fill="#747BB3"/>
<path d="M375.853 349.622L366.435 345.72V328.979L375.853 332.882V349.622Z" fill="#747BB3"/>
<path d="M375.853 316.125L366.435 312.222V295.482L375.853 299.385V316.125Z" fill="#747BB3"/>
<path d="M375.853 282.628L366.435 278.726V261.986L375.853 265.888V282.628Z" fill="#747BB3"/>
<path d="M375.853 249.131L366.435 245.229V228.489L375.853 232.391V249.131Z" fill="#747BB3"/>
<path d="M375.853 215.634L366.435 211.732V194.992L375.853 198.894V215.634Z" fill="#747BB3"/>
<path d="M375.853 148.64L366.435 144.738V127.998L375.853 131.9V148.64Z" fill="#747BB3"/>
<path d="M375.853 115.143L366.435 111.241V94.5005L375.853 98.4028V115.143Z" fill="#747BB3"/>
<path d="M375.852 81.6457L366.435 77.7434V61.0034L375.852 64.9057V81.6457Z" fill="#747BB3"/>
<path d="M392.24 456.861L382.823 452.96V436.218L392.24 440.121V456.861Z" fill="#747BB3"/>
<path d="M392.24 389.867L382.823 385.966V369.224L392.24 373.127V389.867Z" fill="#747BB3"/>
<path d="M392.24 356.37L382.823 352.469V335.727L392.24 339.63V356.37Z" fill="#747BB3"/>
<path d="M392.24 322.873L382.823 318.97V302.23L392.24 306.133V322.873Z" fill="#747BB3"/>
<path d="M392.24 289.376L382.823 285.475V268.733L392.24 272.636V289.376Z" fill="#747BB3"/>
<path d="M392.24 255.879L382.823 251.977V235.237L392.24 239.139V255.879Z" fill="#747BB3"/>
<path d="M392.24 222.382L382.823 218.48V201.739L392.24 205.642V222.382Z" fill="#747BB3"/>
<path d="M392.24 188.885L382.823 184.982V168.242L392.24 172.145V188.885Z" fill="#747BB3"/>
<path d="M392.24 155.388L382.823 151.485V134.745L392.24 138.648V155.388Z" fill="#747BB3"/>
<path d="M392.24 121.891L382.823 117.988V101.248L392.24 105.151V121.891Z" fill="#747BB3"/>
<path d="M392.24 88.3935L382.823 84.4913V67.7512L392.24 71.6535V88.3935Z" fill="#747BB3"/>
<path d="M407.894 464.096L398.478 460.194V443.454L407.894 447.356V464.096Z" fill="#747BB3"/>
<path d="M407.894 430.599L398.478 426.697V409.957L407.894 413.859V430.599Z" fill="#747BB3"/>
<path d="M407.894 397.102L398.478 393.2V376.46L407.894 380.362V397.102Z" fill="#747BB3"/>
<path d="M407.894 363.605L398.478 359.703V342.963L407.894 346.865V363.605Z" fill="#747BB3"/>
<path d="M407.894 330.108L398.478 326.206V309.466L407.894 313.368V330.108Z" fill="#747BB3"/>
<path d="M407.894 263.114L398.478 259.212V242.472L407.894 246.374V263.114Z" fill="#747BB3"/>
<path d="M407.894 229.617L398.478 225.715V208.975L407.894 212.876V229.617Z" fill="#747BB3"/>
<path d="M407.894 196.12L398.478 192.218V175.478L407.894 179.38V196.12Z" fill="#747BB3"/>
<path d="M407.894 162.623L398.478 158.72V141.98L407.894 145.883V162.623Z" fill="#747BB3"/>
<path d="M407.894 95.6289L398.478 91.7266V74.9866L407.894 78.8877V95.6289Z" fill="#747BB3"/>
<path d="M396.947 516.454L387.531 512.552V495.812L396.947 499.714V516.454Z" fill="#747BB3"/>
<path d="M313.905 438.005L323.321 434.103V417.363L313.905 421.265V438.005Z" fill="#747BB3"/>
<path d="M313.905 404.508L323.321 400.606V383.866L313.905 387.768V404.508Z" fill="#747BB3"/>
<path d="M313.905 371.011L323.321 367.109V350.369L313.905 354.271V371.011Z" fill="#747BB3"/>
<path d="M313.905 304.017L323.321 300.115V283.375L313.905 287.277V304.017Z" fill="#747BB3"/>
<path d="M313.905 270.52L323.321 266.618V249.878L313.905 253.78V270.52Z" fill="#747BB3"/>
<path d="M313.905 237.023L323.321 233.121V216.381L313.905 220.283V237.023Z" fill="#747BB3"/>
<path d="M313.905 203.526L323.321 199.624V182.884L313.905 186.786V203.526Z" fill="#747BB3"/>
<path d="M313.905 170.029L323.321 166.127V149.387L313.905 153.289V170.029Z" fill="#747BB3"/>
<path d="M313.905 136.532L323.321 132.63V115.89L313.905 119.792V136.532Z" fill="#747BB3"/>
<path d="M313.905 103.035L323.321 99.1331V82.3931L313.905 86.2954V103.035Z" fill="#747BB3"/>
<path d="M313.905 69.5383L323.321 65.636V48.896L313.905 52.7983V69.5383Z" fill="#747BB3"/>
<path d="M298.467 443.454L307.883 439.551V422.811L298.467 426.714V443.454Z" fill="#747BB3"/>
<path d="M298.467 443.454L307.883 439.551V422.811L298.467 426.714V443.454Z" fill="#747BB3"/>
<path d="M298.467 477.503L307.883 473.601V456.861L298.467 460.763V477.503Z" fill="#747BB3"/>
<path d="M282.727 495.812L292.143 491.91V475.17L282.727 479.072V495.812Z" fill="#747BB3"/>
<path d="M298.467 545.601L307.883 541.7V524.959L298.467 528.861V545.601Z" fill="#747BB3"/>
<path d="M298.467 409.957L307.883 406.054V389.314L298.467 393.217V409.957Z" fill="#747BB3"/>
<path d="M298.467 376.46L307.883 372.557V355.817L298.467 359.72V376.46Z" fill="#747BB3"/>
<path d="M298.467 342.963L307.883 339.061V322.321L298.467 326.223V342.963Z" fill="#747BB3"/>
<path d="M298.467 309.466L307.883 305.563V288.823L298.467 292.726V309.466Z" fill="#747BB3"/>
<path d="M298.467 208.975L307.883 205.073V188.333L298.467 192.235V208.975Z" fill="#747BB3"/>
<path d="M298.467 175.478L307.883 171.575V154.835L298.467 158.738V175.478Z" fill="#747BB3"/>
<path d="M298.467 108.484L307.883 104.581V87.8413L298.467 91.7436V108.484Z" fill="#747BB3"/>
<path d="M298.467 74.9866L307.883 71.0843V54.3442L298.467 58.2465V74.9866Z" fill="#747BB3"/>
<path d="M282.727 383.119L292.143 379.217V362.477L282.727 366.379V383.119Z" fill="#747BB3"/>
<path d="M282.727 349.622L292.143 345.72V328.979L282.727 332.882V349.622Z" fill="#747BB3"/>
<path d="M282.727 316.125L292.143 312.222V295.482L282.727 299.385V316.125Z" fill="#747BB3"/>
<path d="M282.727 282.628L292.143 278.726V261.986L282.727 265.888V282.628Z" fill="#747BB3"/>
<path d="M282.727 249.131L292.143 245.229V228.489L282.727 232.391V249.131Z" fill="#747BB3"/>
<path d="M282.727 215.634L292.143 211.732V194.992L282.727 198.894V215.634Z" fill="#747BB3"/>
<path d="M282.727 148.64L292.143 144.738V127.998L282.727 131.9V148.64Z" fill="#747BB3"/>
<path d="M282.727 115.143L292.143 111.241V94.5005L282.727 98.4028V115.143Z" fill="#747BB3"/>
<path d="M282.727 81.6457L292.143 77.7434V61.0034L282.727 64.9057V81.6457Z" fill="#747BB3"/>
<path d="M266.338 456.861L275.755 452.96V436.218L266.338 440.121V456.861Z" fill="#747BB3"/>
<path d="M266.338 389.867L275.755 385.966V369.224L266.338 373.127V389.867Z" fill="#747BB3"/>
<path d="M266.338 356.37L275.755 352.469V335.727L266.338 339.63V356.37Z" fill="#747BB3"/>
<path d="M266.338 322.873L275.755 318.97V302.23L266.338 306.133V322.873Z" fill="#747BB3"/>
<path d="M266.338 289.376L275.755 285.475V268.733L266.338 272.636V289.376Z" fill="#747BB3"/>
<path d="M266.338 255.879L275.755 251.977V235.237L266.338 239.139V255.879Z" fill="#747BB3"/>
<path d="M266.338 222.382L275.755 218.48V201.739L266.338 205.642V222.382Z" fill="#747BB3"/>
<path d="M266.338 188.885L275.755 184.982V168.242L266.338 172.145V188.885Z" fill="#747BB3"/>
<path d="M266.338 155.388L275.755 151.485V134.745L266.338 138.648V155.388Z" fill="#747BB3"/>
<path d="M266.338 121.891L275.755 117.988V101.248L266.338 105.151V121.891Z" fill="#747BB3"/>
<path d="M266.338 88.3935L275.755 84.4913V67.7512L266.338 71.6535V88.3935Z" fill="#747BB3"/>
<path d="M250.685 464.096L260.101 460.194V443.454L250.685 447.356V464.096Z" fill="#747BB3"/>
<path d="M250.685 430.599L260.101 426.697V409.957L250.685 413.859V430.599Z" fill="#747BB3"/>
<path d="M250.685 397.102L260.101 393.2V376.46L250.685 380.362V397.102Z" fill="#747BB3"/>
<path d="M250.685 363.605L260.101 359.703V342.963L250.685 346.865V363.605Z" fill="#747BB3"/>
<path d="M250.685 330.108L260.101 326.206V309.466L250.685 313.368V330.108Z" fill="#747BB3"/>
<path d="M250.685 263.114L260.101 259.212V242.472L250.685 246.374V263.114Z" fill="#747BB3"/>
<path d="M250.685 229.617L260.101 225.715V208.975L250.685 212.876V229.617Z" fill="#747BB3"/>
<path d="M250.685 196.12L260.101 192.218V175.478L250.685 179.38V196.12Z" fill="#747BB3"/>
<path d="M250.685 162.623L260.101 158.72V141.98L250.685 145.883V162.623Z" fill="#747BB3"/>
<path d="M250.685 95.6289L260.101 91.7266V74.9866L250.685 78.8877V95.6289Z" fill="#747BB3"/>
<path d="M261.63 516.454L271.046 512.552V495.812L261.63 499.714V516.454Z" fill="#747BB3"/>
<path d="M344.675 438.005L335.258 434.103V417.363L344.675 421.265V438.005Z" fill="#747BB3"/>
<path d="M344.675 404.508L335.258 400.606V383.866L344.675 387.768V404.508Z" fill="#747BB3"/>
<path d="M344.675 371.011L335.258 367.109V350.369L344.675 354.271V371.011Z" fill="#747BB3"/>
<path d="M344.675 304.017L335.258 300.115V283.375L344.675 287.277V304.017Z" fill="#747BB3"/>
<path d="M344.675 270.52L335.258 266.618V249.878L344.675 253.78V270.52Z" fill="#747BB3"/>
<path d="M344.675 237.023L335.258 233.121V216.381L344.675 220.283V237.023Z" fill="#747BB3"/>
<path d="M344.675 203.526L335.258 199.624V182.884L344.675 186.786V203.526Z" fill="#747BB3"/>
<path d="M344.675 170.029L335.258 166.127V149.387L344.675 153.289V170.029Z" fill="#747BB3"/>
<path d="M344.675 136.532L335.258 132.63V115.89L344.675 119.792V136.532Z" fill="#747BB3"/>
<path d="M344.675 103.035L335.258 99.1331V82.3931L344.675 86.2954V103.035Z" fill="#747BB3"/>
<path d="M344.675 69.5383L335.258 65.636V48.896L344.675 52.7983V69.5383Z" fill="#747BB3"/>
<path d="M360.112 443.454L350.695 439.551V422.811L360.112 426.714V443.454Z" fill="#747BB3"/>
<path d="M360.112 443.454L350.695 439.551V422.811L360.112 426.714V443.454Z" fill="#747BB3"/>
<path d="M360.112 477.503L350.695 473.601V456.861L360.112 460.763V477.503Z" fill="#747BB3"/>
<path d="M375.852 495.812L366.435 491.91V475.17L375.852 479.072V495.812Z" fill="#747BB3"/>
<path d="M360.112 545.601L350.695 541.7V524.959L360.112 528.861V545.601Z" fill="#747BB3"/>
<path d="M360.112 409.957L350.695 406.054V389.314L360.112 393.217V409.957Z" fill="#747BB3"/>
<path d="M360.112 376.46L350.695 372.557V355.817L360.112 359.72V376.46Z" fill="#747BB3"/>
<path d="M360.112 342.963L350.695 339.061V322.321L360.112 326.223V342.963Z" fill="#747BB3"/>
<path d="M360.112 309.466L350.695 305.563V288.823L360.112 292.726V309.466Z" fill="#747BB3"/>
<path d="M360.112 208.975L350.695 205.073V188.333L360.112 192.235V208.975Z" fill="#747BB3"/>
<path d="M360.112 175.478L350.695 171.575V154.835L360.112 158.738V175.478Z" fill="#747BB3"/>
<path d="M360.112 108.484L350.695 104.581V87.8413L360.112 91.7436V108.484Z" fill="#747BB3"/>
<path d="M360.112 74.9866L350.695 71.0843V54.3442L360.112 58.2465V74.9866Z" fill="#747BB3"/>
<path d="M375.853 383.119L366.435 379.217V362.477L375.853 366.379V383.119Z" fill="#747BB3"/>
<path d="M375.853 349.622L366.435 345.72V328.979L375.853 332.882V349.622Z" fill="#747BB3"/>
<path d="M375.853 316.125L366.435 312.222V295.482L375.853 299.385V316.125Z" fill="#747BB3"/>
<path d="M375.853 282.628L366.435 278.726V261.986L375.853 265.888V282.628Z" fill="#747BB3"/>
<path d="M375.853 249.131L366.435 245.229V228.489L375.853 232.391V249.131Z" fill="#747BB3"/>
<path d="M375.853 215.634L366.435 211.732V194.992L375.853 198.894V215.634Z" fill="#747BB3"/>
<path d="M375.853 148.64L366.435 144.738V127.998L375.853 131.9V148.64Z" fill="#747BB3"/>
<path d="M375.853 115.143L366.435 111.241V94.5005L375.853 98.4028V115.143Z" fill="#747BB3"/>
<path d="M375.852 81.6457L366.435 77.7434V61.0034L375.852 64.9057V81.6457Z" fill="#747BB3"/>
<path d="M392.24 456.861L382.823 452.96V436.218L392.24 440.121V456.861Z" fill="#747BB3"/>
<path d="M392.24 389.867L382.823 385.966V369.224L392.24 373.127V389.867Z" fill="#747BB3"/>
<path d="M392.24 356.37L382.823 352.469V335.727L392.24 339.63V356.37Z" fill="#747BB3"/>
<path d="M392.24 322.873L382.823 318.97V302.23L392.24 306.133V322.873Z" fill="#747BB3"/>
<path d="M392.24 289.376L382.823 285.475V268.733L392.24 272.636V289.376Z" fill="#747BB3"/>
<path d="M392.24 255.879L382.823 251.977V235.237L392.24 239.139V255.879Z" fill="#747BB3"/>
<path d="M392.24 222.382L382.823 218.48V201.739L392.24 205.642V222.382Z" fill="#747BB3"/>
<path d="M392.24 188.885L382.823 184.982V168.242L392.24 172.145V188.885Z" fill="#747BB3"/>
<path d="M392.24 155.388L382.823 151.485V134.745L392.24 138.648V155.388Z" fill="#747BB3"/>
<path d="M392.24 121.891L382.823 117.988V101.248L392.24 105.151V121.891Z" fill="#747BB3"/>
<path d="M392.24 88.3935L382.823 84.4913V67.7512L392.24 71.6535V88.3935Z" fill="#747BB3"/>
<path d="M407.894 464.096L398.478 460.194V443.454L407.894 447.356V464.096Z" fill="#747BB3"/>
<path d="M407.894 430.599L398.478 426.697V409.957L407.894 413.859V430.599Z" fill="#747BB3"/>
<path d="M407.894 397.102L398.478 393.2V376.46L407.894 380.362V397.102Z" fill="#747BB3"/>
<path d="M407.894 363.605L398.478 359.703V342.963L407.894 346.865V363.605Z" fill="#747BB3"/>
<path d="M407.894 330.108L398.478 326.206V309.466L407.894 313.368V330.108Z" fill="#747BB3"/>
<path d="M407.894 263.114L398.478 259.212V242.472L407.894 246.374V263.114Z" fill="#747BB3"/>
<path d="M407.894 229.617L398.478 225.715V208.975L407.894 212.876V229.617Z" fill="#747BB3"/>
<path d="M407.894 196.12L398.478 192.218V175.478L407.894 179.38V196.12Z" fill="#747BB3"/>
<path d="M407.894 162.623L398.478 158.72V141.98L407.894 145.883V162.623Z" fill="#747BB3"/>
<path d="M407.894 95.6289L398.478 91.7266V74.9866L407.894 78.8877V95.6289Z" fill="#747BB3"/>
<path d="M396.947 516.454L387.531 512.552V495.812L396.947 499.714V516.454Z" fill="#747BB3"/>
<path d="M313.905 438.005L323.321 434.103V417.363L313.905 421.265V438.005Z" fill="#747BB3"/>
<path d="M313.905 404.508L323.321 400.606V383.866L313.905 387.768V404.508Z" fill="#747BB3"/>
<path d="M313.905 371.011L323.321 367.109V350.369L313.905 354.271V371.011Z" fill="#747BB3"/>
<path d="M313.905 304.017L323.321 300.115V283.375L313.905 287.277V304.017Z" fill="#747BB3"/>
<path d="M313.905 270.52L323.321 266.618V249.878L313.905 253.78V270.52Z" fill="#747BB3"/>
<path d="M313.905 237.023L323.321 233.121V216.381L313.905 220.283V237.023Z" fill="#747BB3"/>
<path d="M313.905 203.526L323.321 199.624V182.884L313.905 186.786V203.526Z" fill="#747BB3"/>
<path d="M313.905 170.029L323.321 166.127V149.387L313.905 153.289V170.029Z" fill="#747BB3"/>
<path d="M313.905 136.532L323.321 132.63V115.89L313.905 119.792V136.532Z" fill="#747BB3"/>
<path d="M313.905 103.035L323.321 99.1331V82.3931L313.905 86.2954V103.035Z" fill="#747BB3"/>
<path d="M313.905 69.5383L323.321 65.636V48.896L313.905 52.7983V69.5383Z" fill="#747BB3"/>
<path d="M298.467 443.454L307.883 439.551V422.811L298.467 426.714V443.454Z" fill="#747BB3"/>
<path d="M298.467 443.454L307.883 439.551V422.811L298.467 426.714V443.454Z" fill="#747BB3"/>
<path d="M298.467 477.503L307.883 473.601V456.861L298.467 460.763V477.503Z" fill="#747BB3"/>
<path d="M282.727 495.812L292.143 491.91V475.17L282.727 479.072V495.812Z" fill="#747BB3"/>
<path d="M298.467 545.601L307.883 541.7V524.959L298.467 528.861V545.601Z" fill="#747BB3"/>
<path d="M298.467 409.957L307.883 406.054V389.314L298.467 393.217V409.957Z" fill="#747BB3"/>
<path d="M298.467 376.46L307.883 372.557V355.817L298.467 359.72V376.46Z" fill="#747BB3"/>
<path d="M298.467 342.963L307.883 339.061V322.321L298.467 326.223V342.963Z" fill="#747BB3"/>
<path d="M298.467 309.466L307.883 305.563V288.823L298.467 292.726V309.466Z" fill="#747BB3"/>
<path d="M298.467 208.975L307.883 205.073V188.333L298.467 192.235V208.975Z" fill="#747BB3"/>
<path d="M298.467 175.478L307.883 171.575V154.835L298.467 158.738V175.478Z" fill="#747BB3"/>
<path d="M298.467 108.484L307.883 104.581V87.8413L298.467 91.7436V108.484Z" fill="#747BB3"/>
<path d="M298.467 74.9866L307.883 71.0843V54.3442L298.467 58.2465V74.9866Z" fill="#747BB3"/>
<path d="M282.727 383.119L292.143 379.217V362.477L282.727 366.379V383.119Z" fill="#747BB3"/>
<path d="M282.727 349.622L292.143 345.72V328.979L282.727 332.882V349.622Z" fill="#747BB3"/>
<path d="M282.727 316.125L292.143 312.222V295.482L282.727 299.385V316.125Z" fill="#747BB3"/>
<path d="M282.727 282.628L292.143 278.726V261.986L282.727 265.888V282.628Z" fill="#747BB3"/>
<path d="M282.727 249.131L292.143 245.229V228.489L282.727 232.391V249.131Z" fill="#747BB3"/>
<path d="M282.727 215.634L292.143 211.732V194.992L282.727 198.894V215.634Z" fill="#747BB3"/>
<path d="M282.727 148.64L292.143 144.738V127.998L282.727 131.9V148.64Z" fill="#747BB3"/>
<path d="M282.727 115.143L292.143 111.241V94.5005L282.727 98.4028V115.143Z" fill="#747BB3"/>
<path d="M282.727 81.6457L292.143 77.7434V61.0034L282.727 64.9057V81.6457Z" fill="#747BB3"/>
<path d="M266.338 456.861L275.755 452.96V436.218L266.338 440.121V456.861Z" fill="#747BB3"/>
<path d="M266.338 389.867L275.755 385.966V369.224L266.338 373.127V389.867Z" fill="#747BB3"/>
<path d="M266.338 356.37L275.755 352.469V335.727L266.338 339.63V356.37Z" fill="#747BB3"/>
<path d="M266.338 322.873L275.755 318.97V302.23L266.338 306.133V322.873Z" fill="#747BB3"/>
<path d="M266.338 289.376L275.755 285.475V268.733L266.338 272.636V289.376Z" fill="#747BB3"/>
<path d="M266.338 255.879L275.755 251.977V235.237L266.338 239.139V255.879Z" fill="#747BB3"/>
<path d="M266.338 222.382L275.755 218.48V201.739L266.338 205.642V222.382Z" fill="#747BB3"/>
<path d="M266.338 188.885L275.755 184.982V168.242L266.338 172.145V188.885Z" fill="#747BB3"/>
<path d="M266.338 155.388L275.755 151.485V134.745L266.338 138.648V155.388Z" fill="#747BB3"/>
<path d="M266.338 121.891L275.755 117.988V101.248L266.338 105.151V121.891Z" fill="#747BB3"/>
<path d="M266.338 88.3935L275.755 84.4913V67.7512L266.338 71.6535V88.3935Z" fill="#747BB3"/>
<path d="M250.685 464.096L260.101 460.194V443.454L250.685 447.356V464.096Z" fill="#747BB3"/>
<path d="M250.685 430.599L260.101 426.697V409.957L250.685 413.859V430.599Z" fill="#747BB3"/>
<path d="M250.685 397.102L260.101 393.2V376.46L250.685 380.362V397.102Z" fill="#747BB3"/>
<path d="M250.685 363.605L260.101 359.703V342.963L250.685 346.865V363.605Z" fill="#747BB3"/>
<path d="M250.685 330.108L260.101 326.206V309.466L250.685 313.368V330.108Z" fill="#747BB3"/>
<path d="M250.685 263.114L260.101 259.212V242.472L250.685 246.374V263.114Z" fill="#747BB3"/>
<path d="M250.685 229.617L260.101 225.715V208.975L250.685 212.876V229.617Z" fill="#747BB3"/>
<path d="M250.685 196.12L260.101 192.218V175.478L250.685 179.38V196.12Z" fill="#747BB3"/>
<path d="M250.685 162.623L260.101 158.72V141.98L250.685 145.883V162.623Z" fill="#747BB3"/>
<path d="M250.685 95.6289L260.101 91.7266V74.9866L250.685 78.8877V95.6289Z" fill="#747BB3"/>
<path d="M261.63 516.454L271.046 512.552V495.812L261.63 499.714V516.454Z" fill="#747BB3"/>
<path d="M495.202 483.602L487.982 480.611V467.78L495.202 470.769V483.602Z" fill="#747BB3"/>
<path d="M495.202 457.925L487.982 454.933V442.103L495.202 445.093V457.925Z" fill="#747BB3"/>
<path d="M495.202 432.248L487.982 429.256V416.426L495.202 419.417V432.248Z" fill="#747BB3"/>
<path d="M495.202 380.897L487.982 377.906V365.075L495.202 368.066V380.897Z" fill="#747BB3"/>
<path d="M495.202 355.221L487.982 352.229V339.398L495.202 342.389V355.221Z" fill="#747BB3"/>
<path d="M495.202 329.544L487.982 326.554V313.722L495.202 316.713V329.544Z" fill="#747BB3"/>
<path d="M495.202 303.869L487.982 300.877V288.046L495.202 291.037V303.869Z" fill="#747BB3"/>
<path d="M495.202 278.192L487.982 275.201V262.371L495.202 265.36V278.192Z" fill="#747BB3"/>
<path d="M495.202 252.517L487.982 249.526V236.693L495.202 239.685V252.517Z" fill="#747BB3"/>
<path d="M495.202 226.841L487.982 223.849V211.018L495.202 214.008V226.841Z" fill="#747BB3"/>
<path d="M507.034 487.778L499.815 484.787V471.955L507.034 474.947V487.778Z" fill="#747BB3"/>
<path d="M507.034 487.778L499.815 484.787V471.955L507.034 474.947V487.778Z" fill="#747BB3"/>
<path d="M507.034 513.876L499.815 510.886V498.053L507.034 501.044V513.876Z" fill="#747BB3"/>
<path d="M519.097 527.911L511.88 524.919V512.089L519.097 515.079V527.911Z" fill="#747BB3"/>
<path d="M507.034 566.075L499.815 563.085V550.253L507.034 553.245V566.075Z" fill="#747BB3"/>
<path d="M528.054 591.24L520.834 588.249V575.418L528.054 578.409V591.24Z" fill="#747BB3"/>
<path d="M507.034 462.101L499.815 459.11V446.279L507.034 449.271V462.101Z" fill="#747BB3"/>
<path d="M507.034 436.424L499.815 433.434V420.602L507.034 423.594V436.424Z" fill="#747BB3"/>
<path d="M507.034 410.75L499.815 407.759V394.928L507.034 397.917V410.75Z" fill="#747BB3"/>
<path d="M507.034 385.073L499.815 382.081V369.251L507.034 372.243V385.073Z" fill="#747BB3"/>
<path d="M507.034 308.045L499.815 305.054V292.222L507.034 295.214V308.045Z" fill="#747BB3"/>
<path d="M507.034 282.369L499.815 279.377V266.547L507.034 269.536V282.369Z" fill="#747BB3"/>
<path d="M507.034 205.34L499.815 202.35V189.518L507.034 192.509V205.34Z" fill="#747BB3"/>
<path d="M519.097 441.53L511.88 438.538V425.708L519.097 428.7V441.53Z" fill="#747BB3"/>
<path d="M519.097 415.854L511.88 412.862V400.031L519.097 403.022V415.854Z" fill="#747BB3"/>
<path d="M519.097 364.502L511.88 361.511V348.68L519.097 351.668V364.502Z" fill="#747BB3"/>
<path d="M519.097 338.826L511.88 335.834V323.002L519.097 325.993V338.826Z" fill="#747BB3"/>
<path d="M519.097 313.149L511.88 310.159V297.327L519.097 300.317V313.149Z" fill="#747BB3"/>
<path d="M519.097 261.797L511.88 258.807V245.975L519.097 248.965V261.797Z" fill="#747BB3"/>
<path d="M519.097 236.122L511.88 233.13V220.298L519.097 223.289V236.122Z" fill="#747BB3"/>
<path d="M519.097 210.445L511.88 207.454V194.621L519.097 197.613V210.445Z" fill="#747BB3"/>
<path d="M531.659 498.053L524.442 495.064V482.232L531.659 485.222V498.053Z" fill="#747BB3"/>
<path d="M531.659 421.026L524.442 418.037V405.203L531.659 408.194V421.026Z" fill="#747BB3"/>
<path d="M531.659 395.352L524.442 392.36V379.528L531.659 382.517V395.352Z" fill="#747BB3"/>
<path d="M531.659 369.675L524.442 366.683V353.852L531.659 356.843V369.675Z" fill="#747BB3"/>
<path d="M531.659 343.997L524.442 341.006V328.175L531.659 331.165V343.997Z" fill="#747BB3"/>
<path d="M531.659 318.321L524.442 315.331V302.5L531.659 305.49V318.321Z" fill="#747BB3"/>
<path d="M531.659 292.645L524.442 289.656V276.823L531.659 279.815V292.645Z" fill="#747BB3"/>
<path d="M531.659 266.969L524.442 263.979V251.147L531.659 254.138V266.969Z" fill="#747BB3"/>
<path d="M531.659 241.293L524.442 238.302V225.47L531.659 228.462V241.293Z" fill="#747BB3"/>
<path d="M531.659 215.617L524.442 212.626V199.795L531.659 202.786V215.617Z" fill="#747BB3"/>
<path d="M543.66 503.601L536.441 500.61V487.778L543.66 490.767V503.601Z" fill="#747BB3"/>
<path d="M543.66 477.924L536.441 474.932V462.101L543.66 465.093V477.924Z" fill="#747BB3"/>
<path d="M543.66 452.248L536.441 449.256V436.424L543.66 439.416V452.248Z" fill="#747BB3"/>
<path d="M543.66 426.571L536.441 423.582V410.75L543.66 413.74V426.571Z" fill="#747BB3"/>
<path d="M543.66 400.897L536.441 397.905V385.073L543.66 388.065V400.897Z" fill="#747BB3"/>
<path d="M543.66 349.542L536.441 346.554V333.72L543.66 336.712V349.542Z" fill="#747BB3"/>
<path d="M543.66 323.867L536.441 320.876V308.044L543.66 311.036V323.867Z" fill="#747BB3"/>
<path d="M543.66 298.19L536.441 295.201V282.369L543.66 285.36V298.19Z" fill="#747BB3"/>
<path d="M543.66 272.515L536.441 269.525V256.692L543.66 259.684V272.515Z" fill="#747BB3"/>
<path d="M543.66 221.163L536.441 218.173V205.34L543.66 208.332V221.163Z" fill="#747BB3"/>
<path d="M535.271 543.733L528.051 540.741V527.911L535.271 530.902V543.733Z" fill="#747BB3"/>
<path d="M471.615 483.602L478.832 480.611V467.78L471.615 470.769V483.602Z" fill="#747BB3"/>
<path d="M471.615 457.925L478.832 454.933V442.103L471.615 445.094V457.925Z" fill="#747BB3"/>
<path d="M471.615 432.249L478.832 429.257V416.426L471.615 419.417V432.249Z" fill="#747BB3"/>
<path d="M471.615 380.898L478.832 377.906V365.075L471.615 368.066V380.898Z" fill="#747BB3"/>
<path d="M471.615 355.221L478.832 352.229V339.399L471.615 342.389V355.221Z" fill="#747BB3"/>
<path d="M471.615 329.544L478.832 326.554V313.722L471.615 316.713V329.544Z" fill="#747BB3"/>
<path d="M471.615 303.869L478.832 300.877V288.047L471.615 291.037V303.869Z" fill="#747BB3"/>
<path d="M471.615 278.192L478.832 275.202V262.371L471.615 265.36V278.192Z" fill="#747BB3"/>
<path d="M471.615 252.517L478.832 249.526V236.693L471.615 239.685V252.517Z" fill="#747BB3"/>
<path d="M459.782 487.778L467 484.787V471.955L459.782 474.947V487.778Z" fill="#747BB3"/>
<path d="M459.782 487.778L467 484.787V471.955L459.782 474.947V487.778Z" fill="#747BB3"/>
<path d="M459.782 513.876L467 510.886V498.053L459.782 501.044V513.876Z" fill="#747BB3"/>
<path d="M447.717 527.911L454.935 524.919V512.089L447.717 515.079V527.911Z" fill="#747BB3"/>
<path d="M459.782 566.075L467 563.085V550.253L459.782 553.245V566.075Z" fill="#747BB3"/>
<path d="M459.782 462.101L467 459.11V446.279L459.782 449.271V462.101Z" fill="#747BB3"/>
<path d="M459.782 410.75L467 407.759V394.928L459.782 397.917V410.75Z" fill="#747BB3"/>
<path d="M459.782 385.073L467 382.081V369.251L459.782 372.243V385.073Z" fill="#747BB3"/>
<path d="M459.782 308.045L467 305.054V292.222L459.782 295.214V308.045Z" fill="#747BB3"/>
<path d="M459.782 282.369L467 279.377V266.547L459.782 269.536V282.369Z" fill="#747BB3"/>
<path d="M459.782 231.017L467 228.025V215.195L459.782 218.184V231.017Z" fill="#747BB3"/>
<path d="M459.782 205.34L467 202.35V189.518L459.782 192.509V205.34Z" fill="#747BB3"/>
<path d="M447.717 441.53L454.934 438.538V425.708L447.717 428.7V441.53Z" fill="#747BB3"/>
<path d="M447.717 415.854L454.934 412.862V400.031L447.717 403.022V415.854Z" fill="#747BB3"/>
<path d="M447.717 390.177L454.934 387.188V374.355L447.717 377.345V390.177Z" fill="#747BB3"/>
<path d="M447.717 364.502L454.934 361.511V348.68L447.717 351.668V364.502Z" fill="#747BB3"/>
<path d="M447.717 338.826L454.934 335.834V323.002L447.717 325.993V338.826Z" fill="#747BB3"/>
<path d="M447.717 313.149L454.934 310.159V297.327L447.717 300.317V313.149Z" fill="#747BB3"/>
<path d="M447.717 261.797L454.934 258.807V245.975L447.717 248.965V261.797Z" fill="#747BB3"/>
<path d="M447.717 236.122L454.935 233.13V220.298L447.717 223.289V236.122Z" fill="#747BB3"/>
<path d="M435.153 498.053L442.373 495.064V482.232L435.153 485.222V498.053Z" fill="#747BB3"/>
<path d="M435.153 446.703L442.373 443.711V430.879L435.153 433.871V446.703Z" fill="#747BB3"/>
<path d="M435.153 421.026L442.373 418.037V405.203L435.153 408.194V421.026Z" fill="#747BB3"/>
<path d="M435.153 395.352L442.373 392.36V379.528L435.153 382.517V395.352Z" fill="#747BB3"/>
<path d="M435.153 369.675L442.373 366.683V353.852L435.153 356.843V369.675Z" fill="#747BB3"/>
<path d="M435.153 343.997L442.373 341.006V328.175L435.153 331.165V343.997Z" fill="#747BB3"/>
<path d="M435.153 318.321L442.373 315.331V302.5L435.153 305.49V318.321Z" fill="#747BB3"/>
<path d="M435.153 292.645L442.373 289.656V276.823L435.153 279.815V292.645Z" fill="#747BB3"/>
<path d="M435.153 266.969L442.373 263.979V251.147L435.153 254.138V266.969Z" fill="#747BB3"/>
<path d="M435.153 241.293L442.373 238.302V225.47L435.153 228.462V241.293Z" fill="#747BB3"/>
<path d="M435.153 215.617L442.373 212.626V199.795L435.153 202.786V215.617Z" fill="#747BB3"/>
<path d="M423.156 503.601L430.374 500.609V487.778L423.156 490.767V503.601Z" fill="#747BB3"/>
<path d="M423.156 477.924L430.374 474.932V462.101L423.156 465.093V477.924Z" fill="#747BB3"/>
<path d="M423.156 452.248L430.374 449.256V436.424L423.156 439.416V452.248Z" fill="#747BB3"/>
<path d="M423.156 349.542L430.374 346.554V333.72L423.156 336.712V349.542Z" fill="#747BB3"/>
<path d="M423.156 323.867L430.374 320.876V308.044L423.156 311.036V323.867Z" fill="#747BB3"/>
<path d="M423.156 298.19L430.374 295.201V282.369L423.156 285.36V298.19Z" fill="#747BB3"/>
<path d="M423.157 272.515L430.374 269.525V256.692L423.157 259.684V272.515Z" fill="#747BB3"/>
<path d="M431.545 543.733L438.762 540.741V527.911L431.545 530.902V543.733Z" fill="#747BB3"/>
<path d="M524.444 562.442L517.224 559.451V546.62L524.444 549.611V562.442Z" fill="#747BB3"/>
<path d="M503.426 612.477L496.207 609.485V596.653L503.426 599.645V612.477Z" fill="#747BB3"/>
<path d="M524.444 628.298L517.224 625.306V612.475L524.444 615.466V628.298Z" fill="#747BB3"/>
<path d="M543.66 616.387L536.441 613.396V600.565L543.66 603.556V616.387Z" fill="#747BB3"/>
<path d="M438.765 573.008L445.982 570.016V557.186L438.765 560.177V573.008Z" fill="#747BB3"/>
<path d="M451.326 628.298L458.544 625.306V612.475L451.326 615.466V628.298Z" fill="#747BB3"/>
<path d="M166.896 499.159L157.479 495.257V478.517L166.896 482.419V499.159Z" fill="#747BB3"/>
<path d="M166.896 465.662L157.479 461.76V445.02L166.896 448.922V465.662Z" fill="#747BB3"/>
<path d="M166.896 432.165L157.479 428.263V411.523L166.896 415.425V432.165Z" fill="#747BB3"/>
<path d="M166.896 365.171L157.479 361.269V344.529L166.896 348.431V365.171Z" fill="#747BB3"/>
<path d="M166.896 331.674L157.479 327.772V311.031L166.896 314.934V331.674Z" fill="#747BB3"/>
<path d="M166.896 298.177L157.479 294.274V277.534L166.896 281.435V298.177Z" fill="#747BB3"/>
<path d="M166.896 264.68L157.479 260.778V244.038L166.896 247.94V264.68Z" fill="#747BB3"/>
<path d="M166.896 231.183L157.479 227.281V210.541L166.896 214.442V231.183Z" fill="#747BB3"/>
<path d="M166.896 197.686L157.479 193.783V177.043L166.896 180.946V197.686Z" fill="#747BB3"/>
<path d="M166.896 164.189L157.479 160.287V143.547L166.896 147.448V164.189Z" fill="#747BB3"/>
<path d="M166.896 130.692L157.479 126.79V110.05L166.896 113.951V130.692Z" fill="#747BB3"/>
<path d="M182.333 504.607L172.916 500.705V483.965L182.333 487.867V504.607Z" fill="#747BB3"/>
<path d="M182.333 504.607L172.916 500.705V483.965L182.333 487.867V504.607Z" fill="#747BB3"/>
<path d="M182.333 538.656L172.916 534.754V518.014L182.333 521.916V538.656Z" fill="#747BB3"/>
<path d="M198.073 556.966L188.656 553.063V536.323L198.073 540.226V556.966Z" fill="#747BB3"/>
<path d="M182.333 606.755L172.916 602.852V586.112L182.333 590.014V606.755Z" fill="#747BB3"/>
<path d="M182.333 471.11L172.916 467.208V450.468L182.333 454.37V471.11Z" fill="#747BB3"/>
<path d="M182.333 437.613L172.916 433.711V416.971L182.333 420.873V437.613Z" fill="#747BB3"/>
<path d="M182.333 404.116L172.916 400.214V383.474L182.333 387.376V404.116Z" fill="#747BB3"/>
<path d="M182.333 370.619L172.916 366.717V349.977L182.333 353.879V370.619Z" fill="#747BB3"/>
<path d="M182.333 270.128L172.916 266.226V249.486L182.333 253.388V270.128Z" fill="#747BB3"/>
<path d="M182.333 236.631L172.916 232.729V215.989L182.333 219.89V236.631Z" fill="#747BB3"/>
<path d="M182.333 169.637L172.916 165.735V148.995L182.333 152.896V169.637Z" fill="#747BB3"/>
<path d="M182.333 136.14L172.916 132.238V115.498L182.333 119.399V136.14Z" fill="#747BB3"/>
<path d="M198.073 444.272L188.656 440.37V423.63L198.073 427.532V444.272Z" fill="#747BB3"/>
<path d="M198.073 410.775L188.656 406.873V390.133L198.073 394.035V410.775Z" fill="#747BB3"/>
<path d="M198.073 377.279L188.656 373.376V356.636L198.073 360.539V377.279Z" fill="#747BB3"/>
<path d="M198.073 343.781L188.656 339.879V323.139L198.073 327.041V343.781Z" fill="#747BB3"/>
<path d="M198.073 310.284L188.656 306.382V289.642L198.073 293.543V310.284Z" fill="#747BB3"/>
<path d="M198.073 276.787L188.656 272.885V256.145L198.073 260.047V276.787Z" fill="#747BB3"/>
<path d="M198.073 209.793L188.656 205.891V189.151L198.073 193.053V209.793Z" fill="#747BB3"/>
<path d="M198.073 176.296L188.656 172.394V155.654L198.073 159.555V176.296Z" fill="#747BB3"/>
<path d="M198.073 142.799L188.656 138.897V122.157L198.073 126.058V142.799Z" fill="#747BB3"/>
<path d="M214.461 518.014L205.043 514.112V497.372L214.461 501.274V518.014Z" fill="#747BB3"/>
<path d="M214.461 451.02L205.043 447.117V430.377L214.461 434.28V451.02Z" fill="#747BB3"/>
<path d="M214.461 417.523L205.043 413.621V396.881L214.461 400.783V417.523Z" fill="#747BB3"/>
<path d="M214.461 384.026L205.043 380.124V363.384L214.461 367.286V384.026Z" fill="#747BB3"/>
<path d="M214.461 350.529L205.043 346.627V329.886L214.461 333.789V350.529Z" fill="#747BB3"/>
<path d="M214.461 317.032L205.043 313.129V296.389L214.461 300.292V317.032Z" fill="#747BB3"/>
<path d="M214.461 283.535L205.043 279.633V262.893L214.461 266.795V283.535Z" fill="#747BB3"/>
<path d="M214.461 250.038L205.043 246.136V229.396L214.461 233.298V250.038Z" fill="#747BB3"/>
<path d="M214.461 216.541L205.043 212.639V195.899L214.461 199.801V216.541Z" fill="#747BB3"/>
<path d="M214.461 183.044L205.043 179.142V162.402L214.461 166.304V183.044Z" fill="#747BB3"/>
<path d="M214.461 149.547L205.043 145.645V128.905L214.461 132.807V149.547Z" fill="#747BB3"/>
<path d="M230.114 525.25L220.698 521.347V504.607L230.114 508.509V525.25Z" fill="#747BB3"/>
<path d="M230.114 491.752L220.698 487.85V471.11L230.114 475.012V491.752Z" fill="#747BB3"/>
<path d="M230.114 458.256L220.698 454.353V437.613L230.114 441.514V458.256Z" fill="#747BB3"/>
<path d="M230.114 424.759L220.698 420.856V404.116L230.114 408.017V424.759Z" fill="#747BB3"/>
<path d="M230.114 391.261L220.698 387.359V370.619L230.114 374.52V391.261Z" fill="#747BB3"/>
<path d="M230.114 324.266L220.698 320.365V303.625L230.114 307.526V324.266Z" fill="#747BB3"/>
<path d="M230.114 290.77L220.698 286.868V270.128L230.114 274.029V290.77Z" fill="#747BB3"/>
<path d="M230.114 257.272L220.698 253.371V236.631L230.114 240.532V257.272Z" fill="#747BB3"/>
<path d="M230.114 223.777L220.698 219.874V203.134L230.114 207.035V223.777Z" fill="#747BB3"/>
<path d="M230.114 156.781L220.698 152.88V136.14L230.114 140.041V156.781Z" fill="#747BB3"/>
<path d="M219.168 577.608L209.752 573.706V556.966L219.168 560.868V577.608Z" fill="#747BB3"/>
<path d="M152.683 640.737L147.975 642.642V112.858L152.683 110.958V640.737Z" fill="#747BB3"/>
<path d="M142.055 517.062L137.346 518.966V117.399L142.055 115.498V517.062Z" fill="#747BB3"/>
<path d="M132.698 620.96L127.99 622.865V120.975L132.698 119.073V620.96Z" fill="#747BB3"/>
<path d="M164.045 80.5019L156.485 77.3684V63.9265L164.045 67.06V80.5019Z" fill="#747BB3"/>
<path d="M176.439 111.772L168.879 108.639V95.197L176.439 98.3305V111.772Z" fill="#747BB3"/>
<path d="M176.439 84.8764L168.879 81.7429V68.301L176.439 71.4345V84.8764Z" fill="#747BB3"/>
<path d="M189.078 117.119L181.517 113.986V100.544L189.078 103.677V117.119Z" fill="#747BB3"/>
<path d="M202.236 122.536L194.676 119.404V105.963L202.236 109.095V122.536Z" fill="#747BB3"/>
<path d="M202.236 95.6401L194.676 92.5078V79.0671L202.236 82.1994V95.6401Z" fill="#747BB3"/>
<path d="M153.893 105.011L149.186 106.915V65.8286L153.893 63.9265V105.011Z" fill="#747BB3"/>
<path d="M144.478 109.051L139.769 110.954V69.8679L144.478 67.9658V109.051Z" fill="#747BB3"/>
<path d="M136.263 112.346L131.555 114.249V73.1646L136.263 71.2625V112.346Z" fill="#747BB3"/>
<path d="M621.095 580.229L630.513 577.138V563.879L621.095 566.97V580.229Z" fill="#747BB3"/>
<path d="M621.095 553.696L630.513 550.605V537.344L621.095 540.435V553.696Z" fill="#747BB3"/>
<path d="M621.095 527.161L630.513 524.07V510.808L621.095 513.899V527.161Z" fill="#747BB3"/>
<path d="M621.095 474.091L630.513 471V457.74L621.095 460.832V474.091Z" fill="#747BB3"/>
<path d="M621.095 447.556L630.513 444.465V431.206L621.095 434.295V447.556Z" fill="#747BB3"/>
<path d="M621.095 421.023L630.513 417.932V404.67L621.095 407.762V421.023Z" fill="#747BB3"/>
<path d="M621.095 394.489L630.513 391.398V378.138L621.095 381.226V394.489Z" fill="#747BB3"/>
<path d="M621.095 367.954L630.513 364.863V351.603L621.095 354.692V367.954Z" fill="#747BB3"/>
<path d="M621.095 341.42L630.513 338.328V325.068L621.095 328.157V341.42Z" fill="#747BB3"/>
<path d="M621.095 314.884L630.513 311.793V298.532L621.095 301.624V314.884Z" fill="#747BB3"/>
<path d="M621.095 288.35L630.512 285.259V271.997L621.095 275.088V288.35Z" fill="#747BB3"/>
<path d="M605.657 584.547L615.075 581.456V568.194L605.657 571.285V584.547Z" fill="#747BB3"/>
<path d="M573.53 568.74L582.946 565.65V552.389L573.53 555.479V568.74Z" fill="#747BB3"/>
<path d="M605.657 611.518L615.075 608.427V595.167L605.657 598.257V611.518Z" fill="#747BB3"/>
<path d="M589.917 626.022L599.335 622.931V609.67L589.917 612.761V626.022Z" fill="#747BB3"/>
<path d="M605.657 665.462L615.075 662.372V649.109L605.657 652.2V665.462Z" fill="#747BB3"/>
<path d="M605.657 558.011L615.075 554.92V541.659L605.657 544.75V558.011Z" fill="#747BB3"/>
<path d="M605.657 531.476L615.075 528.387V515.124L605.657 518.215V531.476Z" fill="#747BB3"/>
<path d="M605.657 504.941L615.075 501.85V488.588L605.657 491.682V504.941Z" fill="#747BB3"/>
<path d="M605.657 478.406L615.075 475.315V462.056L605.657 465.147V478.406Z" fill="#747BB3"/>
<path d="M605.657 398.804L615.075 395.713V382.452L605.657 385.543V398.804Z" fill="#747BB3"/>
<path d="M605.657 372.269L615.075 369.178V355.918L605.657 359.009V372.269Z" fill="#747BB3"/>
<path d="M605.657 319.2L615.075 316.109V302.849L605.657 305.939V319.2Z" fill="#747BB3"/>
<path d="M589.917 536.753L599.335 533.662V520.4L589.917 523.49V536.753Z" fill="#747BB3"/>
<path d="M589.917 510.218L599.335 507.127V493.865L589.917 496.955V510.218Z" fill="#747BB3"/>
<path d="M589.917 483.683L599.335 480.592V467.33L589.917 470.42V483.683Z" fill="#747BB3"/>
<path d="M589.917 457.148L599.335 454.056V440.797L589.917 443.887V457.148Z" fill="#747BB3"/>
<path d="M589.917 430.612L599.335 427.521V414.262L589.917 417.352V430.612Z" fill="#747BB3"/>
<path d="M589.917 404.078L599.335 400.989V387.728L589.917 390.818V404.078Z" fill="#747BB3"/>
<path d="M605.657 425.698L615.075 422.607V409.346L605.657 412.438" fill="#747BB3"/>
<path d="M606.843 292.91L616.259 289.819V276.557L606.843 279.648V292.91Z" fill="#747BB3"/>
<path d="M589.917 297.94L599.335 294.849V281.589L589.917 284.68V297.94Z" fill="#747BB3"/>
<path d="M573.53 595.167L582.946 592.076V578.815L573.53 581.906V595.167Z" fill="#747BB3"/>
<path d="M573.53 542.097L582.946 539.006V525.744L573.53 528.835V542.097Z" fill="#747BB3"/>
<path d="M621.095 499.927L630.512 496.836V483.577L621.095 486.667V499.927Z" fill="#747BB3"/>
<path d="M573.53 462.494L582.946 459.403V446.142L573.53 449.231V462.494Z" fill="#747BB3"/>
<path d="M573.53 435.959L582.946 432.868V419.606L573.53 422.696V435.959Z" fill="#747BB3"/>
<path d="M557.876 466.43L567.292 463.34V450.079L557.876 453.169V466.43Z" fill="#747BB3"/>
<path d="M573.53 356.356L582.946 353.265V340.004L573.53 343.093V356.356Z" fill="#747BB3"/>
<path d="M573.53 329.82L582.946 326.73V313.469L573.53 316.56V329.82Z" fill="#747BB3"/>
<path d="M573.53 303.286L582.946 300.195V286.935L573.53 290.026V303.286Z" fill="#747BB3"/>
<path d="M557.876 600.897L567.292 597.806V584.547L557.876 587.638V600.897Z" fill="#747BB3"/>
<path d="M557.876 574.362L567.292 571.271V558.011L557.876 561.103V574.362Z" fill="#747BB3"/>
<path d="M557.876 547.829L567.292 544.738V531.476L557.876 534.567V547.829Z" fill="#747BB3"/>
<path d="M557.876 521.294L567.292 518.203V504.941L557.876 508.032V521.294Z" fill="#747BB3"/>
<path d="M557.876 494.759L567.292 491.668V478.406L557.876 481.497V494.759Z" fill="#747BB3"/>
<path d="M557.876 415.156L567.292 412.065V398.804L557.876 401.894V415.156Z" fill="#747BB3"/>
<path d="M557.876 388.622L567.292 385.531V372.269L557.876 375.362V388.622Z" fill="#747BB3"/>
<path d="M557.876 362.087L567.292 358.996V345.736L557.876 348.827V362.087Z" fill="#747BB3"/>
<path d="M557.876 309.017L567.292 305.927V292.665L557.876 295.756V309.017Z" fill="#747BB3"/>
<path d="M568.822 642.372L578.239 639.281V626.022L568.822 629.113V642.372Z" fill="#747BB3"/>
<path d="M635.308 692.383L640.016 693.889V274.223L635.308 272.717V692.383Z" fill="#747BB3"/>
<path d="M645.938 594.413L650.646 595.922V277.82L645.938 276.314V594.413Z" fill="#747BB3"/>
<path d="M655.293 676.716L660 678.222V280.653L655.293 279.146V676.716Z" fill="#747BB3"/>
<path d="M623.948 268.361L631.508 265.878V255.232L623.948 257.713V268.361Z" fill="#747BB3"/>
<path d="M611.551 252.057L619.112 249.575V238.928L611.551 241.409V252.057Z" fill="#747BB3"/>
<path d="M598.914 277.599L606.474 275.116V264.468L598.914 266.951V277.599Z" fill="#747BB3"/>
<path d="M598.914 256.443L606.474 253.961V243.313L598.914 245.795V256.443Z" fill="#747BB3"/>
<path d="M585.756 260.584L593.316 258.103V247.455L585.756 249.936V260.584Z" fill="#747BB3"/>
<path d="M634.097 268.007L638.805 269.514V236.969L634.097 235.461V268.007Z" fill="#747BB3"/>
<path d="M643.513 271.207L648.222 272.714V240.169L643.513 238.662V271.207Z" fill="#747BB3"/>
<path d="M651.729 273.819L656.437 275.326V242.779L651.729 241.273V273.819Z" fill="#747BB3"/>
<path d="M65.8391 519.017L59.2671 516.295V504.613L65.8391 507.335V519.017Z" fill="#747BB3"/>
<path d="M65.8391 495.643L59.2671 492.919V481.24L65.8391 483.961V495.643Z" fill="#747BB3"/>
<path d="M65.8391 472.268L59.2671 469.546V457.863L65.8391 460.587V472.268Z" fill="#747BB3"/>
<path d="M65.8391 425.521L59.2671 422.797V411.117L65.8391 413.841V425.521Z" fill="#747BB3"/>
<path d="M65.8391 402.147L59.2671 399.423V387.743L65.8391 390.465V402.147Z" fill="#747BB3"/>
<path d="M65.8391 378.771L59.2671 376.049V364.368L65.8391 367.092V378.771Z" fill="#747BB3"/>
<path d="M65.8391 355.397L59.2671 352.676V340.994L65.8391 343.718V355.397Z" fill="#747BB3"/>
<path d="M65.8391 332.025L59.2671 329.302V317.62L65.8391 320.343V332.025Z" fill="#747BB3"/>
<path d="M65.8391 308.651L59.2671 305.928V294.247L65.8391 296.97V308.651Z" fill="#747BB3"/>
<path d="M65.8394 285.276L59.2673 282.553V270.873L65.8394 273.596V285.276Z" fill="#747BB3"/>
<path d="M76.6121 522.819L70.04 520.095V508.415L76.6121 511.137V522.819Z" fill="#747BB3"/>
<path d="M76.6121 522.819L70.04 520.095V508.415L76.6121 511.137V522.819Z" fill="#747BB3"/>
<path d="M76.6121 546.576L70.04 543.856V532.171L76.6121 534.896V546.576Z" fill="#747BB3"/>
<path d="M87.5931 559.353L81.0234 556.631V544.948L87.5931 547.673V559.353Z" fill="#747BB3"/>
<path d="M76.6121 594.096L70.04 591.374V579.693L76.6121 582.417V594.096Z" fill="#747BB3"/>
<path d="M95.7451 617.006L89.1743 614.282V602.601L95.7451 605.323V617.006Z" fill="#747BB3"/>
<path d="M76.6121 499.443L70.04 496.721V485.04L76.6121 487.764V499.443Z" fill="#747BB3"/>
<path d="M76.6121 476.07L70.04 473.346V461.666L76.6121 464.388V476.07Z" fill="#747BB3"/>
<path d="M65.8394 449.393L59.2673 446.668V434.989L65.8394 437.709V449.393Z" fill="#747BB3"/>
<path d="M76.6121 429.323L70.04 426.599V414.92L76.6121 417.641V429.323Z" fill="#747BB3"/>
<path d="M76.6121 359.2L70.04 356.478V344.797L76.6121 347.52V359.2Z" fill="#747BB3"/>
<path d="M76.6121 335.827L70.04 333.102V321.422L76.6121 324.145V335.827Z" fill="#747BB3"/>
<path d="M76.6121 289.079L70.04 286.357V274.675L76.6121 277.398V289.079Z" fill="#747BB3"/>
<path d="M99.0288 509.25L92.4592 506.526V494.846L99.0288 497.567V509.25Z" fill="#747BB3"/>
<path d="M87.5931 457.344L81.0234 454.619V442.939L87.5931 445.661V457.344Z" fill="#747BB3"/>
<path d="M87.5931 410.596L81.0234 407.872V396.193L87.5931 398.912V410.596Z" fill="#747BB3"/>
<path d="M87.5931 387.221L81.0234 384.499V372.816L87.5931 375.538V387.221Z" fill="#747BB3"/>
<path d="M87.5931 363.847L81.0234 361.126V349.443L87.5931 352.166V363.847Z" fill="#747BB3"/>
<path d="M87.5931 317.098L81.0234 314.377V302.695L87.5931 305.418V317.098Z" fill="#747BB3"/>
<path d="M87.5931 293.725L81.0234 291.002V279.321L87.5931 282.043V293.725Z" fill="#747BB3"/>
<path d="M87.5931 270.351L81.0234 267.628V255.946L87.5931 258.669V270.351Z" fill="#747BB3"/>
<path d="M99.0293 532.171L92.4597 529.452V517.771L99.0293 520.492V532.171Z" fill="#747BB3"/>
<path d="M99.0293 462.051L92.4597 459.329V447.648L99.0293 450.37V462.051Z" fill="#747BB3"/>
<path d="M99.0293 438.679L92.4597 435.954V424.274L99.0293 426.996V438.679Z" fill="#747BB3"/>
<path d="M99.0293 415.305L92.4597 412.581V400.9L99.0293 403.623V415.305Z" fill="#747BB3"/>
<path d="M99.0293 391.929L92.4597 389.207V377.525L99.0293 380.247V391.929Z" fill="#747BB3"/>
<path d="M76.6111 452.159L70.0415 449.435V437.756L76.6111 440.478V452.159Z" fill="#747BB3"/>
<path d="M76.6111 382.279L70.0415 379.557V367.874L76.6111 370.598V382.279Z" fill="#747BB3"/>
<path d="M99.0293 321.808L92.4597 319.084V307.404L99.0293 310.126V321.808Z" fill="#747BB3"/>
<path d="M99.0293 298.433L92.4597 295.711V284.029L99.0293 286.753V298.433Z" fill="#747BB3"/>
<path d="M99.0293 275.059L92.4597 272.336V260.655L99.0293 263.378V275.059Z" fill="#747BB3"/>
<path d="M109.954 537.223L103.383 534.498V522.819L109.954 525.539V537.223Z" fill="#747BB3"/>
<path d="M109.954 513.848L103.383 511.126V499.443L109.954 502.168V513.848Z" fill="#747BB3"/>
<path d="M109.954 490.474L103.383 487.75V476.071L109.954 478.791V490.474Z" fill="#747BB3"/>
<path d="M109.954 467.098L103.383 464.378V452.697L109.954 455.419V467.098Z" fill="#747BB3"/>
<path d="M109.954 443.727L103.383 441.003V429.323L109.954 432.045V443.727Z" fill="#747BB3"/>
<path d="M109.954 396.978L103.383 394.256V382.574L109.954 385.296V396.978Z" fill="#747BB3"/>
<path d="M109.954 373.605L103.383 370.881V359.2L109.954 361.922V373.605Z" fill="#747BB3"/>
<path d="M109.954 350.23L103.383 347.507V335.827L109.954 338.548V350.23Z" fill="#747BB3"/>
<path d="M109.954 326.856L103.383 324.133V312.452L109.954 315.176V326.856Z" fill="#747BB3"/>
<path d="M76.6121 312.838L70.04 310.116V298.433L76.6121 301.156V312.838Z" fill="#747BB3"/>
<path d="M102.315 573.756L95.7441 571.034V559.353L102.315 562.077V573.756Z" fill="#747BB3"/>
<path d="M44.3682 519.017L50.9378 516.295V504.613L44.3682 507.335V519.017Z" fill="#747BB3"/>
<path d="M44.3682 495.643L50.9378 492.918V481.239L44.3682 483.961V495.643Z" fill="#747BB3"/>
<path d="M44.3682 472.268L50.9378 469.546V457.863L44.3682 460.587V472.268Z" fill="#747BB3"/>
<path d="M44.3682 425.521L50.9378 422.797V411.117L44.3682 413.841V425.521Z" fill="#747BB3"/>
<path d="M44.3682 402.147L50.9378 399.423V387.743L44.3682 390.465V402.147Z" fill="#747BB3"/>
<path d="M44.3682 378.771L50.9378 376.049V364.368L44.3682 367.092V378.771Z" fill="#747BB3"/>
<path d="M44.3682 355.397L50.9378 352.676V340.994L44.3682 343.718V355.397Z" fill="#747BB3"/>
<path d="M44.3682 332.025L50.9378 329.302V317.62L44.3682 320.343V332.025Z" fill="#747BB3"/>
<path d="M44.3682 308.651L50.9378 305.928V294.247L44.3682 296.97V308.651Z" fill="#747BB3"/>
<path d="M33.5955 522.819L40.1663 520.095V508.415L33.5955 511.137V522.819Z" fill="#747BB3"/>
<path d="M33.5955 522.819L40.1663 520.095V508.415L33.5955 511.137V522.819Z" fill="#747BB3"/>
<path d="M33.5955 546.576L40.1663 543.856V532.171L33.5955 534.896V546.576Z" fill="#747BB3"/>
<path d="M22.6118 559.353L29.1826 556.631V544.948L22.6118 547.673V559.353Z" fill="#747BB3"/>
<path d="M33.5955 594.096L40.1663 591.374V579.693L33.5955 582.417V594.096Z" fill="#747BB3"/>
<path d="M33.5955 499.443L40.1663 496.721V485.04L33.5955 487.764V499.443Z" fill="#747BB3"/>
<path d="M33.5955 452.697L40.1663 449.975V438.292L33.5955 441.014V452.697Z" fill="#747BB3"/>
<path d="M0.252441 466.655L6.82447 463.931V452.252L0.252441 454.974V466.655Z" fill="#747BB3"/>
<path d="M33.5955 359.2L40.1663 356.478V344.797L33.5955 347.52V359.2Z" fill="#747BB3"/>
<path d="M33.5955 335.827L40.1663 333.102V321.422L33.5955 324.145V335.827Z" fill="#747BB3"/>
<path d="M33.5955 289.079L40.1663 286.356V274.675L33.5955 277.396V289.079Z" fill="#747BB3"/>
<path d="M33.5955 265.704L40.1663 262.982V251.3L33.5955 254.023V265.704Z" fill="#747BB3"/>
<path d="M22.6118 480.716L29.1826 477.995V466.313L22.6118 469.037V480.716Z" fill="#747BB3"/>
<path d="M22.6118 457.344L29.1826 454.619V442.939L22.6118 445.661V457.344Z" fill="#747BB3"/>
<path d="M22.6118 433.968L29.1826 431.248V419.564L22.6118 422.289V433.968Z" fill="#747BB3"/>
<path d="M22.6118 410.596L29.1826 407.872V396.193L22.6118 398.912V410.596Z" fill="#747BB3"/>
<path d="M22.6118 387.221L29.1826 384.499V372.817L22.6118 375.538V387.221Z" fill="#747BB3"/>
<path d="M22.6118 363.847L29.1826 361.126V349.443L22.6118 352.166V363.847Z" fill="#747BB3"/>
<path d="M22.6118 317.098L29.1826 314.377V302.695L22.6118 305.418V317.098Z" fill="#747BB3"/>
<path d="M22.6118 293.725L29.1826 291.002V279.322L22.6118 282.043V293.725Z" fill="#747BB3"/>
<path d="M11.1748 532.171L17.7468 529.452V517.771L11.1748 520.492V532.171Z" fill="#747BB3"/>
<path d="M11.1748 485.425L17.7468 482.703V471.022L11.1748 473.746V485.425Z" fill="#747BB3"/>
<path d="M11.1748 462.051L17.7468 459.329V447.648L11.1748 450.37V462.051Z" fill="#747BB3"/>
<path d="M11.1748 438.679L17.7468 435.954V424.274L11.1748 426.996V438.679Z" fill="#747BB3"/>
<path d="M11.1748 415.305L17.7468 412.581V400.9L11.1748 403.623V415.305Z" fill="#747BB3"/>
<path d="M33.5955 382.279L40.1663 379.557V367.874L33.5955 370.596V382.279Z" fill="#747BB3"/>
<path d="M11.1748 391.929L17.7468 389.207V377.525L11.1748 380.247V391.929Z" fill="#747BB3"/>
<path d="M22.6118 339.58L29.1826 336.858V325.176L22.6118 327.899V339.58Z" fill="#747BB3"/>
<path d="M11.1748 321.808L17.7468 319.084V307.404L11.1748 310.126V321.808Z" fill="#747BB3"/>
<path d="M33.5955 312.838L40.1663 310.116V298.433L33.5955 301.156V312.838Z" fill="#747BB3"/>
<path d="M11.1748 275.059L17.7468 272.336V260.655L11.1748 263.378V275.059Z" fill="#747BB3"/>
<path d="M0.253906 537.223L6.82351 534.498V522.819L0.253906 525.539V537.223Z" fill="#747BB3"/>
<path d="M0.253906 513.848L6.82351 511.126V499.443L0.253906 502.168V513.848Z" fill="#747BB3"/>
<path d="M0.253906 490.474L6.82351 487.75V476.071L0.253906 478.791V490.474Z" fill="#747BB3"/>
<path d="M0.253906 396.978L6.82351 394.256V382.574L0.253906 385.296V396.978Z" fill="#747BB3"/>
<path d="M0.253906 373.605L6.82351 370.881V359.2L0.253906 361.922V373.605Z" fill="#747BB3"/>
<path d="M0.253906 350.23L6.82351 347.507V335.827L0.253906 338.548V350.23Z" fill="#747BB3"/>
<path d="M0.253906 326.856L6.82351 324.133V312.452L0.253906 315.176V326.856Z" fill="#747BB3"/>
<path d="M7.89014 573.756L14.461 571.034V559.353L7.89014 562.077V573.756Z" fill="#747BB3"/>
<path d="M92.4604 590.789L85.8884 588.065V576.384L92.4604 579.108V590.789Z" fill="#747BB3"/>
<path d="M73.3264 636.338L66.7544 633.614V621.931L73.3264 624.656V636.338Z" fill="#747BB3"/>
<path d="M92.4604 650.739L85.8884 648.017V636.336L92.4604 639.06V650.739Z" fill="#747BB3"/>
<path d="M109.954 639.897L103.383 637.175V625.493L109.954 628.218V639.897Z" fill="#747BB3"/>
<path d="M14.4614 600.408L21.0322 597.683V586.003L14.4614 588.725V600.408Z" fill="#747BB3"/>
<path d="M25.8965 650.739L32.4685 648.017V636.336L25.8965 639.06V650.739Z" fill="#747BB3"/>
</g>
</svg>
