<svg width="917" height="855" viewBox="0 0 917 855" fill="none" xmlns="http://www.w3.org/2000/svg">
<path d="M296.433 701.534C229.993 686.287 179.812 632.831 146.157 561.641C112.505 490.456 95.414 401.614 95.1215 315.759C94.829 229.899 111.337 147.086 144.823 87.9447C178.299 28.8221 228.698 -6.59217 296.257 2.12153C354 9.56918 388.007 46.5733 422.009 83.5721L422.774 84.4043C457.005 121.649 491.411 158.661 550.186 164.631C581.344 167.795 608.238 158.454 632.813 143.49C654.776 130.116 674.915 112.232 694.599 94.7535C696.927 92.6863 699.248 90.6248 701.565 88.577C723.5 69.1956 745.06 51.0545 768.24 40.892C791.388 30.7436 816.149 28.5529 844.522 41.0963C885.629 59.2696 917.494 84.2153 939.439 115.824C961.382 147.432 973.425 185.732 974.843 230.646C975.663 256.602 963.91 276.735 946.282 293.901C929.691 310.056 907.938 323.545 886.631 336.756C885.278 337.595 883.927 338.433 882.579 339.27C860.035 353.273 838.382 367.144 824.548 383.713C817.622 392.007 812.641 400.993 810.489 411.029C808.336 421.068 809.021 432.122 813.378 444.536C820.249 464.112 834.397 475.357 851.884 482.484C868.68 489.329 888.604 492.395 908.179 495.406C908.957 495.526 909.735 495.646 910.512 495.766C930.866 498.904 950.684 502.145 966.233 509.646C981.743 517.128 992.98 528.835 996.223 548.946C1001.91 584.233 989.006 609.494 968.374 632.401C958.05 643.864 945.8 654.726 932.98 665.957C932.21 666.632 931.438 667.308 930.664 667.986C918.561 678.581 906.032 689.549 894.238 701.673C884.508 711.675 875.364 721.618 866.504 731.254C848.207 751.152 831.115 769.74 812.541 784.832C785.015 807.2 754.297 821.829 711.734 821.479C666 821.103 641.398 791.815 617.074 759.345C615.485 757.224 613.897 755.089 612.305 752.948C589.557 722.364 565.868 690.514 524.246 679.004C481.011 667.046 445.715 677.728 410.431 688.839C409.809 689.035 409.187 689.231 408.565 689.427C373.885 700.354 339.083 711.321 296.433 701.534Z" stroke="#9BA1D1"/>
<path d="M202.252 33.766C319.014 48.826 339.04 184.378 456.167 196.274C580.236 208.875 636.596 22.3546 750.654 72.7793C833.005 109.186 878.432 172.776 881.273 262.771C884.575 367.336 685.135 377.797 719.78 476.511C747.019 554.121 889.554 499.804 902.647 581.007C914.091 651.977 850.654 682.635 800.527 734.162C740.971 795.38 703.065 854.822 617.66 854.119C525.658 853.363 518.72 736.15 430.043 711.626C343.885 687.798 289.379 754.156 202.252 734.162C-64.3403 672.983 -69.0229 -1.22273 202.252 33.766Z" fill="#2F2E59"/>
<g opacity="0.7">
<g clip-path="url(#clip0_152_7883)">
<path d="M774.733 682.716C774.733 682.716 773.387 683.398 770.225 683.739C767.064 684.08 765.572 683.739 765.572 683.739L765.559 684.359" fill="#EDD253"/>
<path d="M765.572 684.087C765.493 687.941 764.849 691.998 762.931 695.314C762.759 695.593 762.452 696.141 762.19 696.127C761.86 695.958 761.953 695.163 761.922 694.774C761.887 691.085 761.736 687.397 761.343 683.732L761.219 683.705C756.473 683.436 750.078 682.579 745.859 678.873C745.773 678.783 745.87 678.797 746.217 678.835C747.347 678.959 750.822 679.324 752.943 679.31C755.134 679.307 758.926 678.907 760.176 678.78L760.238 678.632C758.994 674.868 757.334 671.258 755.571 667.711" fill="#EDD253"/>
<path d="M776.159 674.131C776.159 674.131 778.528 674.544 777.343 678.549C776.159 682.555 774.668 682.716 774.668 682.716L765.558 684.359V684.087L765.562 683.956L765.641 677.444C765.696 674.003 765.469 670.404 763.788 667.322H763.754C763.754 667.322 761.691 664.994 757.737 664.994C753.783 664.994 755.581 667.759 755.581 667.759L755.698 667.873L765.572 677.437L765.696 677.557C767.115 677.757 768.84 676.724 770.135 676.238C772.126 675.491 774.086 674.644 776.155 674.131" fill="#EDD253"/>
<path d="M755.637 667.801L765.61 684.242L765.7 677.554" fill="#EDD253"/>
</g>
<g clip-path="url(#clip1_152_7883)">
<path d="M742.883 682.716C742.883 682.716 741.537 683.398 738.375 683.739C735.214 684.08 733.722 683.739 733.722 683.739L733.708 684.359" fill="#EDD253"/>
<path d="M733.722 684.087C733.643 687.941 732.999 691.998 731.081 695.314C730.909 695.593 730.602 696.141 730.34 696.127C730.01 695.958 730.103 695.163 730.072 694.774C730.037 691.085 729.886 687.397 729.493 683.732L729.369 683.705C724.623 683.436 718.228 682.579 714.009 678.873C713.923 678.783 714.019 678.797 714.367 678.835C715.497 678.959 718.972 679.324 721.093 679.31C723.284 679.307 727.075 678.907 728.326 678.78L728.388 678.632C727.144 674.868 725.484 671.258 723.721 667.711" fill="#EDD253"/>
<path d="M744.309 674.131C744.309 674.131 746.678 674.544 745.493 678.549C744.309 682.555 742.817 682.716 742.817 682.716L733.708 684.359V684.087L733.712 683.956L733.791 677.444C733.846 674.003 733.619 670.404 731.938 667.322H731.904C731.904 667.322 729.841 664.994 725.887 664.994C721.933 664.994 723.731 667.759 723.731 667.759L723.848 667.873L733.722 677.437L733.846 677.557C735.265 677.757 736.99 676.724 738.285 676.238C740.276 675.491 742.235 674.644 744.305 674.131" fill="#EDD253"/>
<path d="M723.787 667.801L733.76 684.242L733.85 677.554" fill="#EDD253"/>
</g>
<g clip-path="url(#clip2_152_7883)">
<path d="M742.883 651.583C742.883 651.583 741.537 652.265 738.375 652.606C735.214 652.947 733.722 652.606 733.722 652.606L733.708 653.226" fill="#EDD253"/>
<path d="M733.722 652.954C733.643 656.808 732.999 660.865 731.081 664.181C730.909 664.46 730.602 665.008 730.34 664.994C730.01 664.825 730.103 664.03 730.072 663.64C730.037 659.952 729.886 656.263 729.493 652.599L729.369 652.571C724.623 652.303 718.228 651.445 714.009 647.74C713.923 647.65 714.019 647.664 714.367 647.702C715.497 647.826 718.972 648.191 721.093 648.177C723.284 648.174 727.075 647.774 728.326 647.647L728.388 647.499C727.144 643.734 725.484 640.125 723.721 636.578" fill="#EDD253"/>
<path d="M744.309 642.997C744.309 642.997 746.678 643.411 745.493 647.416C744.309 651.421 742.817 651.583 742.817 651.583L733.708 653.226V652.954L733.712 652.823L733.791 646.31C733.846 642.87 733.619 639.271 731.938 636.189H731.904C731.904 636.189 729.841 633.86 725.887 633.86C721.933 633.86 723.731 636.626 723.731 636.626L723.848 636.74L733.722 646.303L733.846 646.424C735.265 646.624 736.99 645.591 738.285 645.105C740.276 644.358 742.235 643.51 744.305 642.997" fill="#EDD253"/>
<path d="M723.787 636.667L733.76 653.109L733.85 646.421" fill="#EDD253"/>
</g>
<g clip-path="url(#clip3_152_7883)">
<path d="M774.733 651.583C774.733 651.583 773.387 652.265 770.225 652.606C767.064 652.947 765.572 652.606 765.572 652.606L765.559 653.226" fill="#EDD253"/>
<path d="M765.572 652.954C765.493 656.808 764.849 660.865 762.931 664.181C762.759 664.46 762.452 665.008 762.19 664.994C761.86 664.825 761.953 664.03 761.922 663.64C761.887 659.952 761.736 656.263 761.343 652.599L761.219 652.571C756.473 652.303 750.078 651.445 745.859 647.74C745.773 647.65 745.87 647.664 746.217 647.702C747.347 647.826 750.822 648.191 752.943 648.177C755.134 648.174 758.926 647.774 760.176 647.647L760.238 647.499C758.994 643.734 757.334 640.125 755.571 636.578" fill="#EDD253"/>
<path d="M776.159 642.997C776.159 642.997 778.528 643.411 777.343 647.416C776.159 651.421 774.668 651.583 774.668 651.583L765.558 653.226V652.954L765.562 652.823L765.641 646.31C765.696 642.87 765.469 639.271 763.788 636.189H763.754C763.754 636.189 761.691 633.86 757.737 633.86C753.783 633.86 755.581 636.626 755.581 636.626L755.698 636.74L765.572 646.303L765.696 646.424C767.115 646.624 768.84 645.591 770.135 645.105C772.126 644.358 774.086 643.51 776.155 642.997" fill="#EDD253"/>
<path d="M755.637 636.667L765.61 653.109L765.7 646.421" fill="#EDD253"/>
</g>
</g>
<g opacity="0.7">
<g clip-path="url(#clip4_152_7883)">
<path d="M711.034 682.716C711.034 682.716 709.687 683.398 706.525 683.739C703.364 684.08 701.873 683.739 701.873 683.739L701.859 684.359" fill="#EDD253"/>
<path d="M701.873 684.087C701.793 687.941 701.149 691.998 699.231 695.314C699.059 695.593 698.752 696.141 698.491 696.127C698.16 695.958 698.253 695.163 698.222 694.774C698.188 691.085 698.036 687.397 697.644 683.732L697.52 683.705C692.774 683.436 686.378 682.579 682.159 678.873C682.073 678.783 682.17 678.797 682.518 678.835C683.647 678.959 687.122 679.324 689.244 679.31C691.434 679.307 695.226 678.907 696.476 678.78L696.538 678.632C695.295 674.868 693.635 671.258 691.871 667.711" fill="#EDD253"/>
<path d="M712.459 674.131C712.459 674.131 714.829 674.544 713.644 678.549C712.459 682.555 710.968 682.716 710.968 682.716L701.859 684.359V684.087L701.862 683.956L701.941 677.444C701.996 674.003 701.769 670.404 700.088 667.322H700.054C700.054 667.322 697.991 664.994 694.037 664.994C690.084 664.994 691.881 667.759 691.881 667.759L691.999 667.873L701.872 677.437L701.996 677.557C703.415 677.757 705.141 676.724 706.436 676.238C708.426 675.491 710.386 674.644 712.456 674.131" fill="#EDD253"/>
<path d="M691.937 667.801L701.911 684.242L702 677.554" fill="#EDD253"/>
</g>
<g clip-path="url(#clip5_152_7883)">
<path d="M679.184 682.716C679.184 682.716 677.837 683.398 674.676 683.739C671.514 684.08 670.023 683.739 670.023 683.739L670.009 684.359" fill="#EDD253"/>
<path d="M670.023 684.087C669.944 687.941 669.3 691.998 667.382 695.314C667.209 695.593 666.903 696.141 666.641 696.127C666.31 695.958 666.403 695.163 666.372 694.774C666.338 691.085 666.187 687.397 665.794 683.732L665.67 683.705C660.924 683.436 654.529 682.579 650.31 678.873C650.224 678.783 650.32 678.797 650.668 678.835C651.798 678.959 655.273 679.324 657.394 679.31C659.584 679.307 663.376 678.907 664.626 678.78L664.688 678.632C663.445 674.868 661.785 671.258 660.022 667.711" fill="#EDD253"/>
<path d="M680.609 674.131C680.609 674.131 682.979 674.544 681.794 678.549C680.609 682.555 679.118 682.716 679.118 682.716L670.009 684.359V684.087L670.012 683.956L670.092 677.444C670.147 674.003 669.919 670.404 668.239 667.322H668.204C668.204 667.322 666.141 664.994 662.188 664.994C658.234 664.994 660.032 667.759 660.032 667.759L660.149 667.873L670.023 677.437L670.147 677.557C671.566 677.757 673.291 676.724 674.586 676.238C676.577 675.491 678.536 674.644 680.606 674.131" fill="#EDD253"/>
<path d="M660.087 667.801L670.061 684.242L670.151 677.554" fill="#EDD253"/>
</g>
<g clip-path="url(#clip6_152_7883)">
<path d="M679.184 651.583C679.184 651.583 677.837 652.265 674.676 652.606C671.514 652.947 670.023 652.606 670.023 652.606L670.009 653.226" fill="#EDD253"/>
<path d="M670.023 652.954C669.944 656.808 669.3 660.865 667.382 664.181C667.209 664.46 666.903 665.008 666.641 664.994C666.31 664.825 666.403 664.03 666.372 663.64C666.338 659.952 666.187 656.263 665.794 652.599L665.67 652.571C660.924 652.303 654.529 651.445 650.31 647.74C650.224 647.65 650.32 647.664 650.668 647.702C651.798 647.826 655.273 648.191 657.394 648.177C659.584 648.174 663.376 647.774 664.626 647.647L664.688 647.499C663.445 643.734 661.785 640.125 660.022 636.578" fill="#EDD253"/>
<path d="M680.609 642.997C680.609 642.997 682.979 643.411 681.794 647.416C680.609 651.421 679.118 651.583 679.118 651.583L670.009 653.226V652.954L670.012 652.823L670.092 646.31C670.147 642.87 669.919 639.271 668.239 636.189H668.204C668.204 636.189 666.141 633.86 662.188 633.86C658.234 633.86 660.032 636.626 660.032 636.626L660.149 636.74L670.023 646.303L670.147 646.424C671.566 646.624 673.291 645.591 674.586 645.105C676.577 644.358 678.536 643.51 680.606 642.997" fill="#EDD253"/>
<path d="M660.087 636.667L670.061 653.109L670.151 646.421" fill="#EDD253"/>
</g>
<g clip-path="url(#clip7_152_7883)">
<path d="M711.034 651.583C711.034 651.583 709.687 652.265 706.525 652.606C703.364 652.947 701.873 652.606 701.873 652.606L701.859 653.226" fill="#EDD253"/>
<path d="M701.873 652.954C701.793 656.808 701.149 660.865 699.231 664.181C699.059 664.46 698.752 665.008 698.491 664.994C698.16 664.825 698.253 664.03 698.222 663.64C698.188 659.952 698.036 656.263 697.644 652.599L697.52 652.571C692.774 652.303 686.378 651.445 682.159 647.74C682.073 647.65 682.17 647.664 682.518 647.702C683.647 647.826 687.122 648.191 689.244 648.177C691.434 648.174 695.226 647.774 696.476 647.647L696.538 647.499C695.295 643.734 693.635 640.125 691.871 636.578" fill="#EDD253"/>
<path d="M712.459 642.997C712.459 642.997 714.829 643.411 713.644 647.416C712.459 651.421 710.968 651.583 710.968 651.583L701.859 653.226V652.954L701.862 652.823L701.941 646.31C701.996 642.87 701.769 639.271 700.088 636.189H700.054C700.054 636.189 697.991 633.86 694.037 633.86C690.084 633.86 691.881 636.626 691.881 636.626L691.999 636.74L701.872 646.303L701.996 646.424C703.415 646.624 705.141 645.591 706.436 645.105C708.426 644.358 710.386 643.51 712.456 642.997" fill="#EDD253"/>
<path d="M691.937 636.667L701.911 653.109L702 646.421" fill="#EDD253"/>
</g>
</g>
<g opacity="0.7">
<g clip-path="url(#clip8_152_7883)">
<path d="M711.036 620.45C711.036 620.45 709.689 621.132 706.527 621.473C703.366 621.814 701.875 621.473 701.875 621.473L701.861 622.092" fill="#EDD253"/>
<path d="M701.875 621.82C701.795 625.674 701.151 629.731 699.233 633.048C699.061 633.327 698.754 633.874 698.493 633.86C698.162 633.692 698.255 632.896 698.224 632.507C698.19 628.819 698.038 625.13 697.645 621.466L697.521 621.438C692.776 621.169 686.38 620.312 682.161 616.606C682.075 616.517 682.172 616.53 682.52 616.568C683.649 616.692 687.124 617.057 689.246 617.044C691.436 617.04 695.228 616.641 696.478 616.513L696.54 616.365C695.297 612.601 693.637 608.992 691.873 605.444" fill="#EDD253"/>
<path d="M712.461 611.864C712.461 611.864 714.83 612.277 713.646 616.283C712.461 620.288 710.97 620.45 710.97 620.45L701.861 622.092V621.82L701.864 621.69L701.943 615.177C701.998 611.736 701.771 608.138 700.09 605.055H700.056C700.056 605.055 697.993 602.727 694.039 602.727C690.086 602.727 691.883 605.493 691.883 605.493L692 605.606L701.874 615.17L701.998 615.291C703.417 615.49 705.143 614.457 706.438 613.972C708.428 613.224 710.388 612.377 712.458 611.864" fill="#EDD253"/>
<path d="M691.939 605.534L701.913 621.975L702.002 615.287" fill="#EDD253"/>
</g>
<g clip-path="url(#clip9_152_7883)">
<path d="M679.186 620.45C679.186 620.45 677.839 621.132 674.678 621.473C671.516 621.814 670.025 621.473 670.025 621.473L670.011 622.092" fill="#EDD253"/>
<path d="M670.025 621.82C669.946 625.674 669.302 629.731 667.384 633.048C667.211 633.327 666.905 633.874 666.643 633.86C666.312 633.692 666.405 632.896 666.374 632.507C666.34 628.819 666.188 625.13 665.796 621.466L665.672 621.438C660.926 621.169 654.531 620.312 650.312 616.606C650.226 616.517 650.322 616.53 650.67 616.568C651.8 616.692 655.275 617.057 657.396 617.044C659.586 617.04 663.378 616.641 664.628 616.513L664.69 616.365C663.447 612.601 661.787 608.992 660.024 605.444" fill="#EDD253"/>
<path d="M680.611 611.864C680.611 611.864 682.981 612.277 681.796 616.283C680.611 620.288 679.12 620.45 679.12 620.45L670.011 622.092V621.82L670.014 621.69L670.094 615.177C670.149 611.736 669.921 608.138 668.241 605.055H668.206C668.206 605.055 666.143 602.727 662.19 602.727C658.236 602.727 660.034 605.493 660.034 605.493L660.151 605.606L670.025 615.17L670.149 615.291C671.568 615.49 673.293 614.457 674.588 613.972C676.579 613.224 678.538 612.377 680.608 611.864" fill="#EDD253"/>
<path d="M660.089 605.534L670.063 621.975L670.153 615.287" fill="#EDD253"/>
</g>
<g clip-path="url(#clip10_152_7883)">
<path d="M679.186 589.316C679.186 589.316 677.839 589.998 674.678 590.339C671.516 590.68 670.025 590.339 670.025 590.339L670.011 590.959" fill="#EDD253"/>
<path d="M670.025 590.687C669.946 594.541 669.302 598.598 667.384 601.914C667.211 602.193 666.905 602.741 666.643 602.727C666.312 602.558 666.405 601.763 666.374 601.374C666.34 597.685 666.188 593.997 665.796 590.332L665.672 590.305C660.926 590.036 654.531 589.179 650.312 585.473C650.226 585.383 650.322 585.397 650.67 585.435C651.8 585.559 655.275 585.924 657.396 585.91C659.586 585.907 663.378 585.507 664.628 585.38L664.69 585.232C663.447 581.468 661.787 577.858 660.024 574.311" fill="#EDD253"/>
<path d="M680.611 580.731C680.611 580.731 682.981 581.144 681.796 585.149C680.611 589.154 679.12 589.316 679.12 589.316L670.011 590.959V590.687L670.014 590.556L670.094 584.044C670.149 580.603 669.921 577.004 668.241 573.922H668.206C668.206 573.922 666.143 571.594 662.19 571.594C658.236 571.594 660.034 574.359 660.034 574.359L660.151 574.473L670.025 584.037L670.149 584.157C671.568 584.357 673.293 583.324 674.588 582.838C676.579 582.091 678.538 581.244 680.608 580.731" fill="#EDD253"/>
<path d="M660.089 574.401L670.063 590.842L670.153 584.154" fill="#EDD253"/>
</g>
<g clip-path="url(#clip11_152_7883)">
<path d="M711.036 589.316C711.036 589.316 709.689 589.998 706.527 590.339C703.366 590.68 701.875 590.339 701.875 590.339L701.861 590.959" fill="#EDD253"/>
<path d="M701.875 590.687C701.795 594.541 701.151 598.598 699.233 601.914C699.061 602.193 698.754 602.741 698.493 602.727C698.162 602.558 698.255 601.763 698.224 601.374C698.19 597.685 698.038 593.997 697.645 590.332L697.521 590.305C692.776 590.036 686.38 589.179 682.161 585.473C682.075 585.383 682.172 585.397 682.52 585.435C683.649 585.559 687.124 585.924 689.246 585.91C691.436 585.907 695.228 585.507 696.478 585.38L696.54 585.232C695.297 581.468 693.637 577.858 691.873 574.311" fill="#EDD253"/>
<path d="M712.461 580.731C712.461 580.731 714.83 581.144 713.646 585.149C712.461 589.154 710.97 589.316 710.97 589.316L701.861 590.959V590.687L701.864 590.556L701.943 584.044C701.998 580.603 701.771 577.004 700.09 573.922H700.056C700.056 573.922 697.993 571.594 694.039 571.594C690.086 571.594 691.883 574.359 691.883 574.359L692 574.473L701.874 584.037L701.998 584.157C703.417 584.357 705.143 583.324 706.438 582.838C708.428 582.091 710.388 581.244 712.458 580.731" fill="#EDD253"/>
<path d="M691.939 574.401L701.913 590.842L702.002 584.154" fill="#EDD253"/>
</g>
</g>
<g opacity="0.7">
<g clip-path="url(#clip12_152_7883)">
<path d="M774.735 620.45C774.735 620.45 773.388 621.132 770.227 621.473C767.065 621.814 765.574 621.473 765.574 621.473L765.56 622.092" fill="#EDD253"/>
<path d="M765.574 621.82C765.495 625.674 764.851 629.731 762.932 633.048C762.76 633.327 762.454 633.874 762.192 633.86C761.861 633.692 761.954 632.896 761.923 632.507C761.889 628.819 761.737 625.13 761.345 621.466L761.221 621.438C756.475 621.169 750.08 620.312 745.861 616.606C745.775 616.517 745.871 616.53 746.219 616.568C747.348 616.692 750.823 617.057 752.945 617.044C755.135 617.04 758.927 616.641 760.177 616.513L760.239 616.365C758.996 612.601 757.336 608.992 755.573 605.444" fill="#EDD253"/>
<path d="M776.16 611.864C776.16 611.864 778.53 612.277 777.345 616.283C776.16 620.288 774.669 620.45 774.669 620.45L765.56 622.092V621.82L765.563 621.69L765.642 615.177C765.698 611.737 765.47 608.138 763.79 605.055H763.755C763.755 605.055 761.692 602.727 757.739 602.727C753.785 602.727 755.583 605.493 755.583 605.493L755.7 605.606L765.574 615.17L765.698 615.291C767.116 615.49 768.842 614.457 770.137 613.972C772.127 613.224 774.087 612.377 776.157 611.864" fill="#EDD253"/>
<path d="M755.638 605.534L765.612 621.975L765.701 615.287" fill="#EDD253"/>
</g>
<g clip-path="url(#clip13_152_7883)">
<path d="M742.885 620.45C742.885 620.45 741.539 621.132 738.377 621.473C735.215 621.814 733.724 621.473 733.724 621.473L733.71 622.092" fill="#EDD253"/>
<path d="M733.724 621.82C733.645 625.674 733.001 629.731 731.083 633.048C730.911 633.327 730.604 633.874 730.342 633.86C730.012 633.692 730.105 632.896 730.074 632.507C730.039 628.819 729.888 625.13 729.495 621.466L729.371 621.438C724.625 621.169 718.23 620.312 714.011 616.606C713.925 616.517 714.021 616.53 714.369 616.568C715.499 616.692 718.974 617.057 721.095 617.044C723.286 617.04 727.077 616.641 728.328 616.513L728.39 616.365C727.146 612.601 725.486 608.992 723.723 605.444" fill="#EDD253"/>
<path d="M744.311 611.864C744.311 611.864 746.68 612.277 745.495 616.283C744.311 620.288 742.819 620.45 742.819 620.45L733.71 622.092V621.82L733.714 621.69L733.793 615.177C733.848 611.737 733.621 608.138 731.94 605.055H731.906C731.906 605.055 729.843 602.727 725.889 602.727C721.935 602.727 723.733 605.493 723.733 605.493L723.85 605.606L733.724 615.17L733.848 615.291C735.267 615.49 736.992 614.457 738.287 613.972C740.278 613.224 742.237 612.377 744.307 611.864" fill="#EDD253"/>
<path d="M723.789 605.534L733.762 621.975L733.852 615.287" fill="#EDD253"/>
</g>
<g clip-path="url(#clip14_152_7883)">
<path d="M742.885 589.316C742.885 589.316 741.539 589.998 738.377 590.339C735.215 590.68 733.724 590.339 733.724 590.339L733.71 590.959" fill="#EDD253"/>
<path d="M733.724 590.687C733.645 594.541 733.001 598.598 731.083 601.914C730.911 602.193 730.604 602.741 730.342 602.727C730.012 602.558 730.105 601.763 730.074 601.374C730.039 597.685 729.888 593.997 729.495 590.332L729.371 590.305C724.625 590.036 718.23 589.179 714.011 585.473C713.925 585.383 714.021 585.397 714.369 585.435C715.499 585.559 718.974 585.924 721.095 585.91C723.286 585.907 727.077 585.507 728.328 585.38L728.39 585.232C727.146 581.468 725.486 577.858 723.723 574.311" fill="#EDD253"/>
<path d="M744.311 580.731C744.311 580.731 746.68 581.144 745.495 585.149C744.311 589.154 742.819 589.316 742.819 589.316L733.71 590.959V590.687L733.714 590.556L733.793 584.044C733.848 580.603 733.621 577.004 731.94 573.922H731.906C731.906 573.922 729.843 571.594 725.889 571.594C721.935 571.594 723.733 574.359 723.733 574.359L723.85 574.473L733.724 584.037L733.848 584.157C735.267 584.357 736.992 583.324 738.287 582.838C740.278 582.091 742.237 581.244 744.307 580.731" fill="#EDD253"/>
<path d="M723.789 574.401L733.762 590.842L733.852 584.154" fill="#EDD253"/>
</g>
<g clip-path="url(#clip15_152_7883)">
<path d="M774.735 589.316C774.735 589.316 773.388 589.998 770.227 590.339C767.065 590.68 765.574 590.339 765.574 590.339L765.56 590.959" fill="#EDD253"/>
<path d="M765.574 590.687C765.495 594.541 764.851 598.598 762.932 601.914C762.76 602.193 762.454 602.741 762.192 602.727C761.861 602.558 761.954 601.763 761.923 601.374C761.889 597.685 761.737 593.997 761.345 590.332L761.221 590.305C756.475 590.036 750.08 589.179 745.861 585.473C745.775 585.383 745.871 585.397 746.219 585.435C747.348 585.559 750.823 585.924 752.945 585.91C755.135 585.907 758.927 585.507 760.177 585.38L760.239 585.232C758.996 581.468 757.336 577.858 755.573 574.311" fill="#EDD253"/>
<path d="M776.16 580.731C776.16 580.731 778.53 581.144 777.345 585.149C776.16 589.154 774.669 589.316 774.669 589.316L765.56 590.959V590.687L765.563 590.556L765.642 584.044C765.698 580.603 765.47 577.004 763.79 573.922H763.755C763.755 573.922 761.692 571.594 757.739 571.594C753.785 571.594 755.583 574.359 755.583 574.359L755.7 574.473L765.574 584.037L765.698 584.157C767.116 584.357 768.842 583.324 770.137 582.838C772.127 582.091 774.087 581.244 776.157 580.731" fill="#EDD253"/>
<path d="M755.638 574.401L765.612 590.842L765.701 584.154" fill="#EDD253"/>
</g>
</g>
<g opacity="0.7">
<g clip-path="url(#clip16_152_7883)">
<path d="M774.737 270.716C774.737 270.716 773.39 271.398 770.229 271.739C767.067 272.08 765.576 271.739 765.576 271.739L765.562 272.359" fill="#EDD253"/>
<path d="M765.576 272.087C765.497 275.941 764.853 279.998 762.934 283.314C762.762 283.593 762.456 284.141 762.194 284.127C761.863 283.958 761.956 283.163 761.925 282.774C761.891 279.085 761.739 275.397 761.347 271.732L761.223 271.705C756.477 271.436 750.081 270.579 745.863 266.873C745.777 266.783 745.873 266.797 746.221 266.835C747.35 266.959 750.825 267.324 752.947 267.31C755.137 267.307 758.929 266.907 760.179 266.78L760.241 266.632C758.998 262.868 757.338 259.258 755.575 255.711" fill="#EDD253"/>
<path d="M776.162 262.131C776.162 262.131 778.532 262.544 777.347 266.549C776.162 270.555 774.671 270.716 774.671 270.716L765.562 272.359V272.087L765.565 271.956L765.644 265.444C765.699 262.003 765.472 258.404 763.792 255.322H763.757C763.757 255.322 761.694 252.994 757.74 252.994C753.787 252.994 755.585 255.759 755.585 255.759L755.702 255.873L765.575 265.437L765.699 265.557C767.118 265.757 768.844 264.724 770.139 264.238C772.129 263.491 774.089 262.644 776.159 262.131" fill="#EDD253"/>
<path d="M755.64 255.801L765.614 272.242L765.703 265.554" fill="#EDD253"/>
</g>
<g clip-path="url(#clip17_152_7883)">
<path d="M742.887 270.716C742.887 270.716 741.54 271.398 738.378 271.739C735.217 272.08 733.726 271.739 733.726 271.739L733.712 272.359" fill="#EDD253"/>
<path d="M733.726 272.087C733.647 275.941 733.002 279.998 731.084 283.314C730.912 283.593 730.605 284.141 730.344 284.127C730.013 283.958 730.106 283.163 730.075 282.774C730.041 279.085 729.889 275.397 729.497 271.732L729.373 271.705C724.627 271.436 718.231 270.579 714.013 266.873C713.926 266.783 714.023 266.797 714.371 266.835C715.5 266.959 718.975 267.324 721.097 267.31C723.287 267.307 727.079 266.907 728.329 266.78L728.391 266.632C727.148 262.868 725.488 259.258 723.724 255.711" fill="#EDD253"/>
<path d="M744.312 262.131C744.312 262.131 746.682 262.544 745.497 266.549C744.312 270.555 742.821 270.716 742.821 270.716L733.712 272.359V272.087L733.715 271.956L733.794 265.444C733.849 262.003 733.622 258.404 731.941 255.322H731.907C731.907 255.322 729.844 252.994 725.89 252.994C721.937 252.994 723.734 255.759 723.734 255.759L723.852 255.873L733.725 265.437L733.849 265.557C735.268 265.757 736.994 264.724 738.289 264.238C740.279 263.491 742.239 262.644 744.309 262.131" fill="#EDD253"/>
<path d="M723.79 255.801L733.764 272.242L733.853 265.554" fill="#EDD253"/>
</g>
<g clip-path="url(#clip18_152_7883)">
<path d="M742.887 239.583C742.887 239.583 741.54 240.265 738.378 240.606C735.217 240.947 733.726 240.606 733.726 240.606L733.712 241.226" fill="#EDD253"/>
<path d="M733.726 240.954C733.647 244.808 733.002 248.865 731.084 252.181C730.912 252.46 730.605 253.008 730.344 252.994C730.013 252.825 730.106 252.03 730.075 251.64C730.041 247.952 729.889 244.263 729.497 240.599L729.373 240.571C724.627 240.303 718.231 239.445 714.013 235.74C713.926 235.65 714.023 235.664 714.371 235.702C715.5 235.826 718.975 236.191 721.097 236.177C723.287 236.174 727.079 235.774 728.329 235.647L728.391 235.499C727.148 231.734 725.488 228.125 723.724 224.578" fill="#EDD253"/>
<path d="M744.312 230.997C744.312 230.997 746.682 231.411 745.497 235.416C744.312 239.421 742.821 239.583 742.821 239.583L733.712 241.226V240.954L733.715 240.823L733.794 234.31C733.849 230.87 733.622 227.271 731.941 224.189H731.907C731.907 224.189 729.844 221.86 725.89 221.86C721.937 221.86 723.734 224.626 723.734 224.626L723.852 224.74L733.725 234.303L733.849 234.424C735.268 234.624 736.994 233.591 738.289 233.105C740.279 232.358 742.239 231.51 744.309 230.997" fill="#EDD253"/>
<path d="M723.79 224.667L733.764 241.109L733.853 234.421" fill="#EDD253"/>
</g>
<g clip-path="url(#clip19_152_7883)">
<path d="M774.737 239.583C774.737 239.583 773.39 240.265 770.229 240.606C767.067 240.947 765.576 240.606 765.576 240.606L765.562 241.226" fill="#EDD253"/>
<path d="M765.576 240.954C765.497 244.808 764.853 248.865 762.934 252.181C762.762 252.46 762.456 253.008 762.194 252.994C761.863 252.825 761.956 252.03 761.925 251.64C761.891 247.952 761.739 244.263 761.347 240.599L761.223 240.571C756.477 240.303 750.081 239.445 745.863 235.74C745.777 235.65 745.873 235.664 746.221 235.702C747.35 235.826 750.825 236.191 752.947 236.177C755.137 236.174 758.929 235.774 760.179 235.647L760.241 235.499C758.998 231.734 757.338 228.125 755.575 224.578" fill="#EDD253"/>
<path d="M776.162 230.997C776.162 230.997 778.532 231.411 777.347 235.416C776.162 239.421 774.671 239.583 774.671 239.583L765.562 241.226V240.954L765.565 240.823L765.644 234.31C765.699 230.87 765.472 227.271 763.792 224.189H763.757C763.757 224.189 761.694 221.86 757.74 221.86C753.787 221.86 755.585 224.626 755.585 224.626L755.702 224.74L765.575 234.303L765.699 234.424C767.118 234.624 768.844 233.591 770.139 233.105C772.129 232.358 774.089 231.51 776.159 230.997" fill="#EDD253"/>
<path d="M755.64 224.667L765.614 241.109L765.703 234.421" fill="#EDD253"/>
</g>
</g>
<g opacity="0.7">
<g clip-path="url(#clip20_152_7883)">
<path d="M711.037 270.716C711.037 270.716 709.69 271.398 706.529 271.739C703.367 272.08 701.876 271.739 701.876 271.739L701.862 272.359" fill="#EDD253"/>
<path d="M701.876 272.087C701.797 275.941 701.153 279.998 699.235 283.314C699.062 283.593 698.756 284.141 698.494 284.127C698.164 283.958 698.257 283.163 698.226 282.774C698.191 279.085 698.04 275.397 697.647 271.732L697.523 271.705C692.777 271.436 686.382 270.579 682.163 266.873C682.077 266.783 682.173 266.797 682.521 266.835C683.651 266.959 687.126 267.324 689.247 267.31C691.437 267.307 695.229 266.907 696.479 266.78L696.541 266.632C695.298 262.868 693.638 259.258 691.875 255.711" fill="#EDD253"/>
<path d="M712.462 262.131C712.462 262.131 714.832 262.544 713.647 266.549C712.462 270.555 710.971 270.716 710.971 270.716L701.862 272.359V272.087L701.865 271.956L701.945 265.444C702 262.003 701.772 258.404 700.092 255.322H700.057C700.057 255.322 697.994 252.994 694.041 252.994C690.087 252.994 691.885 255.759 691.885 255.759L692.002 255.873L701.876 265.437L702 265.557C703.419 265.757 705.144 264.724 706.439 264.238C708.43 263.491 710.389 262.644 712.459 262.131" fill="#EDD253"/>
<path d="M691.94 255.801L701.914 272.242L702.004 265.554" fill="#EDD253"/>
</g>
<g clip-path="url(#clip21_152_7883)">
<path d="M679.187 270.716C679.187 270.716 677.841 271.398 674.679 271.739C671.518 272.08 670.026 271.739 670.026 271.739L670.013 272.359" fill="#EDD253"/>
<path d="M670.027 272.087C669.947 275.941 669.303 279.998 667.385 283.314C667.213 283.593 666.906 284.141 666.645 284.127C666.314 283.958 666.407 283.163 666.376 282.774C666.341 279.085 666.19 275.397 665.797 271.732L665.673 271.705C660.928 271.436 654.532 270.579 650.313 266.873C650.227 266.783 650.324 266.797 650.671 266.835C651.801 266.959 655.276 267.324 657.398 267.31C659.588 267.307 663.38 266.907 664.63 266.78L664.692 266.632C663.449 262.868 661.789 259.258 660.025 255.711" fill="#EDD253"/>
<path d="M680.613 262.131C680.613 262.131 682.982 262.544 681.798 266.549C680.613 270.555 679.122 270.716 679.122 270.716L670.012 272.359V272.087L670.016 271.956L670.095 265.444C670.15 262.003 669.923 258.404 668.242 255.322H668.208C668.208 255.322 666.145 252.994 662.191 252.994C658.237 252.994 660.035 255.759 660.035 255.759L660.152 255.873L670.026 265.437L670.15 265.557C671.569 265.757 673.294 264.724 674.589 264.238C676.58 263.491 678.54 262.644 680.609 262.131" fill="#EDD253"/>
<path d="M660.091 255.801L670.065 272.242L670.154 265.554" fill="#EDD253"/>
</g>
<g clip-path="url(#clip22_152_7883)">
<path d="M679.187 239.583C679.187 239.583 677.841 240.265 674.679 240.606C671.518 240.947 670.026 240.606 670.026 240.606L670.013 241.226" fill="#EDD253"/>
<path d="M670.027 240.954C669.947 244.808 669.303 248.865 667.385 252.181C667.213 252.46 666.906 253.008 666.645 252.994C666.314 252.825 666.407 252.03 666.376 251.64C666.341 247.952 666.19 244.263 665.797 240.599L665.673 240.571C660.928 240.303 654.532 239.445 650.313 235.74C650.227 235.65 650.324 235.664 650.671 235.702C651.801 235.826 655.276 236.191 657.398 236.177C659.588 236.174 663.38 235.774 664.63 235.647L664.692 235.499C663.449 231.734 661.789 228.125 660.025 224.578" fill="#EDD253"/>
<path d="M680.613 230.997C680.613 230.997 682.982 231.411 681.798 235.416C680.613 239.421 679.122 239.583 679.122 239.583L670.012 241.226V240.954L670.016 240.823L670.095 234.31C670.15 230.87 669.923 227.271 668.242 224.189H668.208C668.208 224.189 666.145 221.86 662.191 221.86C658.237 221.86 660.035 224.626 660.035 224.626L660.152 224.74L670.026 234.303L670.15 234.424C671.569 234.624 673.294 233.591 674.589 233.105C676.58 232.358 678.54 231.51 680.609 230.997" fill="#EDD253"/>
<path d="M660.091 224.667L670.065 241.109L670.154 234.421" fill="#EDD253"/>
</g>
<g clip-path="url(#clip23_152_7883)">
<path d="M711.037 239.583C711.037 239.583 709.69 240.265 706.529 240.606C703.367 240.947 701.876 240.606 701.876 240.606L701.862 241.226" fill="#EDD253"/>
<path d="M701.876 240.954C701.797 244.808 701.153 248.865 699.235 252.181C699.062 252.46 698.756 253.008 698.494 252.994C698.164 252.825 698.257 252.03 698.226 251.64C698.191 247.952 698.04 244.263 697.647 240.599L697.523 240.571C692.777 240.303 686.382 239.445 682.163 235.74C682.077 235.65 682.173 235.664 682.521 235.702C683.651 235.826 687.126 236.191 689.247 236.177C691.437 236.174 695.229 235.774 696.479 235.647L696.541 235.499C695.298 231.734 693.638 228.125 691.875 224.578" fill="#EDD253"/>
<path d="M712.462 230.997C712.462 230.997 714.832 231.411 713.647 235.416C712.462 239.421 710.971 239.583 710.971 239.583L701.862 241.226V240.954L701.865 240.823L701.945 234.31C702 230.87 701.772 227.271 700.092 224.189H700.057C700.057 224.189 697.994 221.86 694.041 221.86C690.087 221.86 691.885 224.626 691.885 224.626L692.002 224.74L701.876 234.303L702 234.424C703.419 234.624 705.144 233.591 706.439 233.105C708.43 232.358 710.389 231.51 712.459 230.997" fill="#EDD253"/>
<path d="M691.94 224.667L701.914 241.109L702.004 234.421" fill="#EDD253"/>
</g>
</g>
<g opacity="0.7">
<g clip-path="url(#clip24_152_7883)">
<path d="M711.039 207.583C711.039 207.583 709.692 208.265 706.531 208.606C703.369 208.947 701.878 208.606 701.878 208.606L701.864 209.226" fill="#EDD253"/>
<path d="M701.878 208.954C701.799 212.808 701.155 216.865 699.237 220.181C699.064 220.46 698.758 221.008 698.496 220.994C698.165 220.825 698.258 220.03 698.227 219.64C698.193 215.952 698.041 212.263 697.649 208.599L697.525 208.572C692.779 208.303 686.384 207.445 682.165 203.74C682.079 203.65 682.175 203.664 682.523 203.702C683.653 203.826 687.128 204.191 689.249 204.177C691.439 204.174 695.231 203.774 696.481 203.647L696.543 203.499C695.3 199.734 693.64 196.125 691.877 192.578" fill="#EDD253"/>
<path d="M712.464 198.997C712.464 198.997 714.834 199.411 713.649 203.416C712.464 207.421 710.973 207.583 710.973 207.583L701.864 209.226V208.954L701.867 208.823L701.947 202.31C702.002 198.87 701.774 195.271 700.094 192.189H700.059C700.059 192.189 697.996 189.861 694.043 189.861C690.089 189.861 691.887 192.626 691.887 192.626L692.004 192.74L701.878 202.304L702.002 202.424C703.421 202.624 705.146 201.591 706.441 201.105C708.432 200.358 710.391 199.51 712.461 198.997" fill="#EDD253"/>
<path d="M691.942 192.667L701.916 209.109L702.006 202.421" fill="#EDD253"/>
</g>
<g clip-path="url(#clip25_152_7883)">
<path d="M679.189 207.583C679.189 207.583 677.843 208.265 674.681 208.606C671.52 208.947 670.028 208.606 670.028 208.606L670.015 209.226" fill="#EDD253"/>
<path d="M670.028 208.954C669.949 212.808 669.305 216.865 667.387 220.181C667.215 220.46 666.908 221.008 666.646 220.994C666.316 220.825 666.409 220.03 666.378 219.64C666.343 215.952 666.192 212.263 665.799 208.599L665.675 208.572C660.93 208.303 654.534 207.445 650.315 203.74C650.229 203.65 650.326 203.664 650.673 203.702C651.803 203.826 655.278 204.191 657.399 204.177C659.59 204.174 663.382 203.774 664.632 203.647L664.694 203.499C663.451 199.734 661.791 196.125 660.027 192.578" fill="#EDD253"/>
<path d="M680.615 198.997C680.615 198.997 682.984 199.411 681.8 203.416C680.615 207.421 679.124 207.583 679.124 207.583L670.014 209.226V208.954L670.018 208.823L670.097 202.31C670.152 198.87 669.925 195.271 668.244 192.189H668.21C668.21 192.189 666.147 189.861 662.193 189.861C658.239 189.861 660.037 192.626 660.037 192.626L660.154 192.74L670.028 202.304L670.152 202.424C671.571 202.624 673.296 201.591 674.591 201.105C676.582 200.358 678.542 199.51 680.611 198.997" fill="#EDD253"/>
<path d="M660.093 192.667L670.066 209.109L670.156 202.421" fill="#EDD253"/>
</g>
<g clip-path="url(#clip26_152_7883)">
<path d="M679.189 176.45C679.189 176.45 677.843 177.132 674.681 177.473C671.52 177.814 670.028 177.473 670.028 177.473L670.015 178.093" fill="#EDD253"/>
<path d="M670.028 177.82C669.949 181.674 669.305 185.731 667.387 189.048C667.215 189.327 666.908 189.874 666.646 189.861C666.316 189.692 666.409 188.896 666.378 188.507C666.343 184.819 666.192 181.13 665.799 177.466L665.675 177.438C660.93 177.17 654.534 176.312 650.315 172.606C650.229 172.517 650.326 172.531 650.673 172.568C651.803 172.692 655.278 173.057 657.399 173.044C659.59 173.04 663.382 172.641 664.632 172.513L664.694 172.365C663.451 168.601 661.791 164.992 660.027 161.444" fill="#EDD253"/>
<path d="M680.615 167.864C680.615 167.864 682.984 168.277 681.8 172.283C680.615 176.288 679.124 176.45 679.124 176.45L670.014 178.093V177.82L670.018 177.69L670.097 171.177C670.152 167.737 669.925 164.138 668.244 161.055H668.21C668.21 161.055 666.147 158.727 662.193 158.727C658.239 158.727 660.037 161.493 660.037 161.493L660.154 161.606L670.028 171.17L670.152 171.291C671.571 171.49 673.296 170.457 674.591 169.972C676.582 169.224 678.542 168.377 680.611 167.864" fill="#EDD253"/>
<path d="M660.093 161.534L670.066 177.975L670.156 171.287" fill="#EDD253"/>
</g>
<g clip-path="url(#clip27_152_7883)">
<path d="M711.039 176.45C711.039 176.45 709.692 177.132 706.531 177.473C703.369 177.814 701.878 177.473 701.878 177.473L701.864 178.093" fill="#EDD253"/>
<path d="M701.878 177.82C701.799 181.674 701.155 185.731 699.237 189.048C699.064 189.327 698.758 189.874 698.496 189.861C698.165 189.692 698.258 188.896 698.227 188.507C698.193 184.819 698.041 181.13 697.649 177.466L697.525 177.438C692.779 177.17 686.384 176.312 682.165 172.606C682.079 172.517 682.175 172.531 682.523 172.568C683.653 172.692 687.128 173.057 689.249 173.044C691.439 173.04 695.231 172.641 696.481 172.513L696.543 172.365C695.3 168.601 693.64 164.992 691.877 161.444" fill="#EDD253"/>
<path d="M712.464 167.864C712.464 167.864 714.834 168.277 713.649 172.283C712.464 176.288 710.973 176.45 710.973 176.45L701.864 178.093V177.82L701.867 177.69L701.947 171.177C702.002 167.737 701.774 164.138 700.094 161.055H700.059C700.059 161.055 697.996 158.727 694.043 158.727C690.089 158.727 691.887 161.493 691.887 161.493L692.004 161.606L701.878 171.17L702.002 171.291C703.421 171.49 705.146 170.457 706.441 169.972C708.432 169.224 710.391 168.377 712.461 167.864" fill="#EDD253"/>
<path d="M691.942 161.534L701.916 177.975L702.006 171.287" fill="#EDD253"/>
</g>
</g>
<g opacity="0.7">
<g clip-path="url(#clip28_152_7883)">
<path d="M774.738 208.45C774.738 208.45 773.392 209.132 770.23 209.473C767.068 209.814 765.577 209.473 765.577 209.473L765.563 210.092" fill="#EDD253"/>
<path d="M765.577 209.82C765.498 213.674 764.854 217.731 762.936 221.048C762.764 221.327 762.457 221.874 762.195 221.86C761.865 221.692 761.958 220.896 761.927 220.507C761.892 216.819 761.741 213.13 761.348 209.466L761.224 209.438C756.478 209.169 750.083 208.312 745.864 204.606C745.778 204.517 745.874 204.53 746.222 204.568C747.352 204.692 750.827 205.057 752.948 205.044C755.139 205.04 758.93 204.641 760.181 204.513L760.243 204.365C758.999 200.601 757.339 196.992 755.576 193.444" fill="#EDD253"/>
<path d="M776.164 199.864C776.164 199.864 778.533 200.277 777.348 204.283C776.164 208.288 774.672 208.45 774.672 208.45L765.563 210.092V209.82L765.567 209.69L765.646 203.177C765.701 199.736 765.474 196.138 763.793 193.055H763.759C763.759 193.055 761.696 190.727 757.742 190.727C753.788 190.727 755.586 193.493 755.586 193.493L755.703 193.606L765.577 203.17L765.701 203.291C767.12 203.49 768.845 202.457 770.14 201.972C772.131 201.224 774.09 200.377 776.16 199.864" fill="#EDD253"/>
<path d="M755.642 193.534L765.615 209.975L765.705 203.287" fill="#EDD253"/>
</g>
<g clip-path="url(#clip29_152_7883)">
<path d="M742.889 208.45C742.889 208.45 741.542 209.132 738.38 209.473C735.219 209.814 733.728 209.473 733.728 209.473L733.714 210.092" fill="#EDD253"/>
<path d="M733.728 209.82C733.648 213.674 733.004 217.731 731.086 221.048C730.914 221.327 730.607 221.874 730.346 221.86C730.015 221.692 730.108 220.896 730.077 220.507C730.043 216.819 729.891 213.13 729.498 209.466L729.375 209.438C724.629 209.169 718.233 208.312 714.014 204.606C713.928 204.517 714.025 204.53 714.373 204.568C715.502 204.692 718.977 205.057 721.099 205.044C723.289 205.04 727.081 204.641 728.331 204.513L728.393 204.365C727.15 200.601 725.49 196.992 723.726 193.444" fill="#EDD253"/>
<path d="M744.314 199.864C744.314 199.864 746.683 200.277 745.499 204.283C744.314 208.288 742.823 208.45 742.823 208.45L733.714 210.092V209.82L733.717 209.69L733.796 203.177C733.851 199.736 733.624 196.138 731.943 193.055H731.909C731.909 193.055 729.846 190.727 725.892 190.727C721.939 190.727 723.736 193.493 723.736 193.493L723.854 193.606L733.727 203.17L733.851 203.291C735.27 203.49 736.996 202.457 738.291 201.972C740.281 201.224 742.241 200.377 744.311 199.864" fill="#EDD253"/>
<path d="M723.792 193.534L733.766 209.975L733.855 203.287" fill="#EDD253"/>
</g>
<g clip-path="url(#clip30_152_7883)">
<path d="M742.889 177.316C742.889 177.316 741.542 177.998 738.38 178.339C735.219 178.68 733.728 178.339 733.728 178.339L733.714 178.959" fill="#EDD253"/>
<path d="M733.728 178.687C733.648 182.541 733.004 186.598 731.086 189.914C730.914 190.193 730.607 190.741 730.346 190.727C730.015 190.558 730.108 189.763 730.077 189.374C730.043 185.685 729.891 181.997 729.498 178.332L729.375 178.305C724.629 178.036 718.233 177.179 714.014 173.473C713.928 173.383 714.025 173.397 714.373 173.435C715.502 173.559 718.977 173.924 721.099 173.91C723.289 173.907 727.081 173.507 728.331 173.38L728.393 173.232C727.15 169.468 725.49 165.858 723.726 162.311" fill="#EDD253"/>
<path d="M744.314 168.731C744.314 168.731 746.683 169.144 745.499 173.149C744.314 177.154 742.823 177.316 742.823 177.316L733.714 178.959V178.687L733.717 178.556L733.796 172.044C733.851 168.603 733.624 165.004 731.943 161.922H731.909C731.909 161.922 729.846 159.594 725.892 159.594C721.939 159.594 723.736 162.359 723.736 162.359L723.854 162.473L733.727 172.037L733.851 172.157C735.27 172.357 736.996 171.324 738.291 170.838C740.281 170.091 742.241 169.244 744.311 168.731" fill="#EDD253"/>
<path d="M723.792 162.401L733.766 178.842L733.855 172.154" fill="#EDD253"/>
</g>
<g clip-path="url(#clip31_152_7883)">
<path d="M774.738 177.316C774.738 177.316 773.392 177.998 770.23 178.339C767.068 178.68 765.577 178.339 765.577 178.339L765.563 178.959" fill="#EDD253"/>
<path d="M765.577 178.687C765.498 182.541 764.854 186.598 762.936 189.914C762.764 190.193 762.457 190.741 762.195 190.727C761.865 190.558 761.958 189.763 761.927 189.374C761.892 185.685 761.741 181.997 761.348 178.332L761.224 178.305C756.478 178.036 750.083 177.179 745.864 173.473C745.778 173.383 745.874 173.397 746.222 173.435C747.352 173.559 750.827 173.924 752.948 173.91C755.139 173.907 758.93 173.507 760.181 173.38L760.243 173.232C758.999 169.468 757.339 165.858 755.576 162.311" fill="#EDD253"/>
<path d="M776.164 168.731C776.164 168.731 778.533 169.144 777.348 173.149C776.164 177.154 774.672 177.316 774.672 177.316L765.563 178.959V178.687L765.567 178.556L765.646 172.044C765.701 168.603 765.474 165.004 763.793 161.922H763.759C763.759 161.922 761.696 159.594 757.742 159.594C753.788 159.594 755.586 162.359 755.586 162.359L755.703 162.473L765.577 172.037L765.701 172.157C767.12 172.357 768.845 171.324 770.14 170.838C772.131 170.091 774.09 169.244 776.16 168.731" fill="#EDD253"/>
<path d="M755.642 162.401L765.615 178.842L765.705 172.154" fill="#EDD253"/>
</g>
</g>
<defs>
<clipPath id="clip0_152_7883">
<rect width="31.8497" height="31.1334" fill="white" transform="translate(745.828 664.994)"/>
</clipPath>
<clipPath id="clip1_152_7883">
<rect width="31.8497" height="31.1334" fill="white" transform="translate(713.978 664.994)"/>
</clipPath>
<clipPath id="clip2_152_7883">
<rect width="31.8497" height="31.1334" fill="white" transform="translate(713.978 633.86)"/>
</clipPath>
<clipPath id="clip3_152_7883">
<rect width="31.8497" height="31.1334" fill="white" transform="translate(745.828 633.86)"/>
</clipPath>
<clipPath id="clip4_152_7883">
<rect width="31.8497" height="31.1334" fill="white" transform="translate(682.128 664.994)"/>
</clipPath>
<clipPath id="clip5_152_7883">
<rect width="31.8497" height="31.1334" fill="white" transform="translate(650.279 664.994)"/>
</clipPath>
<clipPath id="clip6_152_7883">
<rect width="31.8497" height="31.1334" fill="white" transform="translate(650.279 633.86)"/>
</clipPath>
<clipPath id="clip7_152_7883">
<rect width="31.8497" height="31.1334" fill="white" transform="translate(682.128 633.86)"/>
</clipPath>
<clipPath id="clip8_152_7883">
<rect width="31.8497" height="31.1334" fill="white" transform="translate(682.13 602.727)"/>
</clipPath>
<clipPath id="clip9_152_7883">
<rect width="31.8497" height="31.1334" fill="white" transform="translate(650.281 602.727)"/>
</clipPath>
<clipPath id="clip10_152_7883">
<rect width="31.8497" height="31.1334" fill="white" transform="translate(650.281 571.594)"/>
</clipPath>
<clipPath id="clip11_152_7883">
<rect width="31.8497" height="31.1334" fill="white" transform="translate(682.13 571.594)"/>
</clipPath>
<clipPath id="clip12_152_7883">
<rect width="31.8497" height="31.1334" fill="white" transform="translate(745.83 602.727)"/>
</clipPath>
<clipPath id="clip13_152_7883">
<rect width="31.8497" height="31.1334" fill="white" transform="translate(713.98 602.727)"/>
</clipPath>
<clipPath id="clip14_152_7883">
<rect width="31.8497" height="31.1334" fill="white" transform="translate(713.98 571.594)"/>
</clipPath>
<clipPath id="clip15_152_7883">
<rect width="31.8497" height="31.1334" fill="white" transform="translate(745.83 571.594)"/>
</clipPath>
<clipPath id="clip16_152_7883">
<rect width="31.8497" height="31.1334" fill="white" transform="translate(745.832 252.994)"/>
</clipPath>
<clipPath id="clip17_152_7883">
<rect width="31.8497" height="31.1334" fill="white" transform="translate(713.981 252.994)"/>
</clipPath>
<clipPath id="clip18_152_7883">
<rect width="31.8497" height="31.1334" fill="white" transform="translate(713.981 221.86)"/>
</clipPath>
<clipPath id="clip19_152_7883">
<rect width="31.8497" height="31.1334" fill="white" transform="translate(745.832 221.86)"/>
</clipPath>
<clipPath id="clip20_152_7883">
<rect width="31.8497" height="31.1334" fill="white" transform="translate(682.132 252.994)"/>
</clipPath>
<clipPath id="clip21_152_7883">
<rect width="31.8497" height="31.1334" fill="white" transform="translate(650.282 252.994)"/>
</clipPath>
<clipPath id="clip22_152_7883">
<rect width="31.8497" height="31.1334" fill="white" transform="translate(650.282 221.86)"/>
</clipPath>
<clipPath id="clip23_152_7883">
<rect width="31.8497" height="31.1334" fill="white" transform="translate(682.132 221.86)"/>
</clipPath>
<clipPath id="clip24_152_7883">
<rect width="31.8497" height="31.1334" fill="white" transform="translate(682.134 189.861)"/>
</clipPath>
<clipPath id="clip25_152_7883">
<rect width="31.8497" height="31.1334" fill="white" transform="translate(650.284 189.861)"/>
</clipPath>
<clipPath id="clip26_152_7883">
<rect width="31.8497" height="31.1334" fill="white" transform="translate(650.284 158.727)"/>
</clipPath>
<clipPath id="clip27_152_7883">
<rect width="31.8497" height="31.1334" fill="white" transform="translate(682.134 158.727)"/>
</clipPath>
<clipPath id="clip28_152_7883">
<rect width="31.8497" height="31.1334" fill="white" transform="translate(745.833 190.727)"/>
</clipPath>
<clipPath id="clip29_152_7883">
<rect width="31.8497" height="31.1334" fill="white" transform="translate(713.983 190.727)"/>
</clipPath>
<clipPath id="clip30_152_7883">
<rect width="31.8497" height="31.1334" fill="white" transform="translate(713.983 159.594)"/>
</clipPath>
<clipPath id="clip31_152_7883">
<rect width="31.8497" height="31.1334" fill="white" transform="translate(745.833 159.594)"/>
</clipPath>
</defs>
</svg>
