<svg width="919" height="1081" viewBox="0 0 919 1081" fill="none" xmlns="http://www.w3.org/2000/svg">
<path d="M301.606 803.168C184.398 800.256 90.8822 701.974 93.7944 584.766L94.0941 572.705C97.0069 455.496 195.287 361.982 312.496 364.894L1037.61 382.915C1154.82 385.827 1248.33 484.109 1245.42 601.317L1245.12 613.378C1242.21 730.586 1143.93 824.101 1026.72 821.188L301.606 803.168Z" fill="#EDD253"/>
<g opacity="0.7">
<g clip-path="url(#clip0_145_7881)">
<path d="M909.249 432.165C909.249 432.165 907.903 432.847 904.741 433.188C901.58 433.529 900.088 433.188 900.088 433.188L900.075 433.808" fill="#747399"/>
<path d="M900.089 433.536C900.009 437.39 899.365 441.447 897.447 444.763C897.275 445.042 896.968 445.59 896.707 445.576C896.376 445.407 896.469 444.612 896.438 444.222C896.403 440.534 896.252 436.845 895.859 433.181L895.735 433.154C890.99 432.885 884.594 432.027 880.375 428.322C880.289 428.232 880.386 428.246 880.733 428.284C881.863 428.408 885.338 428.773 887.46 428.759C889.65 428.756 893.442 428.356 894.692 428.229L894.754 428.081C893.511 424.316 891.851 420.707 890.087 417.16" fill="#747399"/>
<path d="M910.675 423.579C910.675 423.579 913.044 423.993 911.86 427.998C910.675 432.003 909.184 432.165 909.184 432.165L900.074 433.808V433.536L900.078 433.405L900.157 426.892C900.212 423.452 899.985 419.853 898.304 416.771H898.27C898.27 416.771 896.207 414.443 892.253 414.443C888.3 414.443 890.097 417.208 890.097 417.208L890.214 417.322L900.088 426.886L900.212 427.006C901.631 427.206 903.356 426.173 904.651 425.687C906.642 424.94 908.602 424.092 910.671 423.579" fill="#747399"/>
<path d="M890.153 417.249L900.127 433.691L900.216 427.003" fill="#747399"/>
</g>
<g clip-path="url(#clip1_145_7881)">
<path d="M877.4 432.165C877.4 432.165 876.053 432.847 872.892 433.188C869.73 433.529 868.239 433.188 868.239 433.188L868.225 433.808" fill="#747399"/>
<path d="M868.239 433.536C868.16 437.39 867.516 441.447 865.597 444.763C865.425 445.042 865.119 445.59 864.857 445.576C864.526 445.407 864.619 444.612 864.588 444.222C864.554 440.534 864.402 436.845 864.01 433.181L863.886 433.154C859.14 432.885 852.745 432.027 848.526 428.322C848.44 428.232 848.536 428.246 848.884 428.284C850.013 428.408 853.488 428.773 855.61 428.759C857.8 428.756 861.592 428.356 862.842 428.229L862.904 428.081C861.661 424.316 860.001 420.707 858.238 417.16" fill="#747399"/>
<path d="M878.825 423.579C878.825 423.579 881.195 423.993 880.01 427.998C878.825 432.003 877.334 432.165 877.334 432.165L868.225 433.808V433.536L868.228 433.405L868.307 426.892C868.363 423.452 868.135 419.853 866.455 416.771H866.42C866.42 416.771 864.357 414.443 860.404 414.443C856.45 414.443 858.248 417.208 858.248 417.208L858.365 417.322L868.239 426.886L868.363 427.006C869.781 427.206 871.507 426.173 872.802 425.687C874.792 424.94 876.752 424.092 878.822 423.579" fill="#747399"/>
<path d="M858.303 417.249L868.277 433.691L868.366 427.003" fill="#747399"/>
</g>
<g clip-path="url(#clip2_145_7881)">
<path d="M877.4 401.032C877.4 401.032 876.053 401.714 872.892 402.054C869.73 402.395 868.239 402.054 868.239 402.054L868.225 402.674" fill="#747399"/>
<path d="M868.239 402.402C868.16 406.256 867.516 410.313 865.597 413.63C865.425 413.909 865.119 414.456 864.857 414.442C864.526 414.274 864.619 413.478 864.588 413.089C864.554 409.4 864.402 405.712 864.01 402.048L863.886 402.02C859.14 401.751 852.745 400.894 848.526 397.188C848.44 397.099 848.536 397.112 848.884 397.15C850.013 397.274 853.488 397.639 855.61 397.626C857.8 397.622 861.592 397.223 862.842 397.095L862.904 396.947C861.661 393.183 860.001 389.574 858.238 386.026" fill="#747399"/>
<path d="M878.825 392.446C878.825 392.446 881.195 392.859 880.01 396.864C878.825 400.87 877.334 401.032 877.334 401.032L868.225 402.674V402.402L868.228 402.271L868.307 395.759C868.363 392.318 868.135 388.72 866.455 385.637H866.42C866.42 385.637 864.357 383.309 860.404 383.309C856.45 383.309 858.248 386.075 858.248 386.075L858.365 386.188L868.239 395.752L868.363 395.873C869.781 396.072 871.507 395.039 872.802 394.554C874.792 393.806 876.752 392.959 878.822 392.446" fill="#747399"/>
<path d="M858.303 386.116L868.277 402.557L868.366 395.869" fill="#747399"/>
</g>
<g clip-path="url(#clip3_145_7881)">
<path d="M909.249 401.032C909.249 401.032 907.903 401.714 904.741 402.054C901.58 402.395 900.088 402.054 900.088 402.054L900.075 402.674" fill="#747399"/>
<path d="M900.089 402.402C900.009 406.256 899.365 410.313 897.447 413.63C897.275 413.909 896.968 414.456 896.707 414.442C896.376 414.274 896.469 413.478 896.438 413.089C896.403 409.4 896.252 405.712 895.859 402.048L895.735 402.02C890.99 401.751 884.594 400.894 880.375 397.188C880.289 397.099 880.386 397.112 880.733 397.15C881.863 397.274 885.338 397.639 887.46 397.626C889.65 397.622 893.442 397.223 894.692 397.095L894.754 396.947C893.511 393.183 891.851 389.574 890.087 386.026" fill="#747399"/>
<path d="M910.675 392.446C910.675 392.446 913.044 392.859 911.86 396.864C910.675 400.87 909.184 401.032 909.184 401.032L900.074 402.674V402.402L900.078 402.271L900.157 395.759C900.212 392.318 899.985 388.72 898.304 385.637H898.27C898.27 385.637 896.207 383.309 892.253 383.309C888.3 383.309 890.097 386.075 890.097 386.075L890.214 386.188L900.088 395.752L900.212 395.873C901.631 396.072 903.356 395.039 904.651 394.554C906.642 393.806 908.602 392.959 910.671 392.446" fill="#747399"/>
<path d="M890.153 386.116L900.127 402.557L900.216 395.869" fill="#747399"/>
</g>
</g>
<defs>
<clipPath id="clip0_145_7881">
<rect width="31.8497" height="31.1334" fill="white" transform="translate(880.344 414.443)"/>
</clipPath>
<clipPath id="clip1_145_7881">
<rect width="31.8497" height="31.1334" fill="white" transform="translate(848.495 414.443)"/>
</clipPath>
<clipPath id="clip2_145_7881">
<rect width="31.8497" height="31.1334" fill="white" transform="translate(848.495 383.309)"/>
</clipPath>
<clipPath id="clip3_145_7881">
<rect width="31.8497" height="31.1334" fill="white" transform="translate(880.344 383.309)"/>
</clipPath>
</defs>
</svg>
