<svg width="28" height="895" viewBox="0 0 28 895" fill="none" xmlns="http://www.w3.org/2000/svg">
<path d="M13.7988 0.815349C6.43503 0.815349 0.465495 6.78489 0.465495 14.1487C0.465495 21.5125 6.43503 27.482 13.7988 27.482C21.1626 27.482 27.1322 21.5125 27.1322 14.1487C27.1322 6.78488 21.1626 0.815348 13.7988 0.815349ZM13.7989 867.581C6.43507 867.581 0.465533 873.55 0.465533 880.914C0.465533 888.278 6.43507 894.247 13.7989 894.247C21.1627 894.247 27.1322 888.278 27.1322 880.914C27.1322 873.55 21.1627 867.581 13.7989 867.581ZM11.2988 14.1487L11.2989 880.914L16.2989 880.914L16.2988 14.1487L11.2988 14.1487Z" fill="#9BA1D1"/>
</svg>
