<svg width="394" height="336" viewBox="0 0 394 336" fill="none" xmlns="http://www.w3.org/2000/svg">
<g clip-path="url(#clip0_28_2958)">
<path d="M362.035 191.094C362.035 191.094 347.516 198.447 313.427 202.123C279.338 205.799 263.259 202.123 263.259 202.123L263.11 208.807" fill="#F2F4FF"/>
<path d="M263.259 205.874C262.405 247.426 255.461 291.17 234.777 326.93C232.92 329.938 229.616 335.842 226.793 335.694C223.228 333.874 224.231 325.296 223.897 321.1C223.526 281.33 221.892 241.559 217.658 202.049L216.322 201.752C165.151 198.855 96.1932 189.609 50.704 149.653C49.7757 148.687 50.8154 148.836 54.566 149.244C66.7459 150.581 104.214 154.517 127.089 154.369C150.706 154.332 191.59 150.024 205.07 148.65L205.738 147.053C192.333 106.466 174.434 67.5495 155.422 29.3015" fill="#F2F4FF"/>
<path d="M377.408 98.5192C377.408 98.5192 402.956 102.975 390.182 146.162C377.408 189.349 361.329 191.094 361.329 191.094L263.11 208.807V205.874L263.147 204.462L264.001 134.242C264.595 97.1453 262.144 58.3403 244.023 25.1054H243.652C243.652 25.1054 221.408 0.00280762 178.779 0.00280762C136.149 0.00280762 155.533 29.8214 155.533 29.8214L156.795 31.0468L263.258 134.168L264.595 135.468C279.894 137.621 298.499 126.481 312.461 121.245C333.924 113.187 355.054 104.052 377.371 98.5192" fill="#F2F4FF"/>
<path d="M156.128 30.267L263.668 207.545L264.633 135.43" fill="#F2F4FF"/>
</g>
<g clip-path="url(#clip1_28_2958)">
<path d="M311.665 191.091C311.665 191.091 297.146 198.444 263.057 202.12C228.968 205.796 212.889 202.12 212.889 202.12L212.74 208.804" fill="#545C99"/>
<path d="M212.889 205.871C212.035 247.424 205.091 291.168 184.407 326.928C182.55 329.935 179.245 335.84 176.423 335.691C172.858 333.872 173.861 325.294 173.527 321.098C173.155 281.327 171.522 241.557 167.288 202.046L165.951 201.749C114.781 198.852 45.823 189.606 0.333929 149.65C-0.594421 148.684 0.445331 148.833 4.19586 149.241C16.3758 150.578 53.844 154.514 76.7185 154.366C100.336 154.329 141.22 150.021 154.7 148.647L155.368 147.051C141.963 106.463 124.064 67.5467 105.052 29.2987" fill="#545C99"/>
<path d="M327.038 98.5164C327.038 98.5164 352.586 102.973 339.812 146.159C327.038 189.346 310.959 191.091 310.959 191.091L212.74 208.804V205.871L212.777 204.46L213.631 134.239C214.225 97.1425 211.774 58.3375 193.653 25.1026H193.282C193.282 25.1026 171.038 0 128.409 0C85.7788 0 105.163 29.8186 105.163 29.8186L106.425 31.044L212.888 134.165L214.225 135.465C229.524 137.619 248.128 126.478 262.091 121.242C283.554 113.184 304.684 104.049 327.001 98.5164" fill="#545C99"/>
<path d="M105.758 30.2642L155.731 148.183L213.298 207.542L214.263 135.428" fill="#545C99"/>
</g>
<defs>
<clipPath id="clip0_28_2958">
<rect width="343.415" height="335.691" fill="white" transform="translate(50.3701 0.00280762)"/>
</clipPath>
<clipPath id="clip1_28_2958">
<rect width="343.415" height="335.691" fill="white"/>
</clipPath>
</defs>
</svg>
