<svg width="395" height="336" viewBox="0 0 395 336" fill="none" xmlns="http://www.w3.org/2000/svg">
<path d="M249.201 34.615C232.041 -5.85262 131.473 -13.8804 153.301 27.9738C198.842 115.295 233.05 223.653 223.844 310.481C221.772 330.04 216.002 360.089 244.066 301.906C281.149 225.039 261.394 63.3875 249.201 34.615Z" fill="#F2F4FF"/>
<path d="M354.662 194.059C397.123 180.01 411.986 82.49 367.807 101.009C275.623 139.615 162.693 165.779 74.6348 151.037C54.7862 147.716 24.4998 140.09 82.0476 171.307C158.1 212.578 324.488 204.039 354.662 194.059Z" fill="#F2F4FF"/>
<path d="M201.255 34.615C184.095 -5.85262 83.5266 -13.8804 105.354 27.9738C150.896 115.295 185.103 223.653 175.898 310.481C173.825 330.04 168.056 360.089 196.12 301.906C233.203 225.039 213.448 63.3875 201.255 34.615Z" fill="#545C99"/>
<path d="M306.716 194.059C349.176 180.01 364.04 82.49 319.861 101.009C227.676 139.615 114.747 165.779 26.6885 151.037C6.83995 147.716 -23.4465 140.09 34.1013 171.307C110.153 212.578 276.542 204.039 306.716 194.059Z" fill="#545C99"/>
</svg>
