<svg width="394" height="337" viewBox="0 0 394 337" fill="none" xmlns="http://www.w3.org/2000/svg">
<path d="M248.464 34.935C231.304 -5.53268 130.736 -13.5605 152.563 28.2938C198.105 115.615 232.312 223.972 223.107 310.801C221.034 330.36 215.265 360.409 243.329 302.226C280.412 225.359 260.657 63.7075 248.464 34.935Z" fill="#F2F4FF"/>
<path d="M353.925 194.379C396.385 180.33 411.249 82.81 367.07 101.329C274.885 139.935 161.956 166.099 73.8975 151.357C54.0489 148.036 23.7625 140.41 81.3103 171.627C157.362 212.897 323.751 204.359 353.925 194.379Z" fill="#F2F4FF"/>
<path d="M200.518 34.935C183.358 -5.53268 82.7892 -13.5605 104.617 28.2938C150.159 115.615 184.366 223.972 175.161 310.801C173.088 330.36 167.318 360.409 195.383 302.226C232.466 225.359 212.711 63.7075 200.518 34.935Z" fill="#545C99"/>
<path d="M305.979 194.379C348.439 180.33 363.302 82.81 319.124 101.329C226.939 139.935 114.009 166.099 25.9512 151.357C6.10264 148.036 -24.1838 140.41 33.364 171.627C109.416 212.897 275.804 204.359 305.979 194.379Z" fill="#545C99"/>
</svg>
