<svg width="395" height="337" viewBox="0 0 395 337" fill="none" xmlns="http://www.w3.org/2000/svg">
<path d="M249.371 35.3447C232.211 -5.12292 131.642 -13.1507 153.47 28.7035C199.012 116.025 233.219 224.382 224.014 311.211C221.941 330.769 216.172 360.819 244.236 302.635C281.319 225.769 261.564 64.1172 249.371 35.3447Z" fill="#F2F4FF"/>
<path d="M354.832 194.789C397.292 180.74 412.155 83.2198 367.977 101.739C275.792 140.345 162.862 166.509 74.8042 151.767C54.9557 148.446 24.6693 140.82 82.2171 172.037C158.269 213.307 324.657 204.769 354.832 194.789Z" fill="#F2F4FF"/>
<path d="M201.425 35.3447C184.265 -5.12292 83.6962 -13.1507 105.524 28.7035C151.066 116.025 185.273 224.382 176.068 311.211C173.995 330.769 168.225 360.819 196.29 302.635C233.373 225.769 213.618 64.1172 201.425 35.3447Z" fill="#545C99"/>
<path d="M306.885 194.789C349.346 180.74 364.209 83.2198 320.031 101.739C227.846 140.345 114.916 166.509 26.858 151.767C7.00938 148.446 -23.277 140.82 34.2708 172.037C110.323 213.307 276.711 204.769 306.885 194.789Z" fill="#545C99"/>
</svg>
