<svg width="774" height="661" viewBox="0 0 774 661" fill="none" xmlns="http://www.w3.org/2000/svg">
<path d="M671.89 239.26C663.68 205.31 587.3 186.86 598.92 222.45C623.17 296.71 636.1 386.17 618.28 453.44C614.27 468.6 606.11 491.56 634.89 449.13C672.93 393.08 677.72 263.39 671.89 239.26Z" fill="white"/>
<path d="M733.33 377.56C767.75 371.63 791.23 296.63 754.94 305.87C679.24 325.14 589.11 332.1 523.17 309.87C508.31 304.86 485.94 295.2 526.37 326.73C579.79 368.39 708.88 381.78 733.33 377.56Z" fill="white"/>
<path d="M446.86 188.63C422.36 166.84 394.33 155.94 362.78 155.94C314.17 155.94 265.56 156.14 216.95 156.26C194.18 156.32 171.42 156.24 148.65 156.18C139.32 156.15 128.19 155.74 112.37 156.08C100.88 156.34 82.9999 157 82.9999 157C82.9999 157 72.5899 171.18 65.9999 184C62.9199 190 59.1499 198.68 56.3999 210.1C97.4699 210.4 138.54 210.7 179.61 211L179.07 387.47C179.68 455.61 180.28 523.75 180.89 591.89C187.53 596.49 195.57 601.41 205.01 606C215.19 610.95 224.67 614.4 232.87 616.84C232.13 557.52 228.7 281.32 228.7 281C228.7 281 228.7 280.88 228.7 280.71C228.72 257.47 228.9 234.24 228.9 211C228.94 208.43 309.85 210.41 315.66 210.5C353.64 211.14 395.34 204.81 422.54 237.35C424.09 239.2 425.57 241.12 426.95 243.11C436.08 256.28 440.65 270.58 440.65 286.01C440.65 312.8 429.02 333.45 405.77 347.98C398.4 352.51 390.72 355.78 382.72 357.8C373.53 360.12 366.27 360.19 362.8 360.24C346.5 360.45 320.54 361.18 287.02 362.01C273.35 379.68 259.69 397.34 246.02 415.01C284.95 414.91 323.88 414.82 362.8 414.72C403.07 414.72 435.87 399.06 461.2 367.73C480.71 343.67 490.47 316.44 490.47 286.02C490.46 246.97 475.92 214.51 446.86 188.63Z" fill="white"/>
<path d="M597.37 504.51C539.29 593.76 439.71 649 330.5 649C154.88 649 12 506.12 12 330.5C12 154.88 154.88 12 330.5 12C445.74 12 549.63 72.98 606.04 170.55C607.75 171.35 609.42 172.21 611.07 173.12C615.51 175 619.94 176.9 624.28 178.97C599.3 130.53 562.77 89.04 517.34 57.85C462.22 20 397.61 0 330.5 0C242.22 0 159.22 34.38 96.8 96.8C34.38 159.22 0 242.22 0 330.5C0 418.78 34.38 501.78 96.8 564.2C159.22 626.62 242.22 661 330.5 661C396.88 661 460.9 641.4 515.64 604.32C555.91 577.04 589.31 541.62 614 500.44C608.46 501.86 602.96 503.5 597.37 504.51Z" fill="#9AA0D1"/>
</svg>
