<svg width="220" height="215" viewBox="0 0 220 215" fill="none" xmlns="http://www.w3.org/2000/svg">
<g clip-path="url(#clip0_141_3686)">
<path d="M199.098 122.511C199.098 122.511 189.834 127.202 168.086 129.547C146.337 131.893 136.079 129.547 136.079 129.547L135.984 133.812" fill="#F2F4FF"/>
<path d="M136.079 131.94C135.534 158.451 131.104 186.359 117.908 209.173C116.723 211.092 114.615 214.859 112.814 214.764C110.54 213.604 111.18 208.131 110.966 205.454C110.729 180.081 109.687 154.707 106.986 129.5L106.133 129.31C73.487 127.462 29.4925 121.563 0.470788 96.0717C-0.121491 95.4557 0.541862 95.5505 2.93467 95.8111C10.7054 96.6639 34.6098 99.1752 49.2035 99.0805C64.2711 99.0568 90.3551 96.3086 98.955 95.432L99.3814 94.4133C90.8289 68.5188 79.4098 43.6905 67.2799 19.2886" fill="#F2F4FF"/>
<path d="M208.906 63.4489C208.906 63.4489 225.205 66.2918 217.056 93.8447C208.906 121.397 198.648 122.511 198.648 122.511L135.985 133.812V131.94L136.008 131.04L136.553 86.2398C136.932 62.5723 135.369 37.815 123.807 16.6114H123.57C123.57 16.6114 109.379 0.596191 82.1819 0.596191C54.9844 0.596191 67.3512 19.6202 67.3512 19.6202L68.1567 20.402L136.079 86.1924L136.932 87.0216C146.693 88.3957 158.562 81.2883 167.47 77.9479C181.164 72.8069 194.644 66.9789 208.882 63.4489" fill="#F2F4FF"/>
<path d="M67.7305 19.9045L136.34 133.006L136.956 86.998" fill="#F2F4FF"/>
</g>
<defs>
<clipPath id="clip0_141_3686">
<rect width="219.096" height="214.168" fill="white" transform="translate(0.257812 0.596191)"/>
</clipPath>
</defs>
</svg>
