<svg width="220" height="215" viewBox="0 0 220 215" fill="none" xmlns="http://www.w3.org/2000/svg">
<g clip-path="url(#clip0_141_3679)">
<path d="M199.166 122.39C199.166 122.39 189.902 127.081 168.154 129.426C146.405 131.771 136.147 129.426 136.147 129.426L136.052 133.69" fill="#545C99"/>
<path d="M136.147 131.819C135.602 158.329 131.172 186.237 117.976 209.052C116.791 210.971 114.683 214.738 112.882 214.643C110.608 213.482 111.248 208.01 111.034 205.332C110.797 179.959 109.755 154.586 107.054 129.379L106.201 129.189C73.5548 127.341 29.5603 121.442 0.538659 95.9503C-0.0536203 95.3343 0.609733 95.4291 3.00254 95.6897C10.7732 96.5425 34.6776 99.0538 49.2714 98.9591C64.339 98.9354 90.423 96.1872 99.0229 95.3106L99.4493 94.2919C90.8968 68.3974 79.4776 43.5691 67.3478 19.1672" fill="#545C99"/>
<path d="M208.974 63.3275C208.974 63.3275 225.273 66.1705 217.124 93.7233C208.974 121.276 198.716 122.39 198.716 122.39L136.052 133.69V131.819L136.076 130.918L136.621 86.1185C137 62.451 135.436 37.6937 123.875 16.4901H123.638C123.638 16.4901 109.447 0.474854 82.2497 0.474854C55.0523 0.474854 67.4191 19.4989 67.4191 19.4989L68.2246 20.2807L136.147 86.0711L137 86.9003C146.761 88.2743 158.63 81.167 167.538 77.8265C181.231 72.6856 194.712 66.8575 208.95 63.3275" fill="#545C99"/>
<path d="M67.7983 19.7832L136.408 132.885L137.024 86.8766" fill="#545C99"/>
</g>
<defs>
<clipPath id="clip0_141_3679">
<rect width="219.096" height="214.168" fill="white" transform="translate(0.325684 0.474854)"/>
</clipPath>
</defs>
</svg>
